<mxfile host="app.diagrams.net" agent="Mozilla/5.0 (Macintosh; Intel Mac OS X 10_15_7) AppleWebKit/537.36 (KHTML, like Gecko) Chrome/139.0.0.0 Safari/537.36" version="28.1.2">
  <diagram name="Page-1" id="iiVLN1ckQzudb9AQvQol">
    <mxGraphModel dx="946" dy="1717" grid="1" gridSize="10" guides="1" tooltips="1" connect="1" arrows="1" fold="1" page="1" pageScale="1" pageWidth="850" pageHeight="1100" math="0" shadow="0">
      <root>
        <mxCell id="0" />
        <mxCell id="1" parent="0" />
        <mxCell id="HNPhzTlXMBf4bkOYf2PD-1" value="&lt;h2&gt;&lt;b&gt;Vulnerability&lt;/b&gt;&lt;/h2&gt;" style="text;html=1;align=center;verticalAlign=middle;whiteSpace=wrap;rounded=1;fillColor=#f5f5f5;fontColor=#333333;strokeColor=#666666;fontFamily=Verdana;fontSize=10;" parent="1" vertex="1">
          <mxGeometry x="440" y="390" width="170" height="40" as="geometry" />
        </mxCell>
        <mxCell id="dWOH3xf_sxbfQJaW1Qia-4" style="edgeStyle=orthogonalEdgeStyle;rounded=0;orthogonalLoop=1;jettySize=auto;html=1;exitX=1;exitY=0.5;exitDx=0;exitDy=0;" edge="1" parent="1" source="HNPhzTlXMBf4bkOYf2PD-4" target="HNPhzTlXMBf4bkOYf2PD-5">
          <mxGeometry relative="1" as="geometry" />
        </mxCell>
        <mxCell id="HNPhzTlXMBf4bkOYf2PD-4" value="&lt;h2&gt;&lt;b&gt;Exposure&lt;/b&gt;&lt;/h2&gt;" style="text;html=1;align=center;verticalAlign=middle;whiteSpace=wrap;rounded=1;fillColor=#e1d5e7;strokeColor=#9673a6;fontFamily=Verdana;fontSize=10;" parent="1" vertex="1">
          <mxGeometry x="180" y="200" width="170" height="40" as="geometry" />
        </mxCell>
        <mxCell id="dWOH3xf_sxbfQJaW1Qia-6" style="edgeStyle=orthogonalEdgeStyle;rounded=0;orthogonalLoop=1;jettySize=auto;html=1;exitX=0.5;exitY=1;exitDx=0;exitDy=0;entryX=0.5;entryY=0;entryDx=0;entryDy=0;startArrow=classic;startFill=1;dashed=1;dashPattern=1 1;" edge="1" parent="1" source="HNPhzTlXMBf4bkOYf2PD-5" target="dWOH3xf_sxbfQJaW1Qia-3">
          <mxGeometry relative="1" as="geometry" />
        </mxCell>
        <mxCell id="HNPhzTlXMBf4bkOYf2PD-5" value="&lt;h2&gt;&lt;b&gt;Sensitivity&lt;/b&gt;&lt;/h2&gt;" style="text;html=1;align=center;verticalAlign=middle;whiteSpace=wrap;rounded=1;fillColor=#f5f5f5;fontColor=#333333;strokeColor=#666666;fontFamily=Verdana;fontSize=10;" parent="1" vertex="1">
          <mxGeometry x="390" y="200" width="170" height="40" as="geometry" />
        </mxCell>
        <mxCell id="dWOH3xf_sxbfQJaW1Qia-1" value="" style="shape=image;verticalLabelPosition=bottom;labelBackgroundColor=default;verticalAlign=top;aspect=fixed;imageAspect=0;image=data:image/png,iVBORw0KGgoAAAANSUhEUgAAA2AAAAH4CAYAAAAsOI6jAAAAAXNSR0IArs4c6QAAAIRlWElmTU0AKgAAAAgABQESAAMAAAABAAEAAAEaAAUAAAABAAAASgEbAAUAAAABAAAAUgEoAAMAAAABAAIAAIdpAAQAAAABAAAAWgAAAAAAAACQAAAAAQAAAJAAAAABAAOgAQADAAAAAQABAACgAgAEAAAAAQAAA2CgAwAEAAAAAQAAAfgAAAAAe6fczQAAAAlwSFlzAAAWJQAAFiUBSVIk8AAAQABJREFUeAHsvQdwZdeZ5/cBeMgZaKDROSd2YjfJZiZFkZLIGSalkTSa8XA0O5J3Zlwu21tTZVe5asvlMGWvXbuz9tqenRntBEVLlESKSSLZzE2yu8nOzc4JHZAbOQP+/7/7LnDx+qG7gQYe0v+Qr9/De/eee87v3hO+cL6TZkiDSHxXEgEREAEREAEREAEREAEREAERmDwC6ZOXtXIWAREQAREQAREQAREQAREQARGIEpAAFqWhzyIgAiIgAiIgAiIgAiIgAiIwiQQkgE0iXGUtAiIgAiIgAiIgAiIgAiIgAlECEsCiNPRZBERABERABERABERABERABCaRgASwSYSrrEVABERABERABERABERABEQgSkACWJSGPouACIiACIiACIiACIiACIjAJBKQADaJcJW1CIiACIiACIiACIiACIiACEQJSACL0tBnERABERABERABERABERABEZhEAhLAJhGushYBERABERABERABERABERCBKAEJYFEa+iwCIiACIiACIiACIiACIiACk0hAAtgkwlXWIiACIiACIiACIiACIiACIhAlIAEsSkOfRUAEREAEREAEREAEREAERGASCUgAm0S4yloEREAEREAEREAEREAEREAEogQkgEVp6LMIiIAIiIAIiIAIiIAIiIAITCIBCWCTCFdZi4AIiIAIiIAIiIAIiIAIiECUgASwKA19FgEREAEREAEREAEREAEREIFJJCABbBLhKmsREAEREAEREAEREAEREAERiBKQABaloc8iIAIiIAIiIAIiIAIiIAIiMIkEJIBNIlxlLQIiIAIiIAIiIAIiIAIiIAJRAhLAojT0WQREQAREQAREQAREQAREQAQmkYAEsEmEq6xFQAREQAREQAREQAREQAREIEpAAliUhj6LgAiIgAiIgAiIgAiIgAiIwCQSkAA2iXCVtQiIgAiIgAiIgAiIgAiIgAhECcSif0zF566uLuvoaLf29g7r7euzwcEBs0H/fyqKo2uKwLQlkJZmlpGRYTk5OZafl295eXn+97Qt8Bwq2ODgoLEva2tr8/fevl4bHBhkV6YkAiIwRQTQZVpaerplZmZaXm6u5efne/85RcXRZUVABERgiMCUCmCctBw4cMB27nzT3nr7Lau+eMk6Ojt80qKJy9A90oe5TsAbw6BlpGdYeVmZbd+2zR555BF76MGHrKqqaq7TmRb17+josN27d9tvf/sb271nj1VfumRd3V1QKOHmUXJWEgERSC0BNj1ckYqqZUuW2L333GOPPvqYbd++3bKzs1NbFl1NBERABBII+MwAk4SUyzvnzp6zl1952T7Y/ZEdPXjQao6dtt7WVnSY/dIaJ9wk/SkCJMBGmhHLsYJlC23pmtW2fevt9sxTT9u227dZXn6eIE0Rgf3799s7771rb+N1/OBhazhfbQOtbbhf/VNUIl1WBEQgJJBmMcsoKbSK5Uttw5Yt9vmHHrIH73/A1q1fHx6idxEQARFIOYGUW8Ao67W0tNhvoCn+X//qr+xidbUVD2bY2twSW1C8yAozYhDCpDFO+ZOgC05rAmwRPXDPbervsWOX6u3tU6ft3d++YZ1t7V7uHTt2uJvNtK7ELCxcTU2N/ejHP7JfPv+8nTp+wiohIK/ILbalpaWWk5YxC2usKonAzCFApVXHQJ+d7e+wMweO2OF9B+wIFCZ1dXX253/251ZUVDRzKqOSioAIzCoCKRfAent77f/89//efvrzn1l9Q73dn1NuW7NLbV5mjuXAxSpd4tesesBUmYkjwMlEL4Swu9BeDmY02e7uq/aTH/zQGluuWllZqa1atdqysrIm7oLK6boEjh37zH7xy1/a8y+9aFfPXrDP58+3DdnFVpWZZ5lwO2RfpiQCIjB1BNhnDsAWfftgiVVnFNvR7mbbf/S4/fSXz1tRYZE9+eSTtmzZsqkroK4sAiIwZwmkXAA7deqUvfbG63Z8337bmF9ud+TNs/VZRT5h4V1ACA4lERCBUQhwSp+JiX1ueiYCcGTay1fP2ke7PrQ333wTC8wLbOnSpaOcqa8nmsCBg4fc8tV08pwtH8iyu/MrbEksz3Jh+UIIjom+nPITAREYB4Ggz0y30vRsK4xlWV1Du108ctx+DiXwunXrJICNg6lOEQERuHUCKRXAquFuuGvXLrtw+aJVwC/70dz5tgTaYnaQ3Yx+qCQCInBDAj04oiIj2x6E8uJib7udbW61F3/1gm3cuEkC2A3pTcwB3d3ddvjoEfvk492w4JfYfcXoyyB80erVMai1XxNDWbmIwMQQ6IFqNys9zVZkFdh9pQvt/ZYrtuv9D+zYieP22GOPTcxFlIsIiIAIjIFASvcBO3vunL337rvW39Jui9ERLs7MdW0xXQSUREAExkAAWoustHRbm1Noxa1dtmfvXjt7/twYMtCh4yXAcPOMeHgULojsudZmFtqKzHyIXmnqycYLVeeJwCQTYKgxTnjWoL2uihVYT0+PHTxy2Pbt+9S4NEJJBERABFJJIKUCWH19vZ04dtyyuvusMivP8tJjlo61EhK/UnnLda3ZQGAAswm2mwWxXCvpS7OGxka41jT4RGIKgprOBqQ3XQdO3OhKXVtXa7kIGlQFRVJpepavNZEy6aYx6kARSCkBxldmnzkP3gNVWbmWFYvZ5cuX7cyZM9bfL6t1Sm+GLiYCIuAKoZRhoJapE5su56Gvy8M6iX6fREr8StkN0IVmDYGw1eSmxawgI8ti2GyU+05xI2AJYJN7m8m3s7PTBnr7LQ/r8LIRPChDe31NLnTlLgITRCCGtpoNxUkO2m5fD+YksGirz5wguMpGBETgpgmk1AI2gHVe1DSlYfaoCGE3fY90oAiMSiADbm/h5H+gP2hfox6sHyaEACdr/QOwdeE9DZM5vpREQARmBgG2Vr6wJMwG0I77+2T9mhl3TqUUgdlFIKUCWIAu1N1r0jK7HiXVZioIBE41YcvCXxAKlFJIAN2YiKeQty4lArdIYKi9agpyiyR1ugiIwK0QmAIBLOz1hrrBWym/zhWBOU8gbEnawHzOPwoCIAIicLMEwo7zZo/XcSIgAiIwgQSmQACbwNIrKxEQARGYSgKaxE0lfV1bBERABERABGYkAQlgM/K2qdAiIAIiIAIiIAIiIAIiIAIzkYAEsJl411RmERABERABERABERABERCBGUkgNiNLrUKLgAiIgAiMTgDBWDwgi78Hh3mwxjBqoyI3js4u/CUxoM1EMZusfMNyJ3ufimsmK4e+EwEREAERcAISwPQgiIAIiMBsIwBhIR17wyFG/oiahULZiC/1R3ICCeySHzSObycr3+sVZSqueb3y6DcREAERmOMEZq8AhgFnEPt79Pf02EBfnw1iv49g94/x3/H0jHSL5eVaWkYGYk9r9f34SepMERCBiSbAfm4AG8vyPbMg33Iry/09lpNt6bGY9bS2W1dDk3XWN1p/d49vhJSRlem/eZ820QWaaflxzMA+lc4mDTtVxoUW9vT8nB7DrnvcPGqsyceiPoxFvcgoSb6ZyDd+rbFmfaPj+3t7fRw0bBYelpz1oXCeHrtWQL9RfvpdBERABERgYgjMWgGMwldWUYHlL6i03HmlFsvNgRA2TqGJIxdO7Wlts8ajJ30iw8FYSQREQASmmgCVSwO9fZZTVmIFi6ssb/48y8crtwICWH6uxbKzoTSKWW87BLCmZhfCets7rLu51dqqa6yjvsF62zriAsbcXRY8GBdcyzasBscFllNS7Iq79EywA5/Luz6xjroG58R77twhVEX33qMglQZFHQXe0PrIfLOKi6xw6UIrRL5ZRYUu6KVnZvr9uLxrr3VfbRnKd0KeJygIqSMsWDjfCpcstIJFVZaRlRWvT6Y1nzlvtXsPurCeRkspEp8hCu+BohInsy5en4yJLZtfTf+IgAiIwNwmMGsFsP7eHsurqrDVX37cFj+8wwc/10CO1XLFAYjPCN4bj5yw9/67/806ahssqzB/bj85qr0IiMD0IMA+CkJC2aZ1turpL9jSz9/jE32fQKOEydROvbCGNR0/Y6deeMOq3/nQGj87OT3qMoWloOWraOVSW/t7T9ryLz1kxSuWBJ4O4NtZ12ivfecvrfXilSFhhIJLenbWNSUOx4vwh/7uXghBVbbhD561ZY894MIQhTYKN1dPnbfXnvtXyH9YsAvPu5X3gX54fOAaFds2oj6/a0sevBvW0LyhLE/+4jWr23/UBlFnt76hLG7hS6JYDC1nQyfrgwiIgAiIwC0TmLUCmGH8oeYyq6QQGuEKyy0vvWVYHKAzMOAG7oy3nJ0yEAEREIFbIuCTe1g31v7e79iC++6w0vWr3OofnTRHP4cXo3dA+ca1ll1ShPfVduGtXXZh5y7ruFLvVrPwuLn0zn49hv6dVkR6TXiCYMLkrue0FMUVeH0dnVZx+222/tvPWnYxLFru4m6wKrZBsD1tZ17a6UJVaHXi+bRE0UrJ5EIP3jPzcuCVyHz96wn8JwjCklNa7MJ4VPjiRTJoFeUH1IdWL5ZhzVefsEUP3w1T2ID/TffFjtpGu/zBXrv47sc8OnC/90/6RwREQARE4FYIzF4BLKSCUQZu9xOSOIjRvSQchCckU2UiAiIgAmMkELq95ZaXWOUdm2zt13/XStauGFMusdxsK1m9zPIXVlp2ebG1X6yx3pb2IA8KGnHhY0yZzuCDvcpY30u3zcS6D0AY8X4/zoTKOLq3r/vGk/CGKBiqdU9bu11852OrfutDa7/UC7e/TMhWg7AuxVyIGzow/mFcXhmJmST7Oy7QUWHINYAUEENXQx4euBriA+ozgHVvWJlm83dstXWw/kVT64VL1tPSZtVvf+hfa61glI4+i4AIiMD4Ccx+AQyj6rjXfiVy5RqyCddUJl5Ef4uACIjA9QkM0sUMnVHlnZttxZOfdyHq+meM/msmrDOL7r3DGg4csx6sdWo6diqYsDPY0BxMSceLRGEUf1MI7se6qWjKgKBFAY7CDgU6SDhxSxM+DvKejUyhJWzktxP4F8c/FiSh/NHrBjY+FM+fqeFrU2jjsxHLgZulhr5hMPokAiIgAhNAYPYLYEkgDSBAR2dDo2v2+ru6rxmckpzi/vMtZy9aXzeOR+rr7MKgxMEtcjStbRjouLia7o/hjxzIqOlkhC0OyNGUkRVz7ahrIrkImlGrwjxxKKNVudUN51FryVd0gsCoXNRK0n8/PZaJgX9k/tFr8TPLwPpT6+kDrtchuCDL7vn5NZlfLH7txFyG/+bgPshyx/MbxCQjLJ+P+cyTkb9YTuSXQS7+w3Ae/ERGwSJwMhpO4bqE9ITJIMvuLHhdBxbU2zlA6+wTIB6DKJjMO2CKdReoG4/BB2fhUcLiEw9yZsCCdJwf3gTmzXJxIX24riK4XlBGZxZfdJ/Ge4D8k9VvuEb6JAITQIDtDM9m+cY1tujBuzzaYTRXBtloOX/JWs5eQNTDJn+G6QZXtHSRW8zoahdNmfl5tvDe7QjKccUFMD7rGZE2N9Q+k/QbzCfoN8J+CBH3Iuf6ddiO2B7Zv6E94gy84u0RfQL7jLBvogsceyRv0ew30KZoSWL/ERUcPN/IP15G9o/o37zNM8+g4QdNMuyL4u016AeG+0v+zbVxdZ8e9qAbdNNkP0NunbX1cC9s8Xxo/eqFC6KPHWFfHZaDfRuuyfGB98DHAfQ1DLJRs/sg7sVVv1esK5kzGEZvR4dX1scIlt/LHJSL2XmfhTEljVELo9fDj+TJyJfxanopeA4TxyHez8sffGLNp6vhdghrHJhQQKw78FnACOXo4xiIxH5uRPKLB9GEWV+vPC+E71n+4fsY/MRy8h4512hGRIJ7Qm7X1I1jV7y/HlGJ6Pn6LAIiIAKzkMCcFMA4EDQeOWlNJ854SGYf1MNRa5SbTFeOroar1oPIYVw3QV/+QDAKT+Cox0nEgA+8HIA5IHFQoSDD490dZWikDI7v6+jywZoDGgf8IfcXlgfHco1HIJRh4KQ2EtEcOblxQQu/U/Dp7+oJBnwMkszHrxsWK3zHsRwwWY/sklzLgFaT5eJgmYYQxSy7C1EUzjAQ94ER68DB3a+VhA/z47UysQaC7kzpiLJFQSksn0+CwINl8jy7MClpQxkxCfDswjxRVa6V4FqKjJycsMReJta/H0Iv79nQrAx1yYBbTXZukTOF1OOseCKP74UbEOvCyU9OWXEwCeJ0Dv+zPsyLQignJHQfysBEhb9xAsT7SysA68zJAoVH3m9y56SV99z5xu8Pr8M8yYoTmWAyxPOQoZIITAYBn4RT0RPzdUV5iHaYmJrPVtuZl3ci0MIRn4Tzmc8qKrJ5WzbguR6weQjYwfYWTfM2r7eGw8eDCbYLScGvbAfsJxi9j+5sLgyFfVDYDjjBhrKD7YCCiSstcHrYDtgnZKINcc0T+52gbVGA6HNhhr973h4yn30SFCQUxOJCG0Po96H/MPQdnhLaF48jD2/PkTJy6xB2Nvyd+bkSi/0b+spe9L3sVKJlpKDR9Nlp7wMYyp/nUJDpbkLf39Lq/Sc5UHhikKfEvpb9BgU2riNjXlTodOFcRpzkmNMFQYy/M19ybL9ci7J0eN1Zdgb18HEFzL1Twr2ilY3jBJVJrEuY2K+yjFl4BdIqf8N5OLevsxt1aMeavjqrh7CVg+uwHmF9OPYNDuB8BJPKRrRHjgccf0YkZEV+2VhHVrR8sffj7GvJMhCIMW6wnCwT7guVWbz3HI+C8gS5Dfazv87x6Jx+X+N18/uBcyioUkCL1m1EOfSHCIiACMxCAnNTAMNAXrv3kJ1/8wNEoTrnk+3EgfSae81BHNrJrsZmX3y97IsPYWAqhMYvAwMZBnFO2PsGfJA++9o7duXDT4PQ9xhscktLbO03n7SSVcvcgsZhkoMsB7Lqtz6yyzi2+yrz3WBLESWLgzAnPBQImo6ftVZMpvoxoDKaY9WO27FAHMJcbq5PXhg9qwED++WPPrWL8NPvRITGGCYHIxLKQIGD1rtCDKQL4W5UvmmNT95yy0otG0IKB0PuD9QFbTk15/WHjtuVj/bZ1ZNnA+EKE6TExElMDoKbzEeZKrfdZqVYg5JbUQahB2H/MQli6GZOWrqQbyvCXV/5eL+df+M91KXLJ2FpGWDGiQgmBvnzyz0frkPwSQRGcAo3TYdPerSuRrhFcYLnAzjqUrxqgc2/a6uvYeEkghMrzgMaj56yM7/e6ROb3MVltuorX8Ii9CqffHAyQStmw8FjWFxeb6XrVtrqZ7/okwue3Hqm2o784/N25tW3fILB+xorzLUF999pVXdusXIcn4PF+VwLyMkMBWPuq3T19HmrQd1q9hyARrvaBjDZpaCrJAKTQYACVKBcKIFQg/VKkcRntre11S4haMLBv/mRKy+8b0Mf0IY1Xm3VlyAIHLOtf/aHtvJ3Px85EwEh8FznulCBhuSTZPyMd06OMxFGnQEa5t+x2cqwbiwbCqUYLCkUpvi8Mzx7E/oK9nt1nxxGH3IR7TeYqLOfY9TY4pXLbNHn7nbhhAIh2wgtNBcRACR3XrlH7Ju3aa1HCYxBUKPQwbD5zOv0r37r7cuVIygWBTZP7JeRP4WdwmWLrOrubeiLNiCC4VIPvOQKGJSR65ioXGF/2XzukgeVuITgEuiAoP0JBD72O2RFYSQfHPKq5nkdcAVrSw8UVOzvFj5wN/ryxVa5fRP64eygHPF/2S+Url1pm/70m86b0RNPPf+q9xUZednuKppbUYq/oSgD5v6uTu+buWXAgnu3oV9e54GjKJiyv+pt77LWC5exruwjCIanvF/iibzPVPjMhwvqyqcfC6z2KAO/p8KqAf03+0HeRvaPhcsWunKP+dLC2HwC68LArWzDOnC/Df3oUqvYvnFEXTimMXz+4kfu8SibtOJ1QgnJ95JVS50Pnw3eCwrHLWcvWS36wLoDR1HEwHLJDFkerjVc/+1nXGBkX00Bjcq4ltMX7Oyrb1tHTZ36zBH09YcIiMBsJzAnBTBODLoar/rg33Lmgg+6HGyulzgwU9jiwMJBlhOQhRgwGS2LA2GoReXn7qYWaz130S1m3JOH0ckYfrhk9fJAi4sL0RWPg2ULhCvuA8PBsHDJIlvyyL2uIaUliQPVvE3rfdIwAMtO+W2rfSDj9cNUglDJjK5VhMlH/oIKj1hVf+iET5xCVxBMofy3Kgg38+/catR0Fyye71Y5157GMytZucT3OCuDmwwjpFVgMlSze79Vv7cHdWoeGiB9EAcuTkCq7tlmi+6/y4oxwOZBiMqmFhcTnjCxDnTr4USKgzBfF9/b7ZHCArdMTICy0zHQF6J+a2zZFx/0snOE5rkZcKtsg/Y2DZHFOHEIJh8DXvZ5W9YFAikCETAvWqhyiovt0vt7sQC+xgXgKkwYWRdO9niP2y/XWTn2+aFGnVrqBXffPrSIPgauLAeFVWroaSXg/VgA1ywKawWIpslJZzQNYlJZuGyxleCdk6cLEOrr4wKePzN4bpREYKIJuKAAqzH7pGjipN6tyLDcst252xwm8t4mMRnnXobs+7inVQlCrnt7igtbtMCwfbiV1/ufwM1sPtr5YgpfEG5K1yy3/MpyXGOk4FGMvqMI7aAUfdw8tLfziKjIPRPp/siele2P/RPdHNnOKTCxTCwL+zBaX3h+4ZIFbl0K68Q+gJP9HFihGRb+AoNboD+gpZvtmRYXWt8XP7TD+9kF6I/YF1IRxL6NnMLkFm4ohMogRDCvMkSMZF/UCoUTr0NhgoIfI0lSGUYhjEogKoha5pXBegfFFgCX3bYKfR4iTqIvc+t5eIH4Oy2Lix64y/vMpmNn7BwEDJ7HejNyYi7y8r4NFngqqmIQollOekkw3wL056EHBZU8bbgnLafPYY3eZ4G7Hu6XC0eoX/lta235458DSygCMYaw36LUlZmTa2dfedsVRvM2r4OgtToQwFDHDGz83AohlO6C+QsrXIirumuz1zehKv4nhVl3w6ypdwVXI7YvYN9fsWV9MPbh+eL9oLWtF4IuFVFUEPiYiHrz3lI5t/TR+92bgN4VfE77OiAoHvwM9+BjG6hGX49nREkEREAE5gqB4ZnyXKkx6snBjoNCHiYS3S3w68ff0YE6GYrQjY5WGK4fo+VsKSbnydx/Fj1wp1Gwu/D2R4hMttxWPfMYhB5oNukqEkmcDHHApNDG/Dlwc40G3d3CxL+vlzgB46SFr9L1sNDA2tZaXQttb4sPyBzpchDhjMLX7X/xRy7QuYtLkkzpipgNjSdfnPQsRj1qoWHtgua4Flpt1j1IsAzl5tnyJz7ne8wUL1+SJLfgK06y6MLCVzEmfFyvQi3yiZ+97Na1vn64anLSiMGXk6aCqsoReeXiHrlFD8dwboE3Z0bNM+9fMfhEQyxzYpVViIkS5l28NvMrxsQurDP/5r3we07Nd/xq1Mi7yyUmPDyWGnlOGLZ891uYpMwfUaboHzy2ANHQ+JoPK1le5TxMPl6x86+/5/c0eqw+i8BEEWC/QUUI+40RCY2JbYkKA/ZDtEpREGMj47F0Z6MrGz0AQrc/PsNsWwy20AChia0sUDTBhRf9yQpYyjbAesF2O1qiUijshypu34iJf5kd//9etksQcGjlZt9Cd7lChMznliDhtiBsNxTYRktsw/losyueqESftNwFrmpEGWR0vrQ0DF8oOC3uaxGNkHt3sf2Nlug2R+GHrzLwWQhhh6zosUCFGdnQtZDCCstEgTRM2YWF/jfd7GjBYj/DfjJpAut8lCMPAlUf2NOSRQGG6/UohNGVfChBp0QutMjTssR+Jw/liyZu4HwS3FwBiB+oQOS94ubKtLYVQWBLTM4XbKgUmwdBiYJxdIxjX0zhkdYxRsG8Xh9OIZF9aDbYtMEaR2VcVgHGT1jtoqkY3hX0mnDrJOVA3nf2wSznulW4f8tGlIGW005YvniPadVVEgEREIG5RGBOCmDUmFKDR2sGXWdCTV2yG++/QUC7Cp/5hsMn3BrVAjezC795xxZAOKHrHAfXaKKViesLOPkpW7/aljx8zwitLo+lZvjEL37jC7P72rEuijOgQLqIZjWmzxyIF8Fdrhmbe3LflmYswKclbcnn7sME6llYn1YMCSI3kzEH0rINa2z7f/kdO/qDX2JC9ZKzorsMrUML7tl+3YE72TUoXK78nc8hn0Hb+3/8rfU3hEIdjiaDxMSvkn0f/zpx4HaOQ3nA9seJAP4JBS1cOKnWmpMTTgQoDGdjjcfWf/kHmPQ97KGmh7K7wQdqoZfjHE546S7kmnpY5kLh7wan62cRuCkC7JNoGelsbPLnNdlJdJkt+J//EhNmBOKAhaf5XLVb29l3NUM5VIu1YXTrpVDi1oqMIOBOuH6LyogyTKi3fO/bbgW+nvCVeP0suDJyQ2i63zVDUUXhgpNxNsaR7TPxzOv/TYvU8scf9vrQNZptmcoRKpfomn094StZzjmwnK/7xu+iXAN24P/9kQu0fhzLCe+EaGI/4/0I+gkyGyFERQ+MfKbwQeGFfQvP9TzxPiLhb/7ua7VgDaJFkIJsNKVDeC1YNN+/pwv8APqodAhOFGpoxU9MdMOmGyAFdK5h5fosXpsfwxTWj30Wx8ObSRRI6TnAYCK8D4mJzyU9Pihw0TWbz1AMDIqgoKPAl5j4TF7efQBuloE1NPF3/S0CIiACs5nAnBTAqPWkNjIfg5q7D/IOD83QR95uam6pebzwxvvWDhcLav+oqWytvmznoDmlJY2WkmjiuoMFmBCs//1nAo1n4posHExN85mX3oRgd3Z4UkJhIWHgj+bLhdy8Nl1NOHlIXETPY+nqsQyaYG4GyjUfxdB8LoQLJNdLhS6JYZ50yemsb8D6iHafBGSXBsFFohEHqSFdSE06BFC663CNWXZxgc3buv6aiQLza4Emue3iFbfA0bWGi7dZpmjytRqYIDK4RTvcWjyx7omTE/6Q7Lvwe/yWyCuc6Hmefhwmfpz82UhXraHf4x9o3WvHRJHuh5wALcG6B2rCE1M3XJh4D+g+w/scrjEJj6NWmevhFj90t5397Tvu5pqRIdeakI/eJ4AAJrp87hnsoAPth+tvYtHgNWhLtAqz3dHltwNttu3SFbTLWnfNpWKg/XKNb7rMNT3tV2rRD1xGnlhb5kIDAs5AqUQrz9LP32dFKxZfU2i6FNO9ka7RtFyzL3LLR/xIBhOqQp9DRcRZKKvcbZm/jdae8RP7Ym4EPcDgEOgz6d4d7Yu4jqxi20ZXijAb9oN0a6SFh8JZNHH9aTP6onb0RRQEeC6tRVGBhXlTwVSBwCQsL/tXMvBXgkWGvKlIoYBUvw9rnPA3XZvpkhl1Cee5zIf9L4UQujd2wy2Pe4a5EOd90XBJvc/D/fS64z5RaVdE6xrGlWgqWLTA19B1Nx92lrxPZRTAIOwkpoYjJ6z20yPel9FVcbg+w30ghSVem+W7+O5u64ZgR6XaCI74vR+umdwfjh4fVCzV7D3ozw7HP7qRMrAKBeEw0SuhdM0Kq8NvXP87SOsZxgA+S4wPEk3NWI97GRYzjxaJMVZJBERABOYSgTkpgHHw4sCVbPAa7ea3QmuchUkBBzQKcJxs0HWF7nHUvnKAjya6dWz7L56LfuWfOehxMLv80ScId3zQNYocwIfd+645xb+g60vt/sMeHGOgp8/97ysxGfGJDzSoYaJQQyvYsR+/aDmYGC199D5fm5QofPF4Lm6/9P5uaMQvulWobMNK1GWbB60I8+M7JyqcvMzfvtmqsRickzNO7KKukjyOQTm4/urMKzs90AXdDtd8+Uu2GQvSKahyoGb9OfjH4Hbj0QURJcwnIYmjMzOc7ISycHLC4CRXYTW8ArcspjK4CSV7NjhJomaZa7w6axvdTYnrYwqWLvCJa1hcruFY+dSjbmVoxiJzPi9KIjCRBNgPsck0nTjtk1gqfIba4/B82BUrnFTzNX/7cAk4OaalvBbrii5ijWfNxwwE1IK1PEEEO1pc2ObzIOAkJrpO1+w94B4BVN6wDXA9UD6sMWzbYSqDS/RyWLsvffhJ4AYZ/pDknUIL+8VLCJlOK1zR8oVQgtw35KropyBvWrk8oiz6Dfji+Ronrj9zHpF8OyEonX/9fayDegvuhdUueG3846/bmq8+4QJTyI+Kt0xYdrLQb6bDYofOKJJL5COO4x5fFF4ZXZLKM65X3fHf/jn64OE1uVzb1YygPJ/+9fe9T0nHfaKQTKFq9IQok1wTDIGSUSu5ho0WzGiiUqgEgk09rGQUZmmFK4V7eyHuU2LiPm6NiGbJKIdRoTh6nH+PujJCIt3lOX5t/6/+BEGJvjR0GPtl9unnd35gh//Tz9yFleubmS+3N+Aav4qtG0b0fXQZL8PaYSrsAgtcGuqz0EoghCXeI1pnG9CfUkAerZxDhdEHERABEZhlBOakADaee+gDhE8ugvURHKg5EeF+KicRoWs5BmNq/26UqEk989JORPV63dccUBi8UaKV6PwbH9i537ztgx5dVhjsgcEhtn7v931CEs2DFipGSixcQt97rAuDpSaaaKmq+eSQW/AYlZDRqDgRoUC0+lKtW9BKsPA6KrRxQla1Yws0q1g7guvnwFrGMO7RREGDayvcAgatbysirl14e5drjhmkgwIZEXLtRCM04z2tCD88NOHBD6lKfu/a7QoWi59+8Q1o/xt98kmXqSKsfatCYA4uxo+mDvzGieSxH/7K18/4xA2L8rmO5M6//J6v3QuP52SmBNYHWiGuWaMTHqR3EbgFAuHWEZd37YMcEigSGFDGA0XcRL4MpV4KCy9d+ChANX72oB3/6a/tClzCuEasBO24HEFuon0As22FRYmW8M/++Zc45ySUMzE7/cJvIYw8ZNv/6z8ZITCxvTPwEPsFWss8Jco3+Jvh0o/95EU79YvXcFybT8jZ3+SWl7n1PlGBwX6KHgC0MNHFj39HLWW8DtvgvI2rvS/q6+6yNlj5KDgxGmIhLHpsm+zHaGlqhLDAsO0ufEUEyKDAkX9xPAVU9hPs++lhcE37Rn0oUNAToPnkObesUbmWKHxEcvWPLD8FljpYrsrhtp4ogBVhHVgZrG0sM5VGVPy5pQyMo4kRZ1sgcLbBwknF3qjXjXe3tGr1oi4dGIe6r7ZGs/LPFAppHaMrqevI4v11EwJxUBik1cwiQxjXvs2Dd8m5V9/yvp3KOlrvsnG/wsQ+n2uUGd3Rg7SgTnLTDunoXQREYK4QiHSdc6XK46sno2H5AO0DUHz0wmBN7eqpF153q9GNBDBaUOgewgkM3319ADSfdHu7XmqDu8fpF1/HAudPfT0F3dy4pwxdN9YgjDo1wtFEYZFCTiEmV8XLEaQCg3U0sRzViCZGC17j4WMQvmBB8zUOQcji7BIEA1lMq86wWwiFuBJMALj2gZMQhkdm2P1oCrWy/I6a0Ksnz7j7H6137Vhs3YbIhBR2eD7DT9ONiYN6VGsezW+yPg9gAkNB8hQmjieffw1uRU0eAc3deqC9ZeCUaN2DcsByhw+0MuTBssj1g31wAeOC+PicZERxOfkkd9/UecQv+kMEbp1AMLFOcwGj/71etMscd4+u2LwBio4iCCDY3+4Gllf2P3xx3Q7bNoUJTu4vf7jPXeboPnxNwsPO9kqXvXxGBUV/wP7E+8drDoayJWwHVDQlaSjsC7gm7RKscOcQuIZthsIQXaO5zouRCum+F00ME+/1bUQURLhAMlz9sCInOJLr0BjSnn0bFVG02JAHNz2mgohCEvd1pHB09fhZ/9vPvJ4AhgPIh+vveD7Lfm2V0KGhT+C2ITyG/Yi7L94gX/bZvu3GsdNuQeN1KGyFiYFIeD/Yx1J4LlgAARUumtHE/Q+p2GIkS96TLFfuxceq6IH4DDWif8OxZ6Afa8Ug/CUdh1BBCoZkzEShjnWicMlQ91TmRZ8zlqmMyic8F3RBpycBt+6IJlo4G46c8kAqZOl7n0UP0GcREAERmAME5qQAxsGNgzw7f06gr5cYwYruIdQUciDC8MrRyxMHQwoRVxBGvgZhfBnGvQCCS3TgDI4M/mUgj89++EvXJo6qmYyeEP9Mtxf63lPrygARNCNxsOW+NoxK5ZETMSEKEycjjLiYVwnXI0xefHPn8Ee8c2JwBeHlqdUMhTNOJDhHaDxyHCGq59vqp78IKWr4pFh2DkK80+qFDanhqsT9ySq3bfL1H+FRnERQGPRw9+BBWHTJ4RoICmO1sLo1IER+wyG48DH4CY7nXmCpToO4jxSaGaaZz0IWIpz55BNCKDXiFF4T7yEjfq34nUfc1YrcWXZqhymIUdBNTKwV3UM5EQ7yDiauicfpbxG4FQLsg2hNOIGIg9yLjmHOF8IFme9cd3MzwSJ4fQpi6775lAsUXD/EfoFuw4nKkUL0b3RT435gfVAABe0Am8jjWc9JsMYwX/ZztFC5sgV/w1bHr4dSD/KgS28XXNsoWLA+tO5lwMWwA8qaTli5EgUwDyqBDot50xrVBGGA5Qn7MmZOQSEPAuIStFvun8iK9cN1m8oWBh+hpY+RIOlGR/dHChXM74a9ETpJ9g20WLnVJtkJ+C7o24LouuxX2b9eL5Ez+xOuM2bQFHo90G005M91yHnoy8mZ2wzQesnN66Opo67JLkJ45ro+/y1Z2eInhPeBdU4fpAUqqH80P//MupALfmcKFVNcA8b1anRljbrf8ziOgexDed+CaJIj3fMZdIPjGS1gQ+HqPXf9IwIiIAJzh8CcFMC4QJthwuv2f+YL0Cl5hAPdNbeegw9+52BBtxL3a8cEIUwcXLnR5HkE6eBAtPG5r1+zR054bONnp+FG+J5PGui6c8OEQZsLt+miw8kONZRDgy4u7Nrj89VwF1phRfnD2mqOuwyeYZgoUEs9dE78gnTDoVsJLWgUEphYDyYG2XDXGggm0cTJBi1EHDDpNlKzZ79PbBiufkRCRhSqMKz71zyeewZx4GZo5PLb1mHwPWCXsA9RLQbh/nZq7yOS3ojMOGG7NsWLeuNZzbWn+jd90Hq3wgJHwZaactbdr4N/Ypj4ZcG10KOHJZzPSRf3KqLQNpRY3xDe0JecAMagoeam1CWuzeekcQhy5Dh9FIHxEuBzyP6IVojQKkMLcxOsKHmYvNMaQSEkHxYuvnMzXoY0pyJltFSAtat0bWMo9Eyus0rybFNIYkjxaDvwNpD02Cx3zWbwCrdSJTRolp+/USkU5hFmQ0vJaGtjeSwn+wxHz36ELuCJngAsuwsW8cpSKKPbNN/z51d68I3L2DiaL66FSmoBGg3UTX8/1Ftd/4zIYRTCKARzn8moUEtFGjezZt9Sui5w7YxmSo5X0K9SuRUISpFMoweO4zNzit46CosekARrzejOSYErTOzvGWgpjeXcsOqa7VcYNIYCGNcg+/0Jb3iYgd5FQAREYA4QuAkpYPZRoHtGzd7DWBPwpq9joEYz0eIxstZcJI3BO66dpUYwTH4eBhAORow2lugKEx5HNxS6v3Q3XfXJEvO62URxxrWQkYEqKG+wDo0DWmLiwEbXjqGF+ZED6BLoaxeSqGWpJaZgl1RlG9eEcs1AA1wg6TZEi1Ee3GO47ixR0AsvyclSuPcPw/JzHy5OCOmGGLgPhUcmeU9SRp8IkAXvw/CtSHJy8q/ottSPCR8nrddMMHm9ZNfkdxS84NLkE8V41n44Xbci0xMKqly8zjTRE6H4ZfU21wng+aeViOHhab3i9Jh9DAUaBrOo3YcoePicW1kG9+gFrjgohaKGa0JLVmIzZQha3NzY+6FIv0IrUjkmzWzXLpBEZ928StgO2GdGzuP3nJSzHGHyduCCVWAxCr8f8Q4FkwuQdPFOaMusD19JE5s+ykBlENfhMpIf+zRukUHrP4WUZIllCoOSsB/ivlxUnDEaINvsaP13srwm9DtUkzh5P6gEo1BYDvfLqABG7wO6ZGYWMQT9CvdGiJaB0SwZdZJWKfb/k5nIl4pMbrrM5ysqgFF5xSBNdG0tvw0bQHNfxkiikoAeEV24d4nPX+QwfRQBERCBWU0g+Sg1q6vMgS6IZEjLi7tP+GRi2N8+WfV9rhGZcITHcJLCiQBDtS/90oOjDvwUoEqwF8r8O7ZYPdZd9WCx+WiThDBvTkg4mLkrEK4RFQw4UeB16eI2IgQ1TuaUpbcdi6vh6tEL4Sw7c2RIY4YOHm3RM/PyhfyJdeXkCN+Fky66PR36+5/a5Y/3+YbMCxEQhOGHb0aw5Fo5Hs+9yijMcc+00SY+vGyyRNdQXissT7JjRvtuEG6RXhcyDVO8fgytzIABUe0+D2FgArpS0n1x+D7wJEwSXQqLZ4SvOPmhaxQ1vBTM/fhEnvHD9SYCYyXAZ5PCFye4Cx+4A5Pcta5M4HNHS1LDweOIlnrM1z1RwcEodxQwLn+w19ckUshajbWja7/2hO/RFF2nSBe3EkQ/NIZcv3rVigYRvS5SQCp76I49yHWrfO49JW8HFHYYBbTlwkV38/O2Gs0sPJeKnWTtg23pmuPjl/TOMfjMUPN7/s1/dNdnBgNZcPdWXy+VNM/w9Pg73TS5n+EVCDzsi1wxlXBMKv+kwobuhzVwEef63miioF2KyJIM+1+KPR3DvpbPA61eLYi+yG0ywjFptD41mud4P/Pe+p5gew76lisUZMPEsaU47hnBUPkUiMNEl1IG8OD4xzVvGWkj3SjD4/QuAiIgArOdwJwUwHhTOdByfRK1rxRk+LqZxEkOBxgO7hxAGC2vcMlCH8S5AD4xGlc0T+7Ls/YbT1r3f2yz2rpDNxbA4ifTxYODLi1THFwpfPgCcAy8vsgZWvBo4pyFLot0M+xBZKsgfP5w/Sh4MvoZ12ZQS866+4bG0DbTdakQbnaJGlRO5Ki5ZMh2DqjBgnCE44c7Zgv2cxlEJDa6dPYj4hiFQnd9qoLrE4StqHY0LGfgjrjG98vpwSSNEy1a+hITF9zTbYj3ixr2QRzIslBQpBsRA5KMOfnEMZw8hmdzEgiLItw9O8EtcSLGdRlnXnnLOhAlki6n3GTVNf4UhPk88LmgRS5eB+bTiI273ZrIb0efSYYF0LsI3BQBPnecfBcsng9hY5steuAuf874HFIA44bstO5yPScb1iDaCCfj7O/Y3mlVoisi97HKQzCHrIg1nv0X2xYjo3Jd1rCQFRStCW7UdLemlcb7DggM3lZowcHnxL6UCgiGZQ/babI2Plqlr+0NIkeiPqwHo7HS6kXrO8vD8OdUosTQZ1Bpkl1a4n1aPvsiHBddJxbmVoC1SmVgQav+jdYEh+eM+g4O4xZ8cK/Ij8qzVihvGCykcvvGoUux7IxYyXf23WEfTQ4MatF4DKHf0U/GO1MUZOjU8X+I1ycxK16bFkMGg6I7dzRRiGR0RNaFFloKa2FqPlvtW6l4H6o+McSidxEQgTlIYLhnnEuVR8dPwckXjmONTjBpuO5wDzrBHlY+gaEwAOGHWuB8THaWYr+ayts3XnctE/FSKGEghxosAOd6sn5okxMtLcluA91QuOcX9/9iNEEOhrTcUYjimqSohpHncwLAcM7cf6YD65x4PoW4MHEtwXzsM0MrDaNmcWKWhoXYGbnZvnh//p2brxEOqVnlQEu3E7ovLfvCA1hjUg4//2CiQ7cXbj5as3ufT4a4Zw33qWG5K7beBpcmbtQ6LATSfdAXlTOoCFh6NEG8JyauY+Fi7jDaGid5OeXFvtCbri/pCQvRE89P+rcP/CPvN7+CKAX3HQhgcI1hpMRooiBbhyAiF7HPGTex9Q26UQdaJ8MgKMNCFtbnQbDn5JOT03CiFM1Pn0Vg3ATiQj8n4twfqiAhCExuWam793KdJdd58klnn+Cuiv7YY4UmJsW9ENZc8RIpCPd44sSa1t5chA5PFCaohLkCq/eVj/a7QiYUutjHUBFFhUm0HVAgpLXDXenYyPz6kQuO8yPLxbZVDK+CRQ/ehb4cW1xgwk+FB/s1Cn31B464AMBQ+GXrV7j3QTmCV8S4xtOVJcHF6arNvtS3nkho92Mtno8lEE4AzgVE33w5UXq5XqZgxHGF63SbT511y2UB7jGZ0gXRNzROOJ8c6hASntsC8Dgq6EZ13Uw490Z/unIJXJEhO0ivFwU88mMfx/VqtK4y8AeF4WAsReRJ9M3JUvPJ8+4yOtALRWJEMEt2rL4TAREQgdlMYE4KYO5Lj3UODL9bCheJcEC53o3mJJrrhhgamWHhuWkpJwF0CVn/h1/GRGDJ9U4f+o3C0oonH3FLEve94SB2o4GIE/wN33rWQwt3vNkITW8/LG7bbPVXvujC0FDm8Q8ckLu4d8u5S9Z0+pxvkBoVwBgemBHPKDwc+wGiMkIryTKUgQndkpY+9sA16wuoEW9DeGO6C86/Y5Nt/Zd/CKEuH2XBejJoYDl5aTx6yicNdVh/wjD7nGvRNXPdt5+xxQ/s8HVgYVl5jlvxaNUCRwp2XJuXmHh/FjLox0f7fF0L17Qte/whW/L5+7DofuQeOInnju3vYGZIN6TuBmzIivJFE9fObPrON7yM51+/6haCPGjVlzxyr239sz/0SXBo7SJfRor84L//3+0CNjGNcUKmJAITRYCCBtoKLSR0B0xMtJYvRVAK6FTsAjYjZlvsgzsylRi0SIcbhS977H5Yx4fdw5gP+6NOPP9UHuTPh4IlQWDiZuyDf9zv1/VNk9H+C7EB84onHrHN3/2WRzL0tZXIi/0D+5Z3/pv/yYU1CiUTYZXxlkkBBy/uhXj7XzzngoErxSBAsZ4Xdu5yCyCDa9TATS4GwXA5lF9rv/47thBWQx4TJvaXYV8Ufjfed7pz+hYVsL7RkuVrQFGmRI7Xyz9U2NTDgl6ydhWUTVWBVWuUk+gV0YiQ8Ay+wkQhiIL0rSbmE8M9pLWf7ux+/5Apg2ywc+fv6ZnwgIAykUFDFt233ceB612XkXe5+TLXIYf1vN7x+k0EREAEZiuBOSmAcTDmAmxaVihQMA1rbZPfag6sFLrOYe8sTk468aIgsvhz98DSs+Ka8+mC1nzqvEfmopY6TNQouvWJQgUsYQxEwcHoehOTTLj0VcAVZW3b7/oibApg5djjphLXzyoYub6LedHHnr727dh3i4vTuTlyVEvOMtDtZgnKnoHBlVY1uh6xnBTsuAA/MdElphYTGa79orCWAUHI189FDuQGnGu/9ju+1o0RBjlJLONmr7D8hesVwsO5DouCLPPjwE6B0Qf58ID4ewxaX64vWP/7z/imrLwP8+/agkABqxOOvMU/odGFByI2mr3sE1aG/KeAGiZ+pjvQ+m8+jTqtcTenXFhPK2/fYFV3bQ0PG3rH9NC1xEFggqGv9UEEbpkA2y8FhnZsBEzXWAo8DBIUTcXYbHjFE5+zArgU00WYyg1G+KTrWi7WjrH/Y5TOxERFCAW2Dlg26KrM/jG7eDhvboDMjco3/GdfQTvc6uXgWrQqtkm48SUm9pOcrHs7SBDmEo8d899QklAIoCUwCHYznAPD0q//1tPWgCh9DI7EDrZ0zXJXAiVO/GmloxWHrotZCHBxq4l7drG/akZf2gee7IMp2N5sogWLfWI9hKpSrMdbDoXTaIlc3V3x0hVfZ+d98likvdEyjn/P8YEsN3/v29YPPow6SWsbrXS0gqWlZdjVM+d9X8UqbD0Ss5Eb2IfZU1juqK33/pV9PRV2UStkeJzeRUAERGCuEJiTAhgnK8UrlvprLDeaAkLTibNW88lhn5ysePLztgzWokThjW4/dO078bNXXNiKCmC8Ht3xqElecO8dHoiCm4RygjBa4kDFidOqp7/gr9GO4/ftWKNU/c5HrnHuvtpsF9/52NeIcM+uxMRQ0nxdL1GrzD186vYf9YXhva0dnvdl7H3G9SfR0M/UjG74gy/7xI+bgXIewE046XqZmCjgNMFlhu5+rDmvEe4VlHgso5bRYjeZye8hCswQ/KwrXZhoSYhGdqRGfxUWxvN1vdSCSQq3OeDG00oiMNEE+KzSFZpuXwy2Ubv/iFVsXu+BOcJr8bktQchyvm4qoREOor22YGP5BuzLResat6hogQWLCpBowCC2+fXfeuaG2XI91rnfQmEFZVAgE+ACYxbCrj1h6BtM6tlOL2ODero6R7ezYJ9ByzSVUNxwma6S+Qsq0I9eazVnH9T02QmPHliw6No9/UatKARAD+iTcACVW3f+q+9BudRq9bg3HDOojLrZ5BYs1g3WIrp193V2QshMLhhSeVaDTeWpHLxVgYaWQPbFQ3zjBV780A4XtruwOfbJn7/q+7b14/mjJwndtikA1h886go0PjPJEl0q68CiA+VVEgEREAERQJRsQRgLAfr1D7gbD61YFEC4BisxMSzysR+/6EEbOOhwo8/QfSM8lkLZxue+ivVRGyI/cfi7tXQV6wbOvLwTGuxa1w5T23jmpZ128pe/GVfG1Nwe++Gv7AIW3nOtWHoWLGaY1Jx79R33/0+WKSdoJdA2F2PtBdeJJSbmQ+sgN1D1iQNmZ9ToUxCthXsKXWrGlKLYOHsIZntBFvwc/fsGGadDo04L5wlMNBjKezypAZrrk8+/5lYEBhBREoGJJkArGC0llxDZ8MTPXrUOrHu6lcTgDWznx7GhM9eA0aJEZcSxn/4aYe3PjitrWvhP/+p17/+4zipRUeWZevPEMJQ46+eP3naTXJrnoJ1SqKKii8oOWu6SJSp/vC9CVL6syF5V4bF0zaRb+dVTF1yAYL43lVA29mOMBJgs8d5wj0Gut/U1WckOGu27eH/FPpFWo0a4FibbaoSn09PgyscHAsawVo0rxa9HSyCDNyVLmVgfTPf5YMuDuLoQ51HoY7CnVlhZOeaMliiM1uw+iDGj3p+tZLd7tHP1vQiIgAjMRgLj7LFnAgro5jBA0NoVDhq3Wmq63nFyQuGpEoLTPIR/TkwU0Oo+PWwX3vzAWqFNroe7xqX3dmNd1f0jNdSYkFBrW7Xjdre4UIuYzF2NgzwHYm5ISu1t0kkMCsHQ6VzvcBaCUdPRkz6ZYHm5zq0WwSPcVQduH/OgKWcEwmjo6cQ68G+6UNKKxXMZ/Y/abA62dCWkpYoL8QuWLnTXmuLli91CN5QPuFM7mpjIpgPhkrkm4/xvsSE1I6nBhSaGiRTzpuvk6RfecHfIcrgzYnhPzML/pjaZQQLIxl0rI4cx2hqvwzVcZOUT1YQ9gWipG01b7PvbwO3q4vt7fDNrMuT2AbRAXi+5iw3cthqOnnA31QZYJvq6erwu1ztPv4nAeAiEggJdmLmdAy0+C7BxLwNOsH3fbGK/Qqs5rb5U0rC9s/0wzD37lOqdH/qzz3ZahPbOCKfXSxTkqKCphxWNgpEH+cE12ETpHp3oKsn+hO046PsiDRm2lSAiYfS74MqsO4Nb0JWQZb+EwDhUhLH+DAQStYSx/WdkcJ+0kYkWxFZY+a58+IlVv/WhW79oAWKetB4mbu3Bv505LFNM7BdoWWNof/Y5jCqZmNjHugWd/RD7ROYL1+1ooltosk3f/RhUndfg+qqCRQuuKROP6YBAw+BA9ChIdMOkmMTv2N+FUSjDa3u5+Afqw77Q+18Iegx/T9dSunUmJrqDuyWUtySi9KLCjGMCo0jSrZ+vxERFWy08RzprAgEMlU48RH+LgAiIwJwiMIsFsHjUwr5eBLzomZCbyjUCXYgClovgD1xwnGjd4GTmKgSV2n2Hg9DLGICvIjTw8Z++5GuhGLErMTF4x7wt6z2ynocQjh6AwZFrN+h3z8XsdDNKFl2Kg18drrnv//pH1zJyQuOCGgdW5Mf1YBchBHKjzhWPfw77dj1sRSgLB9RkqQda0DpEEDv589fgQvQeNo9u9klSOOmjVYxrTw793Y/hAvWZbfj2l7EW6raka0rC/DlIc1+six/sseM/eckH+iDkdVAGTsSu0g+gXmAAAEAASURBVCLW8rJv3MmBnusfEodpaoKvHj8LQQdCJu7HqicfdVfB8DrU4vZD8KFAxIlkLwRJCs3RRfcU4EaLEsYJWLg+7QSsAQwssvGPvmoLcL+vN7GlAE3GR3/wKyz+P+ERK32OoYlGeGv0PgkE2MJbzlTb3n/zN7bo4btt9Vcf94A3DLZxo8S2wk2baTE/BeGLLrNsO6HSgu28GVbpI//wc6NVd+NzX8M6yE3umpgsbwpFzQj6wwAYn6Ed0H0xWPuFNWvoG7sR1p4Wp2iiW3cP+he2STYVb+/4wPbZjcijfCUm9okUoHg8+wNG//vk3/2dLT10P4JsPOnBhOjmPVqiQqsR/XT12x/asR+9AMXPWQgosUA4RJ9BQZFh0qOKO/7tip14e2bfTwGOFkJGYl0G6xCjAEYFC57DelPIYX80AJ4se1bB8LDrYxN+S5YorLL+jDhZiUiy+VhrNyLhNPapdFNk2RKFW9LkmML6klfUjTQMlMLy8n7zndZUvtNSyDW2HmwjcsGQuwtfkY45A14RzJ+CIse4ZAJYB8bNBlgrO3GvY+jrlURABERgrhMYHglmGQkOkFykfvxHL1r1mx+6Rs8H0HHWk5pETuS5QJ0DM91WqCWm5pDjJ985CAXh2M+4hpSTeVqSavYe9Ih42XDN4zFMPJ6JoeIpXPkACa1qYqKmlaF7D/zND931sRhrtuhn7+XBBKoNGmBqSTvhn09tMyckvhdZfKLA/PiR6whY5hPPv2JXECo+C9Y0ugpy0uBabVSCGm9qKpkfB0xOoBjSOajg8IjLT2TJCVXNx/v9+LzKCggoyA/CKSMuhhpWTuIYqa0drjQeFh/vPjGjmyHdfcJy4p2Ru7oQge0k1s4x4Aejf1Gzz33MGHiEZWLYYwrBFDo5ubiISRS1tdSWkwmvwWN4b1j2T//d972eQ5MPXIeTQK6voHvQqIk8EFq/Hi6R+//vf4J14DW3QHJim1VcgOAlmT5RY93osujhmBHAgxvP9nViMolJzWjWylGvqR9EYBwE2G76uwNLN5/FM7/e6UF2GBzD3cZg+U5He2A75sSbbmb+vLLvQL/BABStCIjjfdNwM3dhyNs58qRlhIoY5pmNkPPeDmANY1/DCT4tMB74B22PCqMg8EcgzLEtsE2w7/zwf/xrDw0f9HfoH2HJpuKF4e3TMtD/oX2yrfL3K4h8yk2WT0DI4bYVntDXNh6D8gUuh0G/m+7H0pp+4c1dLoxyXzD2RSwnrWHe9nEehR26wnHdFF37nMGFy74NBvOOwc2OQuiB//BPdhwu5OzDKDjxfK7rbUawiVDp5vVGX8vIg4f+/iewer+N6If53qfQ+s/Skguvw75qEG56n/zbv3drIpVNFDAp9DFaKssT5ut1jP/D/qynrc29Dbqbrjp7KrK8/+UxKBv7dJaRY0008W/0qB4ApA115PpVlpnH8ro+5lBRx+OYIf7hs3MJln/2oRwbGK4/k88Ojqd1kMIyFYxA6Xnw+uyDea/Ih9EQuZ5uRMIxbXCT9LVsHXBvxLgRXHDEUfpDBERABOYcgWtn/LMEAUPnUpi48lE9Bohe39fJ7UHxcXys1fRBDgIDB2m6t9XsDVx1OAj5gBJ/52SDApprD/EdBy5G4Tr1wus+WA1Nynk8Et1U3KUGA5NrIhMKxkEzHBg5aHMPrjxEL2P4Xw6IrecRSRBCHgdRXpMCW2IKB+dQgOQaNV6T+6DlVZRCoCtGNRBsAwMwhRZajVApH3jD8o3IExfzeqAOPL6tGsEmkB8nO7nIjxEDg0lIsLaLa+C4+JoWq3RMstw1J4n1zScI4ED3PUYvoyBHF8MsaLM5yHO9A10YfeE7y4BrcpLGSSLvLWh7/cNJF7mcf+MDt975fUIlSJ3neeQ0TLDC76+pH7jzNwqldHFi3r75MwRCCpmcnHGCxbo5M9SN5WC9OXFSEoGUEEC7Z/vOYD8BxQmFCvYT3HeLASVoCYpBQUGFBJ9+WmS41QKDbHBbiUG0K/Y73l7RLkYktjHky76PE2tafNjOaE1mP8QN1hklj0ofWmp8o3YohXgdXi/aDtgH0wJPIcaFCOTNfLk+yo/FJJ/tkonvtJxxTehVWHd4btBbsldCPwc3Prfex/sAnsM6U5CkYoWCHKMBcg/BTLy7WzKuRSGQYwL7InJgX8l688XkFicIS7TgsYwuLDBvvIb6DJTT+wyWH2Xkfou0UF3u/8TzIxsfI3AO8/DAFrg2+6/zv303+A5/e3/F+qOvYD/H8crzxXlh4jWpwGpHhEMGG3HPhvBHkmCfj7InujXykEDBlwZ+ZzyoCvumMH9c1s+jAipUBPKcfuwzyb0eaRVl5uzjWDYXYHF+f+gqyvKjbHw2qBxLwzPGDZf5vEUjxzJPDkyN8FagBdXAK9kY58fpHxEQARGYYwSuna3PFgAcJCgMQYNng5x8TFDCgMIUDtpJc+UxHOWY8JkDWFYseRQrDnRcp8WBdmiWEZw59C8nChQYqGXs5QadcQEpmAhgU2ZoN/3keNmGTkz4wAEzlhsIFiyXC4c1DRAQ4wv4udkmUhBxC+W/QX5B3TJ94hEci3DycHekIMd6BQn5+L3AYM1y3iBPCnbcR4unc4LDQAAGTb0nTALcLWiQEyYcgP+jbkLBQfyJJweThFGtXPFjhs5J9gHHkH16PgWq4HpdjagfJmlBYt14KZSLgjk+8zAlEZgKAuxnQgUMJ+sUSNr4nPsrXiI+o2gbnJC7EEMlxA2eWbbJNO/DhtsBLU5UPATJG4HnE/S3+DYxz3hbCvqq+GnhG8uXmPAVLUW01pglWKqTHE9BwoUpnMP60jLj4eehsBkqDPtkvKLHjbgs+wz0kZmw/ASNecSvni/PH0pepwwIkSwfvvdyBW7jQ8fEj6eglY4+PGniedF8IwcF7DMxfowyVPs1IyckfByqa8L3Q0wi3zvDIeYoE/7nc8RXkMgv+ES+2ejP6SZOi2Mxgpws+8IDvuVJJEuvFy2fXBMYCNxSTo3goz9EQATmLIFRevVZxuMGg9S4ajvWPK97PEa6m0kYpDnwDfYFAyGzpCYyGPhvMg9eJ14WTsKoOebA6F/TzQe/uXXrmhmUH5L8n7BuLF9foGkdmk94lvE8w+OS5zL8bbwqLNcgtd/xQZ8ThOH6xg+/UZ43+n34qqN/CvOI129wIJyQEBcKy3LxPV7u0TPSLyIwyQTCtuNtO9jkPJg0xxsRH1L+TwuGP7NjeGij7QAWnbDf8Pzw21B+18syzONmMYzz+KG+jZUP+w+Wy8sZ9pmjFMLLf71KJJwXOd6ZgH0A2f/1a/oZY61L9DKpPDe8Fvtfdr7eAaOSwf9eHyoM6Qmw6unHfB/MXLhmMzgVXR2jieuJGVzpKix4tCh6/x09QJ9FQAREYI4SmBsC2LS/ueEMAQWNjvscCMMX64DPPnGaoPr4hCkDeU5QfsHkJshtIvIMyse1DNMkkb/fg2lSHhVDBEYhMKlth21gIvuNUepwK19PeN92k4Xx64LPrEi8z6xIkvrQKsa1wwsRebIcwaGSJQZ5aTh8Am6nF3z9oO8RliSvZOfqOxEQARGY7QQCp/vZXsuZUD/IYBy8uQ4qmrhGIuqnH/1Nn0VABERABEQg1QQomtE6xrVtdGVPlugCy/0w2xDgJamreLKT9J0IiIAIzBECU2ABi1t7po9dYxrcagxncGNjZC9GjOJCbq5f48DGhdyMlOVJ2sNpcK+mXxFCfTschqZf4WZ7iUL4s72eqp8IRAnguaebZy8CsPTC0pWJdbvBeIVIwFij3Hax1veBY2h7Rs/0QB7R86fDZ7Xd6XAXVAYRmLMEUi6AxZ0aAFyTxfCpo+WLroWtiHbFAcsDfODvYB3DAEINn3Fe8p8Piek9SiBsSWxb7gIV/VGfJ5dACH9yr6LcRWBaEUhLx7Ys2NOs6cRZuG4w8m+OR6ftw95njDJ58Z3d2O7kgG85Ql1romfHtKhM2HYliE2L26FCiMBcI5BSAcz7ObfiBD2e+r3gcaNgxdDstXsOYc+vc4HPPTn54mcL9rxBsIxpqUWcay1mWtaXti9EcKMg7+1rWhZy1hQq5Mx3zuHYj6kvmzW3VxW5CQKM+tqBbQz2/4d/dvdCVw5ivGJEWAbo4P5ujNrrgZOmWZ/kiirU0dsuGi7/VhIBERCBVBNIqQCWiZDHedissg5X7ejhhpLRrjDVVZ9G1+MggEGK4du5V46PDGHx8Fu4X40m1yEUvYdThs5BhNvGNgYD3PsJWuh8tC89J5P7fJBvHkKVM0R6N9h3wxVrOC7m5F5buYvAdCDAcP3c/40bUQdrwOKqCB/LoFD0LREQQClhTfN0KDt2BbUubF7eg7bLOUkuXf6nmZA4HTipDCIgApNLIKUCWHFRsS1YvNjOnT1rDdgUsw/aMnTVk1vDmZI7xi8ftHzfm5lSaJVzqghwvsBF8HV9cAMa7IPwlW2l2FCbQpjS5BKIYU+mqvnzrbCoyDr6eq2hv9tasTVBFm4KBWNORZVEYFYTQN9Dq9eo+yxOw8qzbXKDgKv9aLPoN3sghJWUllplRaWloy5KIiACIpBKAintdVYsX24PP/ywpcF94Vxnk13o67AedIlZ8CFXEgERuDkCnEhkDML9DVavE93N1lSUZdu332FLliy5uQx01C0RoJC7Y8cOW7d6jWGXOvuss9nO9bZbNtfCqC+7JbY6WQQmiwDnGZl4ne5tsxNdCGwFTcnGDbeh79xumZnYwFtJBERABFJIIKUWsEWLFtm9997rE8WjZ6ttT2eDDUCTtiwr3zJhCXPtsf+TQgK6lAjMEAJu9UJZ0WSsYaDHzmLSf6y9ybIWLrUvfulLtnL5ihlSk5ldTGrLy8rKbMumzbZuzRo7f/6yfdpaZ2UZmXhlWxZ6MmraZQ6b2fdZpZ8FBOLzCb7RXbsWlq9PWmutLsts87ottum2je62PQtqqiqIgAjMMAK+6dS/RkpFuTPgD14Et53TJ0/amSsX7WhTjWVgplKckWWF6TFLxwxT7jupuBO6xkwlMIAW0gnX3QO9zfZ6N6KN9XTYHXfcaX/xF39hq1evNrrHKaWGQDq2jsDiEfvk+FE713QFLsSZVpyWaUXpmerHUnMLdBURuDkCmFich8fNrq56+7izzkpXLrU/fu45e+CBB1yZcnOZ6CgREAERmDgCKZ+tFSBIwHN/9JwVFBXa97//ffvk7EU7195oK/LKrDyWbbkW45wmniSOhSRS+461LLgJ4cLkAQQZ0MqW1N6BkVcLGgTXTLZi/UJ1d5ud7mu2NghbX/n61+33vvENWwNLTHZ29sjT9NekElgNF8Svfu1r1tTSbL956WXbefKUnbR6W55XYhXoywLXat479WOTeiMmIfM0uKqF4xDXWvKlNJMIhJOIQQ+4UYt1mqc7Gu0KnIZXbbzNnvzys/b008/IbXsm3VKVVQRmGYGUC2Ac1TZu2uT7gjQ1NNp7H31oF6ur7XB3rxVAm5/XrwnLdHjGPLC5zzkQ/p7rWnRbpvS2EH8v/unCUoXmwmzLyVtuW1estD967o/s0UcfhfCl4BupvkFcC7Z1y1b7xte+btmZWfbiyy9Zw9Wr1ooIr+U97Rbrl+iV6nsyUdcb7v/cyInujy1QacYRwG3rhaW6Ad1jb0m5La+osK98+Sv29FNP2dq1a706FK5DZeOMq58KLAIiMGMJ+KiCDijl6j1uMtzS2mqHjxyxXR98YG+9tdMunjtvHa1tCKlNR6tgzj9jyc7QgnMg6uvvty6EGO7q7vJalCB6JV3bpuAxmaEUJ6fYMbi4lVVW2LY7ttsDDz5o995zr1VWViry4eTgvulc+/v6rL6hwY4fP26vv/GG7f7oI7t0/px1tnd6X6bJ3U2jnPoD43JWe0en93/8Mzc31/JyctX/Tf3dGVMJKERzvWZBYaEtXr7c7rnvPvv8I4/YqlWr4HZYit98BcaY8tTBIiACIjBRBKZMAAsr0N3dbecwWeHkpbGpybq7uuMDnUSwkFEq3zOxIXR9fb19hEnknj17/NLf/e53bcniJdbZ2ZnKouhaQwQC/UhGRswKCgps6dIlthqTiAqET1aaPgTYl7EfO4NtNhqbGq2np8f7MllPps89ulFJuE6Z6Y03IUjv2e2Kp/vvu9/46odiKnDHvlEu+n3qCVD8wtYuUChmw1JdXlZuK1eutDVaJzv1t0YlEAERcAKpd0FMAM91K2vXrPVXwk/6c4oItLS0WFYs086dOeMl+JM//o7Nx75HSiIgAqMTYF+2efNmf41+lH6ZCQQGsUfUxQsXfF3lE4gw+tWvfm0mFFtlFAEREAERmCEEplwAmyGc5lQxqcnvhVvVAPaZ4kJ0/q0kAiIgAnOFQG8v+78Bf/X29s6VaqueIiACIiACKSIgASxFoGfSZehqwzV6DCHA1YH9/X0zqfgqqwiIgAjcEoHQ1ZDrXsPPt5ShThYBERABERCBCAGEt1MSAREQAREQAREQAREQAREQARFIBQEJYKmgrGuIgAiIgAiIgAiIgAiIgAiIAAhIANNjIAIiIAIiIAIiIAIiIAIiIAIpIiABLEWgdRkREAEREAEREAEREAEREAERkACmZ0AEREAEREAEREAEREAEREAEUkRAAliKQOsyIiACIiACIiACIiACIiACIiABTM+ACIiACIiACIiACIiACIiACKSIgASwFIHWZURABERABERABERABERABERAApieAREQAREQAREQAREQAREQARFIEQEJYCkCrcuIgAiIgAiIgAiIgAiIgAiIgAQwPQMiIAIiIAIiIAIiIAIiIAIikCICEsBSBFqXEQEREAEREAEREAEREAEREAEJYHoGREAEREAEREAEREAEREAERCBFBCSApQi0LiMCIiACIiACIiACIiACIiACEsD0DIiACIiACIiACIiACIiACIhAighIAEsRaF1GBERABERABERABERABERABCSA6RkQAREQAREQAREQAREQAREQgRQRkACWItC6jAiIgAiIgAiIgAiIgAiIgAhIANMzIAIiIAIiIAIiIAIiIAIiIAIpIiABLEWgdRkREAEREAEREAEREAEREAERkACmZ0AEREAEREAEREAEREAEREAEUkRAAliKQOsyIiACIiACIiACIiACIiACIiABTM+ACIiACIiACIiACIiACIiACKSIgASwFIHWZURABERABERABERABERABERAApieAREQAREQAREQAREQAREQARFIEQEJYCkCrcuIgAiIgAiIgAiIgAiIgAiIgAQwPQMiIAIiIAIiIAIiIAIiIAIikCICEsBSBFqXEQEREAEREAEREAEREAEREAEJYHoGREAEREAEREAEREAEREAERCBFBCSApQi0LiMCIiACIiACIiACIiACIiACEsD0DIiACIiACIiACIiACIiACIhAighIAEsRaF1GBERABERABERABERABERABCSA6RkQAREQAREQAREQAREQAREQgRQRkACWItC6jAiIgAiIgAiIgAiIgAiIgAhIANMzIAIiIAIiIAIiIAIiIAIiIAIpIiABLEWgdRkREAEREAEREAEREAEREAERkACmZ0AEREAEREAEREAEREAEREAEUkRAAliKQOsyIiACIiACIiACIiACIiACIiABTM+ACIiACIiACIiACIiACIiACKSIgASwFIHWZURABERABERABERABERABERAApieAREQAREQAREQAREQAREQARFIEQEJYCkCPVMvk5aWZrFYbKYWX+UWAREQgTETiMUyLD09zdD92eDgmE/XCSIgAiIgAiJwXQISwK6LRz+SwMDAgECIgAiIwJwhMDAw6IIXhS8KYUoiIAIiIAIiMJEEZNqYSJqzKC9OPHp7e62hodFef/0NW7NmjbW1tc2iGqoqU0UgPT3d+vr6rK6uzk6fPmWXL1+2u+++x5YvX+7P3FSVS9cVgczMTIfw7rvv2IkTJ7zf4/OqJAIiIAIiIAITSUAC2ETSnEV5cc5BIayurtZeeOFXVlFRYd3dPbOohqrKVBHIyMiAoNVj1dXVdvjwYRfyDx06ZOvXb7D+/n5YHNLw7Mnva6ruz1y+Lp9Npg8+2GW1tbW2atUquCIG381lLqq7CIiACIjAxBKQADaxPGdFbpwAUxNcWFjg7ofvv/++/61J8ay4vVNeCT5fdGulRbWnp8cyMtLtk08+cWEsLy/PBbApL6QKMKcJtLS0WHFxsfF5zMzUMDmnHwZVXgREQAQmgYBGlkmAOtOzLCwstIceesiqqqrs0qVLskbM9Bs6zcqflZVtLS3NsKy+YPv37/fn69lnn7Xt27d7wBdZwKbZDZuTxUmz3Nxcmz+/0jZv3jInCajSIiACIiACk0dAAtjksZ2xOVPru23bdn/N2Eqo4NOaAC1gNTW1dvz4cevq6rJvfetb9swzz07rMqtwIiACIiACIiACIjARBLS6eCIoKg8REIExEejs7PRAHOFSL60vHBM+HSwCIiACIiACIjCDCUgAm8E3T0UXgZlKgME2otsbDAz0z9SqqNwiIAIiIAIiIAIiMCYCEsDGhEsHi4AIiIAIiIAIiIAIiIAIiMD4CUgAGz87nSkCIiACIiACIiACIiACIiACYyIgAWxMuHSwCIiACIiACIiACIiACIiACIyfgASw8bPTmSIgAiIgAiIgAiIgAiIgAiIwJgISwMaESweLgAiIgAiIgAiIgAiIgAiIwPgJSAAbPzudKQIiIAIiIAIiIAIiIAIiIAJjIiABbEy4dLAIiIAIiIAIiIAIiIAIiIAIjJ+ABLDxs9OZIiACIiACIiACIiACIiACIjAmAhLAxoRLB4uACIiACIiACIiACIiACIjA+AlIABs/O50pAiIgAiIgAiIgAiIgAiIgAmMiIAFsTLh0sAiIgAiIgAiIgAiIgAiIgAiMn4AEsPGz05kiIAIiIAIiIAIiIAIiIAIiMCYCEsDGhEsHi4AIiIAIiIAIiIAIiIAIiMD4CUgAGz87nSkCIiACIiACIiACIiACIiACYyIgAWxMuHSwCIiACIiACIiACIiACIiACIyfgASw8bPTmSIgAiIgAiIgAiIgAiIgAiIwJgISwMaESweLgAiIgAiIgAiIgAiIgAiIwPgJSAAbPzudKQIiIAIiIAIiIAIiIAIiIAJjIiABbEy4dLAIiIAIiIAIiIAIiIAIiIAIjJ+ABLDxs9OZIiACIiACIiACIiACIiACIjAmAhLAxoRLB4uACIiACIiACIiACIiACIjA+AlIABs/O50pAiIgAiIgAiIgAiIgAiIgAmMiIAFsTLh0sAiIgAiIgAiIgAiIgAiIgAiMn4AEsPGz05kiIAIiIAIiIAIiIAIiIAIiMCYCEsDGhEsHi4AIiIAIiIAIiIAIiIAIiMD4CUgAGz87nSkCIiACIiACIiACIiACIiACYyIgAWxMuHSwCIiACIiACIiACIiACIiACIyfgASw8bPTmSIgAiIgAiIgAiIgAiIgAiIwJgISwMaESweLgAiIgAiIgAiIgAiIgAiIwPgJSAAbPzudKQIiIAIiIAIiIAIiIAIiIAJjIiABbEy4dLAIiIAIiIAIiIAIiIAIiIAIjJ+ABLDxs9OZIiACIiACIiACIiACIiACIjAmAhLAxoRLB4uACIiACIiACIiACIiACIjA+AlIABs/O50pAiIgAiIgAiIgAiIgAiIgAmMiIAFsTLh0sAiIgAiIgAiIgAiIgAiIgAiMn4AEsPGz05kiIAIiIAIiIAIiIAIiIAIiMCYCEsDGhEsHi4AIiIAIiIAIiIAIiIAIiMD4CUgAGz87nSkCIiACIiACIiACIiACIiACYyIgAWxMuHSwCIiACIiACIiACIiACIiACIyfgASw8bPTmSIgAiIgAiIgAiIgAiIgAiIwJgISwMaESweLgAiIgAiIgAiIgAiIgAiIwPgJSAAbPzudKQIiME4CmZmZlpGRMXR2RkZs6LM+iIAIiIAIiIAIiMBsJiABbDbfXdVNBKYpgf7+fhsYGBgqXfTz0Jf6IAIiIAIiIAIiIAKzkIDUzrPwpqpKt07gypUrduHCBaupqbHOzk7r6+uLCwyDyDzt1i8wh3PIycm2pqYmO378mPX0dDvbd999x/kODPRbWlqaDRKz0jgJBM8oOWZlZVlubq4VFxfZunXrraKiYpx56jQREIHZQoBj2qHDh6yhocE6Ozqtu6cH/W//bKme6jEnCKRZeka6ZWdlW1FhoVVWVtqGDRssFps5Ys3MKemceKBUyakiQAtMS0uLvy5dumSffvqpnThxwq5cuWzd3T3W3x8KYFNVwtlzXXaQXV1ddvbsWa9Uenq6ffTRRy7wDkLyCgQwSWC3dscxOKWnYTDKtOzsbBfAtm693TZu3GgLFiyw8vIyKygonFGD1a3x0NkiMHcJcHxr72i3psYmq4fQdeLkCdu9Z7fV1dS6ANbT1W39VH7NXUSq+YwiECgZ07GMIQsK3aLiYluwcKHddccdtnr1aispLrHS0lJXPk7nanl7w6RHs53pfJdUtkknUF9fb2+9tdNee+01++CDD+zixYvW29vrDTg/P98tCRQUlCaGALucHmhd+eLkgFYaWmuUJooAu/ZBKA+6rb293V8UbBcuXGQPPPCAfeELX8D7/bZ06bKJuqDyEQERmKYE6uvrbO/evfbqa7+xd999106eOml9ELiy0tItJz1mmYNpEr6m6b1TsUYnMIBhrtcGrAvPci/GuzwoGzfA0+Oxx75gX/rSl2zLli2Wk5MzegZT/IsEsCm+Abr81BOg0PXKKy/bnj173OWQwSGWLFliy5Ytc2sBLQj8jhNYpYkjEAq0FMakA5o4rsM5DcK9s99daOnyefLkSauurobQ22vz5pXb1q1b7ZlnnrG7774HFrFyP433Qc/5MEF9EoGZTIAKrqNHj9rPf/G8vb/rA6s+X23t5y9ZbkeXLckqtOJYtuUiAFIGxjaNbjP5Ts+9stNqxNfA4IC19fdaQ0+XXe7rsJ7CPCtdvcxWrlhpD913n33zm9+0RYsWT0tAckGclrdFhUoFAVoHTpw4bv/wD//JXnzxRXfHovn67rvvdivBpk2bXACjhUYCQiruiK4xcQQ4NGFShYkVn9+2tjbbv3+/7dq1yy28Bw8etCNHjlhra6tbIR9//AnXFEr4mrg7oJxEYCoJcMw6fOSw/fIXv7Tv/+3fWjVc65dnF9gGCF7ryhfYmsxCK4L1i8IXVGBTWVRdWwTGTSAd41w3hLCG/h473tNqx7qb7eSBz+zQp/vt6P4DVlZWZp9/9FFbNg29PWQBG/dt14kzncD7779vf/VX/4u99957voDze9/7nm3evBnWgXk+GaXlayYt6Jzp90PlnzwCFMK47o4vLsB/++237dVXX/W1jnfddZd997vfsyeeeMIKsZhZSQREYGYTYHvft2+f/eMP/tn++Z/+0XKaO21zrMjuy6+0Ali8YnA9pPshJ6+yfM3se63S0xI2aP149UDp0A13xOa+HtvZWWNH0zqtCN4df/q979qf/ot/gSBUldPKw0MWMD29c44ANYPvvPOO/eAHP3B/+BUrVtjjjz9uDz30EEzVi9zdkK4bDJXOl5IIzHQCtGwVFBT4wmQqFbjejgoGWsAYbIZW4Ly8XHvwwYcQsKN4pldX5ReBOUuAYxbdjf/5hz+w3/z6Jeura7CtufPtroIKWxrLs3T0BVw3049xMPhvzqJSxWcRgRjUCdkIPFWSnmnlGVnWnT5osfY6233+vP3i+ecthmUk3/72H9jixdPHHVEC2Cx6AFWVmyPAaId///d/Zy+88IJPSr/2ta/ZU0895dp/Bt6glUBJBGYTASod+GzzxcRBiBYvfv+Tn/zEXn/9dbcCMxjKo48+NpuqrrqIwJwicPnyZXsH23r8+Mc/ttaLl+yBooX2QG6FLYrlWhdctSB1KYnArCOAhSJYD4ZxDjWjVfc2WHwL82PWnWH26d5PrKa21jZtGvZwmg4AJIBNh7ugMqSMQFtbu7tmMMw8LQLf+c537P7777eSkpL4PlTDmwOnrFC6kAikmADXP1LYouWXn+mWSFdcRkmUAJbim6HLicAEEjh46KC98hIsX9jfa0tWqX0ut9JKYRHoxeRUSQTmAgE+6QNpg1aBIDOP51RZd3unnWxrtTcR6Zr7hdHtfjokxdWeDndBZUgZgerqC+5+yA0oly1bisnmo7Z8+XL3C6Y1gC8lEZjtBLixOFNVVZXt2LEDrocPWn19g33yyV47D5cNtYPZ/gSofrOVwOGjR2w39lUs702z9XmltgCWr0ys9+IaGSURmCsE+LxznePyzHxbm1diBRjy3nvrHdu3f9+0QSABbNrcChUkFQROnz5tO3e+6UE2Nmy4zcPNcy1MOCFNRRl0DRGYagLR6IjcmPnhhx/G+rASO3funFvCauGuoSQCIjBzCHDtF90Pj2FN56XLV2z5QJYtysxDYIJgvdfMqYlKKgITQyC0hC1C9M/l/Zl2CK6IBw4dmjbzPQlgE3OflcsMIEAh67PPPrMDBw7YqlWrbNu2bca9qBgxSkkE5iIBPvsMusH2sG7dWl//+Oqrr/h+YXORh+osAjOVAAPqvPXWW3YCATjysApmNcLN0/qlUBsz9Y6q3LdKgM/+AKSwhZm5th7tYXCw3z47ecK3Y+HWLFOdJIBN9R3Q9VNCgNrBmpoa1/A3NDRisrnO1q9f78IXf1MSgblIgK6G3GS8qKjIaBHOz8/3Dcnr6mQBm4vPg+o8cwl0dHS4e1U9rF8VWXlWmZljBdjni1YAOR/O3Puqko+fQPDsDyIyYpYtgTW4wGJWX1fnSngqLKY6SQCb6jug66eEQOie0djYiPDbWb7uiyHnmWQBS8kt0EWmKYFQAUErGBcoX7lyxdrb26dpaVUsERCBZAR6+3qtFoqTtLZOq0zP9nVf8u1IRkrfzSUCFMKysPVCIcLTl2bn2kB3j9HFnlsNTXWSADbVd0DXTwkBClk0OXd2drjbISMgUtuvJAJznUAYcINWsJycHKMmvRuDlJIIiMDMIUBFSmtLq/V3IcJpWobv9yXb18y5fyrpZBJIQ3tIt1xahHv6rKW1ZVqsA5MANpn3XHlPGwKcZHIPpDDYBjej5YspnIBOm8KqICIwBQQyM2PujsiJXH9/ECVxCoqhS4qACIyDwCAWu3BLicG+fothsqkkAiIQEOBaMCojYtwhDONbT0831oZNvX1YrVRP6JwhQCvYAFdkIjEKHF9KIiACYXtId+twGCFRXERABGYOAQ84MIDg21A2YnTjVFNJBEQgQsAFHrQPzgXxNuVJGzFP+S1QAVJFIGrpkvCVKuq6zkwkMB0Gp5nITWUWgSklMA0mlVNaf108IJDYgUvZPOLJSMQz4scU/iEBLIWwdampJRAVuqLC2NSWSlcXgelHQOP19LsnKpEI3JDAdDF7YYbrsmAygRBldPvcZJR1lOt6fzYXOrUhyWIy4N7w6dMBYyQgAWyMwHS4CIiACIiACIiACIhAcgL9vX02gDXXg/0J62woIKSnWQzBftKx5nRCE/IewF6fA7w21sEFiRJgmmUg8nF6Zqal4dqzNqGq/T1gTsTYWoSJtWdKz4DIiz1PlaYXgQluAdOrciqNCEwlAW7yHL7GUg5a5/hiMARZ6sZCbmKOpaU0E4M1712YeB8YwCXwHQ+HtfDXiXnn9cLAMGGOwbpFrl1MmMiEB+hdBERABKYJgUH2U+g/S9eusMKlCy27pMiFAQYIYUqPZVgfojTW7j1o7VfqJqzUvG5GVhauucgKliyw/PnzhvKmMNZ07JS1Xrjs10Zn6mUcOmC6fqCsCGyMajmAuQAFSf8CfNMQZCU9KzYsaOH3dNS/HPubFq9caoULqwA7Pb7OfdAuvb/X6g8etbS4YDZdqzzXyiUBbK7dcdU3ZQQoQIWT9pu9aOgmyffwdbPn6riJIcBALQzFHhV+eS8oIE3mPeHzwkido113YmqnXERABERgcggMog9LQ3ThhQ/cZau//EUrWbnMrU+BAGGWmZdrnfWN9uH/8Nd24c33ra8TURuh3GK/eiuJlq+sgnyruH2jrXzyUVv04J2eHS1evZ1ddvD/+YGdfvF1CH31kL9wPViEpn2K6/kyC/NHWq/wPZmRtQu8qAitfpmo/5JH7rXVz37RKrZsGFG9Xf/631rtp4ctI1Qq3iLvEZnrj3ETkAA2bnQ6UQSSE+BEnZPpOuy4fuHCBTt37pz/HbWoJDuTgxAtIHl5ebZgwQJbu3atcb8yfs/wwrSC3OpAley60e+YP8uZaAEKhYOZaIkZrU6sCzdjjNaJdW9pabFXXnnFTp8+7ftiUSgqLy+3bdu22YoVK6y0tDQYADEITlTidWtqauzDDz904Y/PAZnzOVizZo1fPzs7e0RZJ+raykcEREAEJoIAu8SMjJiVr19lVXdugcXr2ilm7rwyCEq3Wev5S7DKfAbpARapW7XMsCvG2JWRnWlZRfmWXVw4VB0KJrwm3y2tPhD4hn6dvh9o+coqKrAt//m3bT5YUsikayEFSlrzzr6y0y7v+tRdK0MhlvXMKSu5tlJgozT9CFzbOqZfGVUiEZhRBDjhZ4dYX19v+/bts/fff98tG4nuZdFK8XhOwnkMN8OtqqryiffKlStt6dKlVllZ6UJRuI9Z9NyJ+sxyM39afxobG13oY5kooFAoZBmy4OYwkxLrREGmvb3dGhoasBF3p3NmnSjQzJ8/3995HF+sL4XdXbt2+YsCcFdXly1btsxKSkr8eApjzHMiE6/L5+XVV1/1cvIZoHB4++23+4bh3CQ5NzdXAthEQldeIiACE0aA671iuTlWuGShux8mE754sQys/arceptdPX7G6vYfgXsd3AdvVQAbqgUEDfTj0eT9ehZcyn3N2cjfosdNt8+0GnLdVtWO292yFS1f08mz1nDomF18d3dQL0q+qHcsN9tdMaPH+ue4C+g13+uLKSUgAWxK8evis5EAJ9MUqGhJOXXqlFs1OKmnVelGiYMFz+WLg9KOHTvsiSeesKefftotL5MlgIUCCIWNs2fP2htvvGFXrlxx4YTfrYNv+VNPPeWWGJaL5ZsJifWiIHPx4kXbuXOnW7UoeLFOixYtsmeffdYWL17sghfrw+MpnNXW1sIiVWtNTU04v9fvXWtrqwuoPGaiEvMiSz4zzc3NtmfPHlhO63G9GIT2PhfIt2z5/9l7r+g8ruze8xA5ESRAgCAYAeYskaJISpRIKsdudVJPt9t2d0+7152xPb5rrpcfZvnlzvhhludhZt1Z9sOdtmfs6w7uoA7KmUoURZFiEHPOIAKRASKT8//twgELHz6ApASSCGd3F6q+qlP7nLOLqnP+tff+n5Vu3rx5fW0crrqDnmCBYIFggeGywBUt3p5TUGTeGjwxg4redVOWzXcFe8pURO9SPGDDJYxLScYmQvVGy5iVaAoITeJC6GF6loAWgJJh2IZixiRISHrMUxYvz/Fo7XtiP8ba7wDAxtoTDf0ZMRZgIo+nBADAmEAoG5JkfEjaZibgn332menAA7JmzRrzjKH3VrxQPVgBfGzfvt3AI14XvEdsGzduNBCIl+5W1J/UCF/yJMAG0IpHb9euXWZPvHn0B1BJn/A2xr2T2BcvIAL4QvjN8+ParRJs6v+N8OwRX+dosfetsk3QGywQLDCyLXCls9tlFUxypWtXupypUwZtLONM5uRJ5iXLKSl0bdV1ymVSXtZQDIV6N+Ipg1kRkGG5T34g5SOW3vHpudk3PS7htTPmRN3Psb1nvV56IFwD4QXkFRCI4NWbkHqNnIki3AMoIg/LWB8jLGTeqxR53gCYgKh4zpapVn9NL4RP0m0shXzcU3na1H253XVltdl9lL8mVCByjo5O19Ua5SpjuyvdV1zdwWMuLSPTZRZOouGml7KNp87ys7evsp/66jk9oj5SVqQetDcu2Jb2Kxyy757e67Q3VeUnqO0RCNSOtquvtD+ZPbkH+1ld9HnYPJ/xRo+e4wDARs+zCi0dZRZgoAEAMLlnIu+BC+FlbHiSvAeElzhADc8MoI3fXGvVC5YwxsLCQjdx4kQ3ffr06IUfHyR67UJ5NsTvey/1u8cGGX8htveeO8L0KioUn3+ptu8q3jDah/hyyfT4NiTWz32U9xu/k4m/P37N3+OvJer219knim8rHkj6UFtbZxvl8Iphb4RyHlzxnPCOkQOGzbHHrFmzHCAYL2ayetAxWPu4hgzVTq5zvweCqRqkejRI8tvrpUyQYIFggWCBEWkBDT3ZRQWW35U9peC6TcyZNtUVLJonIo5O19HQKACSfDrKpJ53YHpOloBFiZFtwPgHaEGY7HfUN0U080RnAC6uJxorAHRp8iRlqc0ZIrrgmDBFQIFGUmEKgFUE+rqVd9XZ1OI6WwR4ABfST5v0Ujcwkab70ZGq6Are84zCUMK31dYbSAFwQkBigEXvdsoAVABQHQ1Nrkt6jahEfQWcZOVPdFlTCl3utCLpzevfGymHVj9vZqkrXLbApaalu47GJgOnLecqFYaY7TIEhCNAC4DqcZerawWUUpQbp3YIqHJ/32gZawt9pE/qnNV5VWAXtsXc8lkuLck9HfWNlpOGLXhO1nY9e7OnwlH5DeDy163PApadiiahz4BIxMCnHY2vP8n/xY8vG4TeBgvcFgt4zxWTebwvk/QyZIKNh8YDBCb95AIBDABoTMQBPh9++KFbvny527RpU/TiH6TFvOjiG8X8xN/XP8itdh9AhHp9uGSaBrluvYT5zXmuo38w4ZovEy9nA45e0OwHk8R2x8v5++L6uX4jeofqE9d8e72+3NxcszNgl+eDF4q8L8IAuebbEm8fx4lt8/335a9n/0R94XewQLBAsMCIt0DvhD09N8fllE51k+aXDfSkJOkEIG3avXe7lvOVxozIZH2AAA40/mTk5Ri9etlTmyzEMVfgDW8bSKe9rlG5ZIdc3ZFTAkzJQ/D66dU9Nm5oXM0pm+lK77/Hld670k2eN1tgLCLrgOwCQNSjj2+tAi91orG/+PEuV7Vjn7tcWW1gB7ZHQFzWpGxXKNKR6Q/ea23skd4JKamutaLKHf/dGy53+lQ357EHXdHShS5X9knLzTJgByPjpf2H3bl3Ppbez80GUPSnCagVr17hpixfKL3lbpLaFRfASnbxFFf+lUdcnqj+ATJn397qKj/dYwAye2qhyxdgAvhgj26BvMh7l+6m3r3EFd+zwuXPnWWACaBJP/FCVmlpgPPvbDVvnV+jrUcfLvGmLfqjr7pJZbNUtlvjnD5WakwE1J188W136fMjApaKipEXM6uwwM18+H491xWucEG57p0s8pMcqx+wdbnqkqs7elK2/MxV7/zcNZw6b4A2ALD4Ew7HwQLBAsNugQgsXDVSjYceesi8LHjCAGBsgC68NL/97W8tVI4JO5N4PGIN+kIYeXBqDbgBhvx1QAIAiRwiiCYIt2toaDDPDfcTcgdzHyACTxrEEoAKH+4GAOEYFr6LFy9a/hPtQTyIoG1nzxLGMME8QeiDkMNfJ68KPVHuVJW1o6WlxfpFW6mzqKjI+s4xQp0enHAvIJQ+UBf1o5u+UR4CEPTRBgAqxwiAqLi42DxU9BPxBBnssRl9YkM/4ttMHXjB8Gyx0Sd00BZIN+gTbUcPnjDqoc9xIIUuylGGnL/z589b+6grCj29atfj/acO6uYe339rWPgTLBAsECwwyixgng+NP0z6J2vSjackLky8meTjAYpLdnGhm7bubnduyzZ5QgQ89B4111FvIcADIIe1vUrXr3JzHn/ATVm6wEAMlPNecqYWWUhj4ZL5ts4XXqOhhHA6PFKl9612MzevdzM2rHF500sEHiaZByvxXkBT3owSV7hwnisRMDrxhzcNkHW1RuGBrD8GICwRsIHdsUfU+hpkzGOWP2eGMRlOFijNVTvxPHkBgGYXTTZgU7R8UaT38Akbn/JmlhiImSp9tDWZFMjWMB62X6p3dQeO2X2AtZLVy12+gKWBGrXjigDh+S3bxTh5xE2Qh69g/hz1+z7zwF29qo+iAk4APzxmADA8igbABH6NVEWetpkPrnWF5q1sU98IwdRSLQJglZ/s1r1EkWS5GQ+s0TN60E3trZ+24fGLC6GpuaXFjrZPXbXMnXnzQ1fz+WEBs5rIg6n2jidJ8slhPHU/9DVY4PZZwE+2ASJLly518+fPtwm/BztMzAEfhP8xkQcQeZBEK5ngc45yAC4PBMhPApBA+MEGqAB4UB4wAXsfeU543srKygxcxMPpADkAnx07drhTp04ZbT5hd3EB0H366afu6NGjRlpx//33G6BDPyAEggqA0cGDB92xY8eMfh8CC4AIbQXcUPeKFStsDxgEfHIvdgHokJd16NAh6z/94RptxxPl7UIboPVHN/1HL0yREFWwx7a0CaBE3YRvHjlyxHRij7hgN/LCsDf30ScIOQBGHsyih+dDGz2g8m32e2wD8MR7eeDAAes77ceG3Mfz8uCT/sNqCRDGLl5HvF3hOFggWCBYYLRYAHAFCClasdgAkl56BkB8+1svVstL1WBeIrw7XghTmyLQxKQ8Re/COPiiDN6lzIlZBpQWPv+0m7Vpnb91wB7QdT3gFd1EBIY+Sqr8PK1TVvbYRt1XPEBf/ARhhRNnlNpWJK9UV7M+LCoksfbA0ciLpLErTYAwt6RY3rB853rxEotBFywoi6vqdwxAyistsW3yvDkWjog3q11hfVDpA/py5OkaTAC0bBkK9cNDqMHEFqEukDcOsBeXHLWNcMrLVaQVTIi8h/ECOi5cPNe8Vd0aNwHVCCARsMR6blD7x+n9CU+kTsAawG+uPHILv/3MwJBJ0xT9wcsJWGUDTGfowyYeTkDkeJQAwMbjUw99vqMWADgwqQdcMalnwo94ogcm6QAhKMlZNDKlNzmZ63i3AFKADIR7AT0vvfSSec0AE0z6OU89CGUBWUz2oV1nPavnn3/eKM5pBx4cAMdvfvMbAxCcAzwQfoiwB2D8/ve/NyBE+wjHA0QAnND9/vvvu5/+9KcGANHl28Ae8eUAHQAdGBVheARgRXWlWd9gKgQI4rGi3YRqsg4WtjotdkYAoPecoduDLcI5n3vuOffMM8+YZxGAia1effVVC9/EHtgv3icAGet98QwAXn6j3O9+9zv3wQcfmGeM9pWXl7vvfOc7bsOGDXaOugGQlH377bdtA8xRFruz+b5jd/pP39k2b95sunxII/YOEiwQLBAsMBotEE3EnSsWOClSThIT/LhUKdSsatcBt/xH31aY35z4JQGBfE3uZ7v8WfrIJpAGmDPPjd6vaMmeMtkt/NZT8q7c2+++L/RDYyngEM9bscDirI3rrwu+EuvBgzXnsQccoBLPjQcq6O07TrzpBn7DGrnix99RGGKDecII80sakplEV6rGFMIN8UoZ8QXAKEEYgyLQeMQIORIu289MgUeeD3lalgumeUfejGmuQCDZ59v5+/B+Xdj6mWs6dc48eGv++sduujyJA/LV/A1J9uTczfvqI+b9ajxxxl2uqZO3rqu3L0luGIOnAgAbgw81dGnkW4DJud88UGLPixJQgmeH47j48pxjIo+HB+ADZTwL+BKeB3HDUMLi0AAkgAuem3Xr1pm3CFCDZ8kTbwD6AFbUSVk8UG366ocADgEa3msFY+LLL79sbWjW18HrCW0GdNAHwBzheejiHKAJ8FVXF30Ru3LlkC1oTX142HwbEuuorq5xr7zyigHPP/mTP7EFjAFd586dM1p3Xz5DIRG+T/TZ14PnEK8V13gOAE4IUNgQgC2AjXuwB0K4J961t956y3300UfyyjXY+ev94Xmhg3aS1xcA2PUsFq4HCwQLjEgLMD7oPZ45Od+8IITrJUrDybOOnJ/SDastZM5yt3oLQXgxeZEWt5f35eIne9xVTcDxqgAk8maXWn5W4aK5WoA4eufGdUNe0dHUbPVDLJGhHLShWPVs/BQIY52yopVLBoAvPD/kKDUpLwmyDTx0k+XByov1CVBEqONEH+Jn3xcjYIf+pKLzkG20VNRofFHOmEAngCue90T4H6GUJfcsd7ViMmyUzcgfIzRxmvLTuOaFegj7qz980jUcO2W66whdlC3Rk7QdmkoAEPGwNZ2pcPUnTrt8hXYC3rxkiPgD71lLZY3l1U1InaD8tRJbVDuRHREAdnHbLoG6jij/jTBOeewS5XJNrWsXEUlPe6fpylZYorEm9hbk306J+tdw7LQ79fp7rk0fNFNTFYo6TiQAsHHyoEM3R5YFPLhi7495cQKqfA5X4osUTxVgBWAEECAckXwxAIAHcawfxeQeQMOGDq4xyffHhCi+8MILFsZXVlbWFw5XWlpqoILy6GdP29gTiseGx4eQQLw/nCdU8mc/+5nR1hNCCGkI9XIf7aQtlAMMsSE1NZfcG2+8YUATnffcc4+V4x5+Q33vXL0AWpqBHoAigr4chVygk774PnHMdujQYQOKTzzxhIUj0g48fvkaWGgDni72vk/ow6aAO7xf1Ms1hPOIX4+L/gIYqRvhXgAvYAqPHeCLstxPvZTlmHbRb9pK3cjFi5Xmbbzvvvvc4sWL7Vz4EywQLBAsMNoswKSecDlIHZKBry59tLusCT006DV7DtqkPw7A6C+T/ikrFhkRRbfelXhzYBok9G3Ww/eJtS/K7Y3bBi9NtRZxrhcAgeQht7hIwKrU5c+Z2S/PKn6PXsb2PgbMAMLQYWyAOs+7Gq/WWeWjnX/3Y+U31bmJ0rXke8/1A2DoIy8NwAl4MBa/QXCXrxuwUi+AhBewR/2aNG+Wm75ulXmXfBm/LxDYLFmzwp1/b5u78P525dXNdPf/5/+5HwBzApF4qE69+q479tvXzVMGcAQcxkGd1+n3XMOz1nyuwmydI5bF1MkxACa2xcIlC4zQpKHnlEtNSbe+E0aZmMtFzlbN7gNme5gYc0T80U9kkzZ9RK0QSKtVflpX82Xlpi1T3tfSiCCkdxzlHnLLyB278NEOgdSqpHl4/XSPoR8BgI2hhxm6MjosAMiAPIIwOU/IwOQczxR5REzqt21TYrIGIwCNn7hDBAE9OveSZ0V4HR6YLgYSlcP7xeSffKMlS5ZYrhf34t0hTBEPDr8BEXiqDh8+bB40wARA5S/+4i+sfnQSVsdCxICKboU0QErhF4MGqJHHBPjC80ZYYJO+RBLeR5sBLxBWrF692sgz8Cbt27fPdHsAAyB599137boHYEM9PUIxyRsjd462kAPGGml4xQCtXi+eOjx0HlD94Ac/sJBH7EqfTp8+09enacoDYCFmACUex4ULFxqwoh0Ap8HEgyw8dbt377b8N8piW4AXYZOPP/64AVtsTl4Y/T+tEErfTuyEdw4bQjDizw9WZzgfLBAsECwwoiygdyT5OzklIqBYc5fLIP8pJhbydvCou3ypzijZa/cdFQvfMgv/ixXTBHyua1A+EDGHhCCmXI2iFAA55F4lTv7baxtsYn/shVddtUAARBHkoE1ZttDd89d/NiDMsa8u6efzGiyFnc2tom5v1nteHydFi04dFR/udHv/8d9c85kL5knq1BjZXrep7/b4AWAGpsTe73XxS9eOZR/ILU6//oE7+N9eMKp9qOkz5QFr+6PnDHTALBgHTYRH5pfNMGDXcqHKQv8Asf1FQFJ2xw7NZyrU/0wLL8wqmNy/WOIvNRZw26T+wbo4a9N6A5K+WGa+iLIEpk7rOeKBTMnNMFbLiSIS6RP1CXKU5rMXXJO2aSJHKb5rCXkOfUU4aNQ1yFUO/dtvXf2Rk2bfE394w5U/9ZC793/5Hy23zN+QoXohcMHL9mXCOL2+0bQPAGw0Pa3Q1lFtASbuxGkDBt588023d+/w+Z/6AABAAElEQVReAyuAETYAGJNyPCqQaACMAAKAKoAaQMGTV+B9AcDgBUOYwFMOYPToo48aKQXEG4ACJvkQVJBfxTFlAWvUwbny8nLb1q9fb8AFALV161bT6/8QFkm4ImU9cPz888/N8wUYQugfG3WRi3XXXXeZlwuPHu36+OOPDQh2d0dhfWfPnjPwBkDD+5QMhAD+8HoRqnj33XdbyB4glDoBeYCqkydP9d0LsAHozJ8/3wAVIBC70X7sGhfqBPyhG/vGPWDxcoMd45nDnghAFbuRrwbDJf2nfTxT7AEwpJ2aYlh5+koIIxsALPq3YZfCn2CBYIFggRFvAT5R9ShSIkdkE9PW3t2PoIHGA3IqP92ryXqF67rc5qr3HFCe0D0D+gX7Yf7M6UZGQahatNDyVcsngtjCU6L7G9uUK3bhwx2iTd9vIXiApyhvqVnelo22Fhn5TImC90cDhQPYXPhgu+jvKywMMUtEExCBQK1eML/cPDJ49ejXRDEAJhNGcr/OVrLrnANs1Ql8XJQNKnfstXc8DIOAxcrtu+UNnG4eO3R5AQRB3sF40KMxAwAHGBooAr/68OrZC7GZoUubYwwszRlrswAY3jLCHCH7iHst8SSSA0aIZKrys/KmTzMbxLUBkBpOnJXdz9gzhdEQKvx4HyifynhIWGrv+mGQr0Tsk/lJw0QzRPBB/fGQyHi9Y/U4ALCx+mRDv0acBQBICEx+eG+YhPOiBWT58Diucw7wheD5mahYdIgzmNx7oAJowbPSrhc03i90QIpx7733uh//+MeWA4VnCF0AJ8Ld8BYx4ec895DzBCghZI/6CLPDuwYYSQRDtJ3wR4AMe/QCFvHs0Hb9NEEPgOZHP/qR6SKUEYE4hHvJMyOvivYi5KThzQNYUgd6vfgyeP7Il3rwwQeNgp+2oRdPE96ukwI2vixAlhBLQB/laA/9oV/e/l4/1zkPgQd2ReL1+3LJ9gA97scW6OA3nk3WaWPzYZp4xGBo9IDWtxOdgDI25EbrtcLhT7BAsECwwJ22AK9wvcdhHyS0LM6QR9PwgDVoba4uATFAVptIFtrkDWMSH/f6UBYK+CJ5Usi9aj5/kYQlCz3M1CLJiXldnfJc1e5X5IfGEerkOrlIgBHCEicKEOBpGyDKj6LeptNnFYZ3weqYsnyxQOG9Cr2bK7KJeW7GxrUW7pehMbdvUBugiM+okt4xLMllO0X/K7VuWNOZ87bIc9RnhTtqTGpUnln90VMi9NgotHJNA968LAtv1PivtuJlS94O+iIGQsZMrTk2YcJA4o1rWnuPNLYyzhC+2HLuouxc6aDHj3sYswVEWbsL4DtF+WeJLIwAvSqFkl46dMLqhiI/k4WiY+M2tUHrP/+rj7pShVNiBzxvAMl0sUUaU2RC4xhLbbFqhZviYTNJ0Jlwy5j4GQDYmHiMoROjyQKAhA6tjTKY8N6Jv9uZzH/96183DxBgh1wrvC+ALwQvF+CC8DyYBfFQ8dsDDoAB4AdvD14vPG/cQx2EDuKlQScvQbZkYIBzbPHrgDlAWPw8YIY8MQAH4AegxHXa7UMg4/325BoRiLsGvnwZbEFIJYyBePQohwCq+E1fEepAADjUCSBCOB/f7GTsj79Gv7DJjQjl2LA14ZiAN0At9kAP4BjSDqj5OQZ0YnOayDPBq4fEwdiN1BvKBAsECwQLjAQLAKKY/OMlYa2rHJFKJArenNkP3W8kDUzCe+Sxmbb2rgHgi/sIXyT3qUFseE2nz9mEPi0ny6XJu5UoXRpfGlUGIIGnBQGM4F1quVDt2hSaN7gohE4fNfNmTnVzn3nIFoKepHWxAFysLUa+WaLHbXBdQ1/BRu3KDQYoRu4nlccLpzEKryChgIljAAAsQ6DGQKfaeSsEIEgY5iWxOJILN0XAMy6AJxaBLlq50LyJ8WscXxIAq1NoKZIhz1a6PtwmE+rJkweRPjI60xs/TieWBwTi+cNz2VZbR8EBXrXEe8bC7wDAxsJTDH0YUxYAuBDOBsggdA/adsIDAWIAFib1npiCjgOkeMmRG4WXjGMAAUAPARTAakgoHPoAA9zjBfAFOMLThCQOCv4c5wEegBt040HDQzdhQhQmaTfrz2mFAELyEQc1eIIAet7j4+vgN8AFYEX5uFAGcEN+Fm3DLrQV4Rid2GkoQYdvt68zXj5+PX7+esfYoby83EId8eIBssgJA5Cyp0944XhWnCPkkzDFuAw2GMXLhONggWCBYIGRZgHLEVKYWqEm75NEI59M8HZMW3+3hRTabFpjBfk+yYSQPxbwPf/BpwaQYOAb7P1I/lO3QhqjcL44QIs+wiXTb+f0zqbdhMXNfmSDW/JHXzMCkGTlASgstAwggi79i0rkobo2rvkWEo6H1y6CJf21W2ijFYwN0v2LfKlfAEzzZO3a7woWlg8EYKKeL7prqQDYIpclD2RcWCoAyvhWkWUQNshEAqCZKJwD6NIX/heBLxWX/aPy1/oGmQkglWv27yRR2Rj+3X9GMIY7GroWLDCSLIA3RO+upALggEQCwPTkk09aCCFAxIMfJvwAMEAVAMgLIAVPFwNXHGxwH3X5cDlf3u8BdXhrCKUbbNDzZbmOPoCQB3ic83UCsgBzEHkkCm0CvKWlReyMXPeeo2QeMMp7IOrv9Tr5TTsAbei73UJ/aTsexV//+teWSwcZCf3zwNO3kT0hn0GCBYIFggXGggWMLENei2KFHk5SGFsyYaJPSFsUr0cJPtZ5CNL/jjR5UaYsW6ScpBLz/jBJhxY+maCXBXwBSDawSSfvWNaqyp0+1WVp7bBkwsLOhLfNVJjh0j/9uhE/JCtHvlrTaYUIHj8tcLJgyMWUk93vz+HFgm7ewhkZprUJrhgoAbxkFfDBs789WAeLhZ4jMNL/mtf7ZfdQ+pM/dunzQ65BFPCJkjezxKVmi9RkqTxgMVtCSgKbI6Qq5MshnS0iM1EUTd7Vaf3UYEMjOVE9sDb266ae1TXR3EHPjbwySD24Z7B/I9fuGTtHAYCNnWcZejLCLRABoauWEwShBDlbeHH8ecLTyMMCRBHKx76srMw8QB7s0EVfPrG7TPzZkr3AOEddeI4ShWt+S7yW7Dd1AAjRlygMhAhlEoVzACrqohygK/47sTy/KTtYn5KVvx3naA92JMySZQBYgBlSlMsadOKSq3AWgDQbZB3kuiWzS/yecBwsECwQLDDSLYD3CdrzYnlKCgYBYPSB9/e1yffQgIJwwklaX4u8JGjruwWwCDO0xX1jtwLWWHOqo7HJPGEAMjxKgJYC0eHH1+3qs2PvnB9QBFU9dOuJ0qhFhc++s9U1HFcYpPK2Ohqa3cLnn3aEUsJOGOVwJd41+G8IJfLnaMkW5XSRn5aWlaHC6ojaklM0RblmxZF9Yiq6yAsWCAEomu1i1/odavzsh2P6XRz6B/1AP2QcLQqF7JBXi7wvLwUL5oqJscvAV5wUo/VijauU14wcPAuRVEcATO1aj43xPPaIlKN31J16bYuWILgULa7MR1fViRhdvp6Defr0m36wphv2Z/kBddzKjYc/A2dj46HXoY/BAnfAAhFwchYm+Nxzz7ny8nIDMoArXmAAGoANOVtM1PGmkM/k8548ECE0EeDiwY7vCl4pPFmw78Vf3v6YkEHysxKFOj2xRqLOxLJcpx3cw4agn74BIKmbvCho7Tkf18fvOACh3zAA4umjT3jiBpO4nsHK3I7zvq+0FQITvF9dfOWTEGIIgMYTiR0I94SNkbBQ1mo7coS4+YHhGnZz+BMsECwQLDAaLKAxACY/2AMnz43ypxKbzfpYeFn6zcr7Cmkc0LsSj1UiqJmscEZozVsrKm1S3qaFfAkDpLyXTBF2TFt3l3leGuSlItSNcEfWAYPFMFk+GqiHutCVWTDJq+q3rztywu3/51+5usPHbcHiLIGSWZvWRt4eUMJNSkpGmuwzSyGas2wBavLg8OyxaDTePhZ09iDEq4Y50jxM5AmrvUlF46gtZiyccqVH60tqngCd/g0L47JsxjNi3a06EWpAgAILIZKdEHbo9baItAP6erxeRtwhk7TXazHsukYV6W+fLpVhceWKrTtdq4AeoZg8b5gljfgjFtYJOyUhiNiHeQRlx4tc+1c9Xnoc+hkscIctgPcEkMVknc17t5jcA7qY3CeCF5psLye9lH1OlB8TdJsJuUd4YgB2EdlDBAw4RrgGQyDCPdxPGCOeNoguPBC0Akn+0CYvHAPaJithGFDXqdAJ+oRnD1bFBx54wNoAgEQAXrSDvsf1+Gt4/Gj/SAFa1ugkf+gDgJg11Mj7Anx5s9AvFlZ++OGHLXSU50R/AZc+JHOk9y9Jl8OpYIFggWCByAIaNAAR0JcXad2tROZDCnGd8L2WC5X9gJO/hgcEoodcLYhseUSRZvubP08AbNUSrSGlxZAV6takRYNzpvWnogdoLdI6Wh3yjrVWX3Jdja3KV1rs5n3lUS1yPKfXOxNTqkPeuwAA6ksVMEomeGvqBcJgbaTOkntWuKlrVhqRRLLy/SHHwBL0c+LsGa70/nssxO6C8tsAGYDM8qc3u5mb1g0AoICZljMXjcK+D5xdG3atEoBkupgH8UIBoswbRf5UcrQ7sGGyBWMWHkfAUcX2PS5PRCoegA28ITrTIlDMumvYxwPizgbldWvB5UQxshWFOgKsurZ+Zv3BFvPEjLjyf/hjW7z7Smfvh0sRoNQLrL33V/+rFoE+6FKyAwBLtGf4HSwQLDCMFgCQeFDiJ+XxvT+OV2mDiO4jdJHJfYZi8AE+TPzZDh06ZEQdUNYDaPCocR4QBBnEnj17LAwOnZwnLwlvDblflB0KgEXlU83zBtACKAIsqCdOrAHAIweMtboAaIBGhNwwyCigzsdTBzChPvoCeQi6bJ0WK317/vg+0R88ih4sDlU7z4x2w3II0YYXwCwC0ySLMMNIiW0Bp4Qf4pkMEiwQLBAsMJotwBgEgQMgaOo9y83zFO8Pa18xUT+t8LPKnfsGEFgQhpaqdy0L/k4XMJm2blX8dlsbq0jeIfKmyMO6+MluV7xS3hmFc3vB+za5fLZb8M2njGGxR2QWebNg85sv79bA9b+4TyOkhSh2m6cleW7ZZLEhLvne1wRoxN4nIgo8VEWiYk8qvPDtpX89GCYWX1HdL/3Tb7rp9602bxp5bjA+4o1LFJgRKwWIaCcADknAX3YOYpCypzabXQi/xE4AXssdsxLX+cOcQfpbL1ZbfWVPPOjczP55XF4DgJo1w2gb4YoaqPtALuGadQePWyhoRn5E4sV9HE9dtcyt+LPvuFliwuTfRY7COIsFlPm3kyiEtOLNo67xJMk/BYwnC4S+BgvcAQswkNlgpheOBynXawblAQ1M7AnxgxURrxHAgfOsibV9+3ajR4cgwocVsv4X4IutqqraQuUg78hTyMHChQsNBAGohhK8PoA4gB+gCcDC2l1lZWXG9gclPjoAWIQgAgJpH+CGdp84ccJt27bNvfrqqwZcOE8bASzPP/+83QMgpB+3QpLpBUhhGxazxgtIm9iuJ/SHtnM/gm7OIYRUYiMYEAGi2OyTTz5xx48ft+sAOBgRgwQLBAsEC4w6C/Ce02Zrba1e5qCKj0unwtxrRO5w5q2P3IX3P3VpCreLv9EBbyzyC5MeoCoRgAE68pUHljej1BYLrvj4M3lNHrMQvng9eGBmbFhjW/z8oMcQVul9Ta5RW229gUg8YnGZerc+mgl40acM5W2xdtlgkpqZ4dKVGwbZhH/3D1aWddLYZj9y/2BF7Dy2IfyxZs/+3vZF03ML5Uy4kzC9ssceVIjkemMkJHfqqADSzQAYyDgAVLWHjrnL1bUKi0yopPcnXjYIO1gegFGO8c6HjjbLQ3lJa7LVHztlQBO7eGFdr7nySl5PLh04on8vH7gOUfb3ef2ud9MYuR4A2Bh5kKEb48cCAB3yizZv3uxee+01A1V6H5tH7eTJk+7v//7vXZmAESCNsjD1nT592hY9jrPxATq+8pWvGAgDxDGQ2MtVL9hEQQeEEyyozALILOzsw+0OHjwoD0+L3QKY3Llzp/u7v/s7t2TJEgMkgDfK4KEDmHjACGhbty7NyrGeF2293mCW2K6b+Z0IwvDKvfzyy27//v2uvLzc+kT/hhLaRxgiQAvvHxLZLboLkIl3j7wvwDGgl1wxPIN3gq0xalX4GywQLBAs8CUtAPgSnJqQli4vxgx5sRbJm3Vtwo32DuUEVe/cb3lBadmZfet0+ZrJXWKS3XD8rEgXonB4f83vyZGaKg8R4XGN8rBc2LpDi/ROtDXHfJmb3TOi+fd/a2WNET4YeUhsqEvTmlasW0X7IpKJwWvJLi5yRSuWuItaONqTSwxe+vpX8BCdeXurhfhB2GH1qx2YvEt14OUCuCYKgDVNz+AamOQZ3aBonGe8tnytE2J8lFfSFl5OGP8BYFWfHVAYpdb81AfEOEgCCJMbdvgXL7llP8gSCFt4g5VHxbBd5Sd73MkX3xHhikIbFdUzniQAsPH0tENfR70FmOzjeYFZ75FHHrG8rmh9rSisgvC+48dPWIgcAAFQQ/hbm2LPea/yQscDM1Ex5ORrrVu3rg+oYRw8W4Qkxr1ygDa8OQCJffv2mW48Z4QOrl692ogmoMX3+VCE5tXX11s5QB7tBYzU6wtXXJYsWWyMkHjSAC3xOuPlvswx9sKrhTeQY4Q9fSJ0EoBEfhYLPc+dO9dCJynjB2uO44I9CdcsKyszDyDXUIs+9EZgtNn04F3D83f+fDTRoAweMC/UjyctSLBAsECwwEi3AO83y6OSZyN/9vQB4Iv2Axaqdx1wbfKsAM4SgYzhHemBPa+1qsa8Udki84gL5BfkdNVowd+qTzU5f/ldseNdcXOe2GgMhnhukglrdxFSx2K+mfJgxcW3gz15TKdeecelfO0JY1305SJwcU03DIyXa+qMFCK/bIYvZvtJ5TONCIQFiXsGeYfjccOzlC5gl9ieuDJsBbnF8d+97moPHNMlWUmDNV6uq1cEUHbstZy70vWr+nKv/P2AISMp0fiJEJ5JfYnCWls2UCVcYJyjnbUHjhsxSI7y8hLFKOv3HXbNYoYkPNOeYW+hFIFxnuWFD3cYWyU5X4WL5g7ZX26Fxr5RIaZVClM989aHrkkMiLQvJaW/VzKxLWPtdwBgY+2Jhv6MeQsAaGDZW7t2rU3wAViE/jGZ9xN8HzLogYRfBBiQA/EHCztDFgGQIP+KeynLMYQcABYv6OQ6XjDAG7+pk7Lc/+CDDxpxCOAD/ehhsMbrc430Axr8iIADDxjeOZggudcGAd3nhXu9xI/9uZvZcz+gkj7hZUOoj412sKZat0I/6A8gkvJcG0zoHwAMTxleSKjm4yCKcEbApteDt4wy/Oa5sUfQQ91svizn/XWOgwQLBAsEC4wUC9jCulla26tIa0324hQm54AEXmvkJZEnVHfkpKjKWwYlu6A/vGLbRLJRJVpzQv+yBbrQhQeECX26vGeZk5RDrHPn393mOkUJ393e6WY/usFNFlEH4MSHwemt6WAPbBal+sVPd2uh5dlu1ub7VAuAUbnG8uBAWd+j9z331KhOKO5hcaTMxJnTbU8n6Acgs+1SvXKbjrnqvYesXwuff0brdilKQ56qyNt01cIKUzOVO62Pm8kET1b1ngMuQwyNBYvmGZ29kVfYGCDgo4959PXce5+4U69uUcjmJwZgvVeRsniIICQBaAHi8kWWAeAi1BAweUWgs0NEGPQRISSSfC1AmI1z0kGnrI1JxjUDpupzrfK4anYfMgZK9KMXIMh1nmnD0ZP2vGCbjAuADJsAzo78/A+2TtjSH3zLnilAGvvy/zhq69EzbVDI4rkt2+Q5e9E8aH7R5rju8XAcANh4eMqhj3fEAky4PUMgDbD3rvawHDLR/jKTbXTj2Xn66afNG/b+++/bulQnT54atK8wHi5fvtw9+uijBsAIk8PzBBBBaA86yd2CyRCQcPDgoQH6oLPHEwTIA6h94xvfcGUCYrThvffes5DIATf1nsDzRvjiQw895DZu3GhAhkveHuhEP0KeGsAITxHXkwEjwA8AygueOsrTPsQDJgArgBPdn332mfT5O6I992FTL74NnmKe69SFPt/WDRs2uL/8y790v/rVr5R/d9rf2renXIlod7EPQIt1wy5cqLDrHRow3313i4FYbIG3Et3Ug/g8Mb/gNbqCBAsECwQL3CkL4Hki16hV1OX7fvLv7uRL8kxBf977agLcXK6+pMl+mzw18mQkmfBb23We8EQm9Tv/j//aC0x6PTS6hkemU4v7EipoIWk613z2gjv6y5csVwgvTW5pce8iwRNsPSvWtALQAbTS9GFw/z//srcqfQxkHFGuEm2zcUQAC6KQff/Pz90pedfQhU4AJOCAPLHL8s5BasFaYIRN4qWBNRBd9AtvG+thsTZW1iC09oDHRoXtVcuT1y1gNFEkFyzMDMCyOkSxf1l9xMtG23s6PLiLnjD2pL42XT/z5ofmHYP9EHBFmKYBMNmKEMJ6gV7A2tFfvuzOvftxlL/Gd0S1lefToJw7A3/8jok9U407jSfPuEM/+63A4McCt1G9VkzFCQ0kHDRZCCRloiomGD199e796k+t5eyRA0buG0yZKakA4Q7rN33FM9haWW32gzgkHtYYa96YPwwAbMw/4tDB220BJtKABSb9kEwAKgA5eI64Rtge3hh+f9GJNQCDOvDCQMrBRl7S0aNHDWQA/KiTMnhs8FYRDrhixQoDPuXlWi9F5wCDtCkutG3z5s0Wirh7925jLfTeG8qzthVEE7QBAEfoHmGL3Md58tAox8Z99BNPEGANdsQ1a9aY9w6yDtrm7UMfsBfriwFYuI9z5JzRVg8UaasHWJB9ANKwI3poA/bF9vTLBlzZAJ14/agPm+HtQgdlAGx45LAf9sJjBjhEF/UCvAClhCny2+stKytzzzzzjNVLaCZgibLU6cMeyZN79tlnrT+0KVqw+bLZA7CFDurETlynLCGctIH+8rwIN0Vf4nOKP7NwHCwQLBAscEstoPcUgIAJeXX1QQGGPZp9x2rURJ/1oQwc6N09lMDAxxpShAxCPhEfB3kf4rkCqLCWVmpqpnlw6gXYyEdKFXgDMOFhoXom8+0Kb+8WG6KBDL3TAVJxAVxZSKTahW5yqi59fsQ8Pxn5edKnMHhFhlyRN4eFhQFI3ayZqfLUQThkvzaansgLxyLNyQQvFVT5tQeOmmeIOgi3TAGACSi2y8uGtwrAY31Vu/RjgCrzMMm7x5pnQipW1tuY5wFgVeNsqzt03PXsVT636o4LoC2VhaBVrJ/I1kincrjbBYxqFJ6ZWARvIxT1g4UxagCzMQz7tCucsqWi2nSSU5erD5DY19scjx9lAGPUDCMmXrTxKmZ9GS7R5uPVHqHfY9QCgIEPPvjA/eM//qN7++233D/8wz/Y5BmgcquE/6z8Fq/DBpjrDFDx8jdyTD3oBYSQE0a4IIQXAB9YCwEYgBkm8r7sUHopgzDpxxsUefKiMAfADEALMBMXr5ey5D8Rigc4AqTh4QFgAHIAF+ilvYniQYav35cBjCUTyvmN6748e3/s7/M62QOWPGDiOm2iT+wR2uHL89vrS6aTctic/tJv7kUXYBPb+3u8Pr/3en3fOO83riGD1RtdHZ6/PEdAKJ7BX/ziF8ZU+ZOf/MR9//s/GJ4KgpZggWCBW26B4yeOu//4H//Knfhkl5vdNsE9NnGam5qW5TpuZpHeW97KYazAjx96b35p8bpQdBP6AIQwQkK1vuy/f97WRvNtaa9tcJ//0y/d6dffs3BGPFrXwIbaPAzN9nWN2L0N8bFx/iZsO5x9yhRwvdTT4X7ZeMa1zyxy9z/ykPtP/+mv3UJFAd1JCR6wO2n9UPeYtgDAAwDEPi54O9g82Ihf+yLHTNKpg80v7oz3Bm8M1wAVgCYm2kzwfd1xIJBYr9cHOPCLRXuvmwcU8Xt8G6jD1we5BoAQHQA/37Z4G+I6fDls5uugLHZCD3t/3t9HXXH7Up52+j76cuwph2422oKNkvWJOrAX5bygF48U5TlGKEcZ9NI/vIB4q7hOu/CWcZ776BtluSfeB/T5vnGd+xKv+774en2bwj5YIFggWGDcWQDsYqGPvQhGk2u9VnkhfyFT2HvVlgZBn3Twf3TdiL4brlIf1zR+qeGqQ5t033Adib2Sjt6e2xVrwo20NVHPrf5NOwnZtD5TGTal6/bnVtc+KvT3nxmOiiaHRgYLjA4LMLn2E+xb2WIGECbpbAgvOCb/AAKE64AXvBw3Kr7tlEcfmwc66LNBK6Ys3gbKAibwenHsy7MHFA4mHmgNdh1diQJ4YbsRSewTo4HvE/dTP3K9dlqh3nJeJ20DtGF3BB1xm1MuHkJphWJ/uJ/yeGqDBAsECwQLBAsMYgGbvyePiBjkjiFP27iSOnBsGfImf9GQUAQoJnhmEn9NOdcAjkg0huo3XrAvLRor+tR+aWW3UAHt1BZkcAsEADa4bcKVYIFRaQEm/0z4h0vQx3aj4st7QHOj993OclF/6Nfw1Iq+4bT58LQqaAkWCBYIFggWuB0WSMQagI8AQG6H5UdvHQGAjd5nF1oeLBAsECwQLBAsECwQLBAscCcsIJAF+yDrX7WI0TBbpBNQvkP6AUMiZBuseZUIzu5EU0OdI88CAYCNvGcSWhQsECwQLBAsECwQLBAsECwwgi1ASCFEHFDzV27fY/T1tlYY65mJ4bD59DmtOSaiLxBYQGEj+EnemaYFAHZn7B5qDRYIFggWCBYIFggWCBYIFhilFoBCHu9X7f4jWmvrtOjWr61nxgLVeMNY32tYcr9GqY1Cswe3QABgg9smXAkWCBYIFggWCBYIFggWCBYIFhhogd4QxM4WsfTK4xWtvwXxRLQsDGtnQT0fANhA04UzYmYORggWCBYIFggWCBYIFggWCBYIFggWuEkLCISx0DBbkGCBm7HAMHBi3kx1oWywQLBAsECwQLBAsECwQLBAsECwQLDA+LVAgOzj99mHngcLBAsECwQLBAsECwQLBAuMVQskrrUSyEBGzJMOAGzEPIrQkGCBYIFggWCBYIFggWCBYIFggWGyQABcw2TI4VcTANjw2zRoDBYYVgukpqa6rKysfos6suhvl9YXYX8ziyQPa8OCsmCBYIFggWCBYIFggZFnAXm+rly54q5098AJ0icTUrRAtLYUzSsCNX6fWe7IQQBgd8TsodJggRuzwAR9vWppaXFHjx51nZ2dLkXrjgC4cnJyXEFBge3TlPwbQNiN2XO4S/F8AMhx4Vkw8IVnErdKOA4WCBYIFggWuOUWIOSQcUmLQU+cVuwmzy93qemaI/RccU7Aq6OhydYra9HaZT3tHcbQCHujbZSJiTE4anxjnAsy/BYIAGz4bRo0BgsMmwWY3F+8eNH95Cc/cVVVVeYJw/O1ePFit3nzZttPnjzZdXd3D1udQdHNWQCgFQaom7NZKB0sECwQLBAsMPwWsPFIQCtzUr6b88gGt+Zv/oPLyM9zVzq1Hllaqqvec9CdemWLO/rrV1xLU4tLE1ATYou2AUBL3rLhb2LQ2GuBAMDCP4VggRFsASb2ra2t7vPPP3dnzpxxubm5rr293Vq8YsUKA154xYLcXgvwXDo6OlxdXZ15JxsbGx2eSMBxUVGR49nk5eX1eSxvb+tCbcECwQLBAsEC49cChBmmyAuWZeALO6RkaJFoCcAsLVspDQJpV/XhdkJKlps0v8wVr1xsG3T60XpmzlXu+NxVfrrHtV2qd1c0toX1zMyEw/YnALBhM2VQFCww/BZgos+k/tKlS66trd02aqmvrzcgRqhbkNtrAZ4JoJeQ0AsXLrg333zTnT592mVnZ7vLly+7pUuXulmzZll4KB7MEIp4e59PqC1YIFggWGC8W+CqEr+u9nQrB6y73xplhB1e6VLEjCIVr14hXDHFTZw13c2St2zB1x7vZzY8Z01nzlvYYo8+OAYA1s88X/pHAGBf2oRBQbBAsMB4tADAGA8Y3skDBw6Yd7KlpdWIUZqamty0adPGo1lCn4MFggWCBYIF7rAF9J3QAFPiAtETyOnqi5rpZecgb0z5X4nh9KmZGS49NzsKse8teoe7NaaqDwBsTD3O0JmxZgFeiJMmTXLr1683b0tmZqZ5XghxKy4udunp6X0vTbwy8XBE7oUlEeE83hj2eHCMHQmGpN7Ne2kSy3Gv1zMU46L3CrFnQzwRBXvqjtePzhvRa4p6/yS2zdfjdVEPbWR/o4JOv8Xbjk70+I3fcSHc0JOf4PXiMuALIUQUXVzn+eApS7w/riscBwsECwQLjCULXOU9zIQell69R83T0vsOJfQNrwsEDzDxkZfk3+XJbIAH56qY/EzfVb3b0RN/HTPm8B6Xvgl65xpxRO8Y5PVFBBPSYYyA126mPG2gjiu0FRIK/673AIY2isSCcUIN9Sr77dGPbutvL5Dp00NJ2shGG6UvhT6jbwjpa7PZkXb12pF70CU7oiNRn9lSfWiva3SX9h+xfK/Mwkn2DCjfcPy0az57wUIKeS7dl9tcT0en9T+xOVwnd6xb0Td4wKgXW2lgTCzqUjTW0S/KxKWvHwm2l0GNHMTskHBP/P6xfBwA2Fh+uqFvo94CTNxhO9y4caOFHTIIADJmzJjhSktLbYLvQQIemTj44EUMAEAAAVz3ZB3oARClpaVrr5d47wuQ6wAI9l5XVC4CE5RLBiZoU2L9Hthwv6/fAyT03Ihe/wApn6xttIVr1OVBEXqRZO2M6+PY95M9bfP3oMO3D93xflMGGwG86LOvL12DdJdCOyjPdXL3sKG/39cd9sECwQLBAmPSAno3Am9SMuQ5AbRoM4+L3qcR4NB1AJlAhYEeTe579M7kHO/YfiJdms0rXynbpSp/KdLFuzgOhFQGkKB3N2F1fUACgBDTBzhIzcmO8qA4b7rl9FH95DalT8wRGABAaEoMsFEZAx/opY0CH33gLabXtxfgkSb91k5AoIHMXj10w8BTBNKsTgBPsj73KqRugGGKcrXoN+2KwBagTe3XvdwPMO1h3Kcfaqtq7Ot3Z3OrwNYZd+797S5LAIzngE1aL1ZZWCHtyJiY57KLCuy6kXFgl1j/0rIzXZau54hNsb2uwerGKwbY9WOlL09oIzq9bXu7Ym2P+pGuNqj9qgP7Aqj72dXfMI72AYCNo4cdujr6LMBLlgl+SUmJkTpwzDmIHiZOnGigg98QQpw7d85C4nwZCDtgS+RlV1FR4fbv329lKMv9c+bMcfPmzXNTpkyx8DnAGjlNhw4dcidOnHCeWILr8+fPd8uXLzcWRuoDrHgBYFC2srKyD5RwDs8dXrqpU6e6s2fPWpgejI7Nzc3WJwAk7SNnCvCUqBf9tJ3+0Db6cPjwYWsjoX/0A8nQYE9dc+fOtXail/sAQYMJ91y50uMaGhqMZZJ+0zYo/6mPNgNyZ8+ebcd4HqnPgytyvs6fP2/EKL4dvi6A15EjRwyAFRYWmp15FrQpSLBAsECwwFi1AGAKYFW4cK4rWrHYFS6d7/Jmlrqc4ikuu7jAQEx7bb27XH3J1R895WrEyFez95DjXFpuzrV3pF6V3W163+q9P0VjRMnq5a5o2QKXU1rsMiCR0PsYATx1CWg0nb/oag8ecxc/3uWaTp9zXYpGMMABJBEYyp1W5KYsXeCK16ww1j8Ppi5u2+VqDxxzMx68101VHZPKZrnMgnzz5HRfbneNp8+76t0H3IX3trvmcxfkLVJ0A6Cy912OnpS0FLVpoiu59y61c4Vo3+e4rMmTXKrAC2AFkNTZfNl11NW7hpNnxUJ4yF3c9pmAULVLF2iTsn7/HACjXfJK5ZWWuOK7l7op6nd+2UyXM7VI2xQDZO31ja6tps6AlNlQdmw6fUGkG4CjCGhlFUxyk8pnucJl8116Xo6BXgBQt0VsAISvuqn3rHDzvvaYy59VqrKz+/rlG1S0fJH1oWlzhQg59rrGE2fd9A1rXO70qUZhT7kI2Dl3/t1trnL7ngiEqQ/0i38LudOm6t/BQle0clH0b0D/RgCqrZU17vyWberDBT2vyyoOsPY1j499AGDj4zmHXo5SC/CiJ5/ok08+MSIOFmTG6wJw4himPcALZT766CO3d+9eB1igDCCLPeBo69atDtAAmQfnACweZGzevNktWLDAAM6uXbvczp07DUwBJAAjAD1IJQBma9asceXlWldE5/0gRP2Al/fee890AGIATICrmTNnmuUPHjzo2CAPwXMEkAGc7N692y1atMitXbvW9AKM0AsY8/pp844dn+r+Qwbk+A2Iox98haMuAA45V2VlZaYPUAfARA+bF9rNRnsBSdgL8EW7amtrRXLSZteh9gd4AnxXrlxpIBEwxvprlHv77bftfo5pi5rcJ4C6d955x54PbfjWt75lBB3Yqe+rYV/pcBAsECwQLDD6LYD3I2tyvitYMt/NfCACNHkzp2nSPcVl6jxeEwRPVXtDowGiKSo7cc4MV/3ZPtd48pwBNEDC1U5N3DXJB8TNfvQBN/WupS5/dqnLLJxsHpX+1lKUiMBIwYIyV7ig3F34aIcAzi7X0dhsHrEJKWnG/Feousoe2yhvV648RoSFO+mc7ppOnXdTxABYoHvzBBbiIGDSvDkuX+2bpO2cwELVzn0Gjgg1xCOVkp7qCgQ2Z4vAYurqZXacN73EWAb7t9G5rtbLrmDxfDd5wVyXp77BLlh36IR5sAw09doG0DZ11XJXuu5uN/3+eyLwVVIkG04SeMwwtfgZO9W/1spLAqjSqXZWfLLb1R8+aedTszPkkdP8YMY0A68AME9DT65Xy7lKecfOmu7ypze79F4vY7+BTDUB+iDiKBR4BUx1NbW6knuWCxQujJ6Vxj1CSDFal0Bm8zl9xDxX4XpUFvvwrAGNMzeuddPW3eVySqYIoHULeGYZmGsW+IJhsVN6J6TiKowNpNbTsf0nALCx/XxD70a5BQALAI4XXnjBVVfX9PXmnntWm3cJgAP7HiALALZly3t9ZSbrhQ3QAXi9+eZbdj7Fh1do9LmiL2AIgOi+++4zkPbxxx+7Y8eO23lCE5EevbA5BlT88R//sfvKV75i3iHAEoDCA7AtW7YYyGrVQAMgIW8NkAd9Ph6wOn0B9PWjF2DEIJiXl+t++MMfumeffda8WB6EAcAAM4DC//Jf/m8DYOj1wMzvPaihP5kavACT3/nOdwz4AEYpRxm/B1h++umn7qWXXpK9tshThmcrevH7MlH7IvusW7fWPf3009a+coFPQBq22LVrt/WTZ4QNEMJuAHOAUdozZ85st2nTJgOiie21G8KfYIFggWCB0WyB3nkzIKJg0Vy37AffcjM3rXPZUwqS9oqQOjxibMUCVoCfky+/4w79t9/Lq1PLwGBhjMWrlrmlf/oNgbm1SQHNNeUT+vRNkxcqv2yG61b0Q5Uo1AE91Acde1bRFDd57mz77e+dLA/RUAKgnLZmpW2AkZ6OLnnsDhorIOF52QIXsx6+z636qx8qnC93KFUis8gx7xgespJVS9yJF6e7z/6vf3Y9tQrtS4nGGgYUQMqCbz3lyp/abMAqmVJCDaGTZyuUzYtXLRWwK3P7/9/fuEufH1KYn8ZJjf2Z8oIB0LCBlyvtnQK7593F7btdpkIQJ84o9ZcG7LkvIz3PQhXzSqZazlZqeobLLphsXrX4DcUrFrk6eSEvy7OFB4+5B6GmOQKP0+9b5QDAgEsveAZpP6GfNLj3n5G/PC72157KuOhu6GSwwNiwgAcdQ/UGoPHaa6+Zh8aXi0AXYMSfcUajDiABOBDa5wXghVCWY669+OKLBkD+/M//3DxjiWF+vl0AKx/KCMDzBBW+fq+XPdd/9atfGdhCL54s76l6//333b/8y78YiKMsen0dNspwMiYdiq0/duyY4z48bPfdd7+AapHloOExJEwT7xXU8XjffPhg1C4UMQz0F0I3aWN1dbX77ne/a54tQBhCewCS3rsFyIry3CI9PIN4uGZ/zeFXsECwQLDA6LbAFVGdE1I2ZdkSN1seppkbBwdfyXpauGieeWc66pvd2bc+NIKIiQqJm75+9Q2Ar4EaCxfPc3Offtg1yaPWfL6yP3iLjXsD7xz6zMyH1hvJxyf/239xLdKLV6n8yc2u/InN1wVfiZpz5GkrWrnEAGvtgaPyWrVYkXwBwpkb15tHDa/WjQphfjM33ydvUqOFIF7adygKOUTBgD7rhAYuIw2B1OQGJQKYE9wlhWxC6lEigBwXnhm2r9i6U2GXimABV2k8zBIQnyzvYhx8cR85ajWfH3YtCsWckHItoiauc6wfBwA21p9w6N+otwCTeu9hSZO7v1tfjvjNFyYvlAG0IJThGhP/c+fOm1do5swZFq4IcABIQDrh5cKFCoXhVdhPPEhTpxb3gStC7NAD6AFo4B0jPI+wO0L0vPj6CQecMKHN2odXDoCCFOiLGffRRkIU8Wx5vVyvqqp227dvN08cnjNyxwCEULzv3r2HIgYEuZ962QiNpE3UQ0ghYAqdgDDCCwGVsEWWlk7rYyIkj+z11183rxqgEFvRN9qNt44QQ2xTVVVlOVzUh0eP8EnA1JIlS8yzh8eQ8E9CPwlhBKBRlntpF6GH6CVUFBIVPGz8ZgsSLBAsECwwViyAl2NCaporXb8q8nyJtCEuhOt1tbZZqJl5jTQh94sCU46xAxBW/uQmV3/ouEDTRfOWEJ7IgsFx6dQ7u10eI3LGGBAIbSTMDgDoJaek2JUo1wvvD/lUkei9y/uXj4pJZr20EUDABlDIECkH5B9xycyfqLDAuyz8DgBGOTxueJ8SpbWy2l2uqrWwPU90QZ6YDzWkfK6ILeh364Uq9adRIGSCANk8N+fxBwd6vtT2bkVqEK5HnwjrM9IM2cBLXulUhWvebyQbNXsPRAALz1JCn7nfxiHphBHx7LtbZUPl6RUVCixN9upsD/HGZYV3ErJJLhy5e907PzfijkQAljt9mkIwy+VtSxfBhuYXKdnmBeV5QGUfF4hDGpWrR8gi+Xp4B8ejJPmnOB7NEPocLDC2LMALFhDG4AY5xT333GOheYCFt956ywCGJ5UgbI7ygJnp06cb2QZ5WYCVDz/80EIgYTGMQJ3ixwWgAHGeBp86kgmAhGt4nsijAgwBcI4fP24ACB140CiHAMrwTEF+gfcKIpCamijsEgCDlwqgdO+997oHHnjA+gPg2bNnj/v1r39tQAgARllAGaGX6PfgFbDEOfK+PPiiXq6T6/XYY48ZcAJcvvHGGwbi0AdIY3/y5Cm3b98+d9ddd7kf/OAHlidHeOQvfvEL00c3aCMkIFwnPBTQiU1T9IXPBj0qDBIsECwQLDAWLKBxA4EBkByfqXcvHtCrNgEmQtMuiCAD0DHjAeU1KacqNTOzr6yBmbUrxbZXZGFuBQuV4yxAEBeAQ92RE+7CB58a2cMEMfiW3LvSLfnecwYe4mVh7TNSD713TYb47gVAuSwvDJ6duqOnlbM22chDpq5YEn31iymmzeRlQaDRWlGlEMTCATlphN+de/djd+aNDxWK1+6mrFjoZitMcerdy1yKwu290Od8EV9kTNpnoCpFoX1Tlswz+8QBJeUhqag/dtpd2PqZcqg63ezN6xTOWGbkH14fe0BroXSo4RpvBDaT9bt3vIa5EW8VfZkhr2XZE/JebpKXT+OnFwhKTr6yRYQpJ+T1u2i5WoQlFiws80X69pnKFctXiKcRi2gcBGxOXjDHTZxZ0lfGHzScOGMU+Ve7uyxU0p8fb/sAwMbbEw/9HRcWAJgAdgBSAIuHH37YPDEw95Ez9sorrwgInegFVT0GkgA+Tz31lHv88ccNOADAACZ/+MMfDHx4jxtetFOnThnQAGwMJnjqpk8vdc8995xbt26dMQoCtgBC/P7Xf/1XYzXkfnLMAGB4rcgFAwx6z1JWVqYBL+4FzJCDRl4V+V2AO0CO91DBxEg7AV540LADAAvwc+DAAQNrPmySc4RWrl692voNsMMLhqeLMEhA2BtvvNmve4DCkydPGgiE+IP6yFmLC+2CsINcNGztgWi8TDgOFggWCBYY7RaASQ8PzySx9OGBYeIfF2jhz7z+vjv6m1fNkwLBBgyAa/7mP5i3JF4WcDNRpB3QnuuFbYyD3A+9OaCgvaHJHf3lK+7Uq1vkCaozr0l6Xraud8bV2DG07bapPiQZDrEL+kMI3P5/+qVIMfZazhhdgFDjyne/qpC6Bf3CCwEfk+bNtnZerhKhlTxmkFPAjsh9MBNW7z7ojv/+LXf+/U/Ubn140/kCgaIpyxa5a346Fdc4lSayDDx5qRlpbuLs6Y4wvkSvH+2sVt7Zvv/6c7EonjOwVrF1h1vxZ99x5U8/5LvRt8eGuaVF1unBPvqpSfZxlBw5wjRbKqqNtCSyFFcj6WxqMfbH+iMnXYeYF2kznjiINtqqay0HzpdlDwibVD7TtVy4aGUnKd8tT31KlEaByUtiv4SkI2KrTCwxPn4HADY+nnPo5TizAB8mAQJ4ngiXwwOGEB4HeyCsigAwBK8NZWEtpOyGDRvM4wMI4TzkHidPnrKy/MEbBDEInrBk3i/q9oIXCEC1bNkyAyPci05YFWFmPHfunOWUoadTLFoVFRcNOAHAADh4zWhz5H3rcfn5+XYv+gE/gBu8ZOiNC8ALrx16PHAENAKefJv94ERY4TPPPGOgC0DHfYQ4ch3yEAAnnjd04fXzoI6y9MXr8/VTH+cBwJShvK/Llwn7YIFggWCBUW0BvefxSsEqCNthYhgZwKS1qsZdFNvf2bc/EhGG2Hmhdj91zk1be7d1PfK2aB1HARukE9IMvdPxkABgWLMqXV6jzMkTjc4dwEMoYN6MEgNGAL94OKMp0R+AoTl6er09/nzivqOhWZ6Yo+70Gx8YJT4hknibYBiE+j1bXrg4uQZMjlDaAxJ79JHvwkc7LWwRsJddXChw0mlhdan6KEd4YbrAKWF5UMLHww+tHeAcvE3yVBG2R5+yxPIYF8aNDgFPFlQ+/eYHrluhnBrQjAgEyvyJs6ZbKCJ2ZNwlLw1Aha0hubCTcYXxY2zT+wyh87/S1X8MpSihhABgvHqwXNJO1u6CfbHu8AlXrBDRuH3SNN4RRlkHYJMN8dLRxkRhfbK6g8ctTHKAXRILj+HfAYCN4Ycbuja+LYDnBwAE5TxeHYABgIXfiV4bfpOvhDcJYMWLn/sBIollvVUTgYc/7/fkfZWVlRlgApCQJ4VwH+0oLy83wgxIMwA30bUoFBFARS4YG8eAGAAXIApSDEIjCWEkVwsQB7ACKKHXC/X4jf4QWsjGsS7ZNZnEQBWeNerBTlwH6AFECYWkbg/isA/AFNtQ1rfb1+n3nEcfe/QFCRYIFggWGFsWYPZ+1XKhyLeK6Miv9bC7TVEImoiTRwQgAJQQWse79NDPfufOCFBcy2PiheyMir6tRnlH1dsVxrfVKNBLNygyQethTZo3yy35k6+7Vf/TDwwAQckOIIiHMl6r/caOWOer4uPP5MFS3rKo0dMUFoiXDs/bJa3XBREI62N5wQPEGl8ZAoXkY+37yb8bOCS0crqYH4tFrFGs9a5mKUQQm2Qq74tQQ8L9AGkDRPZjfOB6psZl2Br7iYCkz5WyvmYB1qRHpj//wXaB2bMK+dP6aXj6pGcC45I8eu0i4wAY0d4hhTFS4M3KAQYTxMZP6eCZReUElvUc25SDVyGPYZ7AVRyAsQ5ZgdZ+yxbDIt4ziEQmah24uOB1w+4AcZ6/tT1eYBwdJ/kXMY56H7oaLDCGLcDLEy8SXhhe8mwAFB8WF+865wEXeG3iZbnXg494eY4pN5SwDpn3otEWXx5QAoApKyuzMMajR4/2XUMfIYoAJcAj4YKE/UGP73PCCC2kjCfzYE+4o6roCzdM1i7uITcMoel4tWgjINN7uHwbaS/XVq1aZW3jN4KdKMt+MPBlBXv/eH3xc+E4WCBYIFhgLFiA9xshc1mFBf2IMOgb3iDW9mqvi0LXeEEz0cdr1qQJeMsFhYsbKLk28beQQ0UgUIZcphnKtyrWYsH5s2cI0OSL1GGyUZcPl+0ggIBYgrwqe8erjSkiFAEk4MVhweO40H7aAZDEa5QrAhCIOKZvuMc8XbAREoYHOQigc4Aw8PSOJf6aeetUJwQYiWQV5HGxZhf5ZgxafWBJN19WCCDtg8bdxlehMvZmQ4X24Q27Mblm/0HLx9oMWCTUslIgi9w2Qg69sEA2C16T43dZYY0AUwPZvQXwpLFgNoswE354FQDmbx6H+wDAxuFDD10eHxbgZQxQ8ACKwdKfYx8XfntgQbkbAQ6JOuL6OAboAegAKnGwwjH34l3CG4cwLnkhRBJQBQMj4AxiDvLQCE+MC2QbeNaoB+E+vFWJ4tuJx8p79ygDCCTnCzZDvFXxPvPbewDj+rxtvM74tXAcLBAsECwwriygFzcAwLwtAhFxAaBclpeISTfAIT7T7m7rcFcJp0vMzuLDmDw3k0TmsPBbT2t7yhZyjuuNjpW/qzW5eB/jYfri72NVaGNPrH1qK+F25DwNyC/TuJUi8g+8UYCsOY896BZ++xmtc7V6YBN1hjBM6N4Z4KydAnADRNfwAhFqSZl+orYBstoVKqlO9gNvLKxMGGSntd/+9Jkz0qNz/Yf5fqq/6A9CBjsam7SI9HExPUYkWV4XwHSyQiMJv2xTjhyhl3HBppVan4313ggdvQXNi1c34o/7/xcz4psbGhgsECxwMxbwgMHfk/jbn2c/1LV4uRs9BvBcC/kb+KoFLHnAxNiiccgErx0gDVp6yEIAYDA2QtRBG8lZQyAIgeEREId3i/BEiEMsXAKFCRKvj0sM2oAsD1ATitt5rscHd4AZG0JbggQLBAsECwQLJLfAgLcw72U+yAmc4QExxKDXqH+TwkgIGcXSP/mGm6V1t7K1WHMyIU+rVjlI6ChWeGJ6Al19snuSnUsjT1eeJwvr6x1XnPaAA/NiJQAiPHOdTc0KVVT0hBYeXvDNJwcFX9TXfOaC8uAuWdVFKxb3C9cb2B5vhf5X5DdMClQsP0sglBwyhiJsjQby1CIANsD6/RV/0V96huSXYQfWWgNMZU0p7AXZ+pArz9tUUfMbqExYnJp8NshOIDCx3K8k4/QXbdZovC8AsNH41EKbgwVGgQUgxyBHC4mDHLxyCEQehBMigJwIADrLv6I8AAya9+ZmyD6iMni7YCuE3RHvFWGKeL6gokffUJiIXDY8ZnjBEAAZ9RPmiPfPg0Gu0UZyzlhMGsBFe2gfa3oB/Nh8PygfJFggWCBYYNxZQC/mHoEgQvZYSysu5HzllmoNKFHU461KEyNgT4eWHRGoKdOaX+QHRQQahCbqBa/365k3P7TjaaKXz59zLbQNvYCfmj0HXa08L7Dw1R0TZbzWFMP7ViCyh6Qhf/EGJTnOkhcrXzlKjD94vdCB1woQkStSjMQwPtrQ3qCwPwG+KcsXW6hdXC33khtWK2IPFlgmzJJcuNzpJUbqEc+X6ruPsU96u1rbzU595zmQWSD3YOFjQCsAVdnFdsxaZ1NXLxf4zDaww/gEkITcokJ09TYYJsd0/aoY6kc0JkuJDawxQMfjEgirP3pKZBwnRc0Peci1/OvCxcoDE4FJpkhI4nJZYI0lCYxRsXceEL8+3o4DABtvTzz0N1jgNlmgSV/IoJLHO4WXyoMYqsejhceKBZSveZg0gGggJhcNzxOLMEO0gefLC3lZ3/3ud41an/w0ABnriqHLgzwGjWs6GTuiUYg2sNXV1Zk6ABf1E+pIe2wAE9DC+wahB2QfP//5z/vWEuM6a4B5cg5fn29b4p42xNuReD38DhYIFggWGM0W4P0GwGirqTcAE+8LpBYFi+cZQ6J55ffuzAAAQABJREFUZAxjXTWmPzxcZU9tjhe3Y/KXqj7bZwsNJ14E6B1/8S13/DevGXU8+VvkX5U9tsHliwziiwAwcspYqypLAKf5nKbDjBXqE2yERQJYWQJ4cbE1w5T/BNkFDH8sQB0XbHHp4FF34F9+7U6/+p6BUoDcTK2zRchgMgF8EqYIcAPIxoWcs/y5swysAmQ75flTI43QhPDHu//iT20Ntvg9p157z1XtjNYW82Nf/PrNHFM/7WMEjesy6njZqVbga/K+I1oD7u5+HyTJ/WLrE9m1S7Zh4WWYLbETa8eNd7k2sxnvlgj9DxYIFhgWC+i93CeAmx07dph3CvBDvhUvcrxjeJdgMPQghQWPfV4Y5/BotWpA4pj1uqCAv/vuu42tkXKANLxagCUWSMbbRt1en28E9XEOsg0AnL8O0GJBZlgYuR+hDMDu8OHDRpOPB2737t3us88+szXKPGD0OnwdiXu8Y97jdj2glnhv+B0sECwQLDDiLcDLVhP0LkUotJyvGAAwAAwl8tDMeGCNvEULRWl+Rd6cIlv0F/CSTJjYk19lrp+EAoCT2n1HtWDyEVHFtxq7XvGqZQJ58wcsSGy3Rt/dErT0/5khlsKi5Yu0APF9BnIABrSbsMb5X39CBBOz+t0AUGo9XyWg1CZwJtZCrd8VF0Ija/Ycdo2iWe9UnlS3ACWkFPO++qiBunhZfzxhgj76iQSk9UKF69JHy7gAgAoFYrFhicAmhCfkoE3fsMYYF5OBGHR1iXGYtl5vnOpXV/xH7zHPgvroF/b3+Wx+TKvXwth4+vDgDSWMwXgu8ZaB5sbz2l9xO/X/1xO/Eo6DBYIFggW+pAUAYK+++qqxD7LeFi9ugBWAB+p41v5KV9gEAGuy6H1Zt4zQQgQAg0csAlDR+mNQ2aOT9bnQw+LNO3fudEeOHLF8M4AP5eMC0EJYGHnhwoUW2hi/jqfrhRdeMDAIayMhiu+9956tlUaIYlwda5JBWQ/4S6zH6+R+QBs5cPSFDVB3M4Oh1xX2wQLBAsECI9UCAIROATBynWAThLkwLjDgla4Xk6ze73VHThkpA4sc52gtrbhcUfgiOixkTyHhPQq3SxTY98i7gniCsDxAHKAkJ+5pid0kKincNrEzyQ9zpk5xcx5/0HLBmkTrzsLShPfRFwhG4kKYZc3nh6zPmZOij4nx64RUspgyfWZB5OypReb9mrZm5QCGQ38fNiT8sUXeoZZetkMNFv6y5XYVLtHY9fzTAmPzzasGQCxcMr+vjD+A8h96d8IVDen4C19wP1Hsk7Mfe8DllEyxcMOW8xdtXTLay3gGQQjneG6ElA4ltQeOGQMiHRrP1PNxGwUAFrdGOA4WCBYYNgsArABIb7zxhjt48KCbPXu2ecAIS4RSngWP8Xp5Aahs3rzZqOnxas2YMcNCBNEBcCN0cO/eveaZgmwD7xlAB28VoMznaqEPcMRvv2ewWL58ud0D2GrU10l0sgHeAHR46vCAkVNGe2tr6wwcAuDIEcMDB4hkvTTCF9EN4IsDK8ZNvHsvvvii5Yn5RZ7py1Cgzdsg7IMFggWCBUaLBQhPw2vUrAk4rHgsOmyhZzEAAWhgG0raLtW5s+9+LO+WvCl6b7OGlFPeVFzIJ1r2/W+KdfBpI8ggPBDa86Si9zA5aFGOWdISfSfxxky/f7VtfScHOWgXiUTVjr22+HJOSbFytjr7lWSNsPInN7qpKxfbtUkLygYlCAF4sYYZbYRMpFUAlpwqtnx53mAU9JIjwLnw+Wds8+cS97TlgnK/qncf1ABIXt2NBrgJqjJWakuUKQKhhYvKLS/utEIbD/7b79wlAVBYLNEPTOxQTlz15wctFy9HgDOZoLv+yHH17YRh4htvWzJtY+dcAGBj51mGngQL3FYLDOYB8o0AuODZQnwuGIAF0gs8WRxTBlbDDA02MBred999BnQoD9Ahv6uurl5AKSLyIJ/s5ZdfNnp7QBpgh1wzL+hEWBeMOjxjIeegxMcL9vjjj7stW7bIg1bb96ERXYBCQB39ihN18BG1qGiS++Y3v2k5YLSZMni1IOXwdXhARv8IawQY4qW7//77zWtGGwBr17Mb5YIECwQLBAuMBgvgmbqqD1Kn3/jASCuWfO/rN93sxuNn3cmX39W6YWcttLDpzHnzJKXnxtay0rszT14l3p+ExsU/fCVWyAR/kjxk+aJEb62oNObFxDI3+5u1q86+s9UWOjYa9sPHBoTe4dlhkebUMhGIaNxgYeLBhFDHAnmNcgQkWQ8NMFu1a5879tvX3fIf/XdJ8+AG08V51gU7+9aHxjIIMvI6h7rHBkC1E8AbLRcwELRhS8BsxiStbcYi0AaudZOExbc7Gptd1aefu4K5ZWpzcgAGU2LzaXlJKy9Fiy8zoAdxAYCFfwTBAiPYAn7CjrcIAVggeGn8xJ/fDEqcQ3wZiCU8WOC8H7DiZbv05Q1Bv/cY+To5P1hZ9Hrxev1vAAtCuB4kGYAiPFT19Q3Rhd6/tBOCjeLiKW7FihXuoYcecnPmzDFvE2AJtkNPkgHwojzbyZOn+vRkilFrxozp5rmibE1NRPlLAcIHyTODKRGgRDvxRD3zzDNml23btpmHDvAFCCQfzDm2SAh/pB145tatW2fEH7NmzeqzMwAMr9j8+fMNYAK86DttbG/vMCWQg6AfO8bt6usI+2CBYIFggdFsAQgpeOVf2nfY1vDKLS1RXtUCo5AfytNhjIIKYYO178ybH9j93cqtwqN27r1PFLKX40pF7hDlhEUWih9zf2dzq+UnQaJBfpQXQh+LVy4xrxwAbLAcpW6tUUaeVoYWTzZadK8gtudeCDLOvP2RwwsE4CAnqkGeKsguWOuKsMU+0TgT0cBHZ6Be5x5CJdNitPbkb01RGGGeWBhZA+xqd5cWqL5gIA8q/ulahDpPXsC4rr46YgfkZjWeOGPMh1C8t1ZWW7jj1StiS1TbE+/HswZwQgB9DFoQYzQcP22U+bklyUFUKiBR+Wq6y+7lDyCvs6nVVe86YKGWxXct6bvmD6Crr1f4KQARL118YWZfZrzuAwAbr08+9HvUWICJeyLIGexcvFOE1yGJ9yY7F9cHWPASPx8/h26vN17el2FPrhQeJ4gvPv30U+V97bfL9gFNR1TDtdWrV7vvf//7BrjQiecKso5NmzYZKATAbN261QBS/F6UAX5gJVy7dq3lcb322utWB38Ale+//76Br8cee8x05efnuwcffNCYFgmJfP31141B0QOmuH7WIysvL3ff/va3DRwCtshL8+CTY+jon376aavzgw8+UNtZXPSaQHvvn8O1s+EoWCBYIFhgbFjAxgG9zAECFVt3iumuwi353nOu/IlNLkdgDA9Zolzlg5dyhyp37nWHfvp786Aw6kD7DmA59qtXLCwPYDRl2cKk4Kj1YrURQNQfPe1KFUII4UdcJs2dKZr4UjtFfcmk+Xyla1DeV5HqAOwkA4xNZyvciZfeEavhFhFsHGBA1ZaivKcqd+D/+7W1d8kff71fyKCvi7GxYvseW3x4wdceV18W9I2blEkTyMwuEV17QZ7rqGsSQOlwDaLX/+z//CcDj4u/+1VblDoOLr1u9u219a5m3yF3/LdvuFOvbHHd+vBnAEfd7dK4acQZCv+Lg0uzRa856C9tbDpzwV38ZLcrFGHIrIfuc3mlUR52vC6AaOJYz5pj1FF36Jh5BuPl/XGrvF4XBQw75GWLh1X66+N5HwDYeH76oe8j3gLkGgEU/vZv/9ZIJvx6VUz8ATd4mHgp8vuHP/yhe+SRR8yDxH0ACDxLeKIog4eLwRJv0I9+9CPz6AAiKEsZ8pW45gEG5dHx4x//2D311FMGPigLiIHMgnwpytCmZIIevEfPPvusW79+vYXkNTY2Wn0AE64Bamj70qVLLaQP0ERbAS2UWbVKycxq28aNG21dLr+wM/2GCRHb4DVDB+UAY3jc0EHOFfrLysqsebQVQS+2A+RRL7lltItwRvqHbvoGHT4ba46Vlpb26TUl+oM+dOGpg7zj0UcftdBFPI/owSNJH2mjbxPtChIsECwQLDAWLdBt3piz7qgAVJUm3enyDLFWF7Tu6VqvC+8WoAGyiLbaBiPuqNeCyoS/ARw8IMCzdf797fI81bl8EUEQ2gYYA/sAMjrqmwzoQf7Q3tBs4GHiLIUnaswROrJ9hzwveKmQZCCQ85BIXPxkjzvzxocKHcwRCJtq3igYGzsUsUEbW0WM0agFhwGW5GqRs0U7IaKg7Uf+/SUjlyD3jcWbAUuUw/NzubpOzH8nzMPUeOyU1sZSJIbGJ3xIERHFBCP16NYaYIwNeJh6NAYCLs++9ZGB1EwxNWYWTLZ7M/In2pfLtl4btqt9bcpVbhDrIsCVdcA8iOxp73SVAlUf/s3/bqGQluMl/e2yKaCyUxEfHhDRlqazF9zhn/1edv/EnhmLW/u+YniAYYM8bXixPIsh9u4G6ImIpU30/LBDsvyA/ziLjfF8Ae469MxtwWtOBjELBAAW/iEEC4xgCzDJB0R873vf6+dJYYIPWGHPixug8MQTT/QDQwAgwABAID7xB6gAqABO/rwviz4PwLhGmB0he0OV9ToSzUj7ACiAQMAO+V1QxXMeYEc4H+fpI+1k80IbKAewwpPGveRTAZKojz4AbtADWKOPlAMEeaGcB0JxG6CXegGcsC5SF8Du/PnzVifXAFzUwTXuZfMAzuv3vwlxLJenDMCH9w6PHXUwCGE3znM8mJ28vrAPFggWCBYYrRbwE38Y+Ko+22+TbvrCgrwQVmRNnug6NUEHXADCbOFjgRlAQNzDw7tygoBEk9j8CIsjFBESimyFqnONtbDIKQJw4DEiDK5aa4exCHKfqBzeGQ0ORivvAUPf9d4DwFzT6fPu/JZtBnwAe4Ao6NYvV9e4y1WXIlCh0EHCH/vC+UBQEhggWbcMTx4gMUdtZLFlQAogs+VijdHzE+pXu/+IUfELQUU39+4AninSb/2mzRLGigblw9UdPm5gkhBHQjuztG6ZTogtsdrAKd4n+k+OVuI6aCyUDO17RMpx7cMf4YewOxq40r2qTP3KFAV+q7u4bZctrI3tALzo5bleIZxRoBKdiB/PUjU/wGvJ/ZSHzdK612sfyrYoBJR+8NwGew6UG48SANh4fOqhz6PKAkz0oTSPi5/M+z1AgYk/eUhx4bov489TFqDASzQuycpybqiy1wuv436AFV4lNkAX4l/gUd7VwDb6dgGgPMhkHTFAkb8frxJAB6Ee7JSs/1Yg4Q9lsYO/H13khyHeLp6Ig3PoH0x8G32fAFxsXrw+/zvsgwWCBYIFxqoFmLCT63RVk3cEoNUqTxXAC/CAdwmwAJixd2PCOOTtAjATfOLlKy+PvGbyVpnoN7T2eLUmpOWYNykFMsTEd7T0esCgi15tvz3AyACM2gOYwdsF2QblrQ4ttAygGqydAIo09Rft3QIYzfLwCbFE92t8Acik9BJxAHgGtFElk+nmHIQX5jGiX/p9ueaSebt0S6xtyj3Ttf4jOSUkXkdabvTb//Xlte9rj+rACwYYBEyhkP4DUNFt1ovZl2fI7RNnl1oeW8GiuW7Gg/e6TIEwL9zfpjY3C+B2yEsJQPYeN19mvO+vzRLGuyVC/4MFRrAFAAvXE0DCUEAhfv+tKhuvg+N4PYCcuDeIPl3VgDyU+P4wIHGvB3ycj+6/NrDG6xpKp7/mdfMb/Xjr2CfT7e9Jtvd62HM/bWSPcM5fT3ZvOBcsECwQLDBsFrj2Ohw2lV9Ikd5/va9Am8j3aPIdvQd1XqDHvGW+wGAVoINrvOs7uT8aK+zdavqpI3rP2t8k+q4mOde/ut772Wk8IvyvXzupR+/zIYUy3K6PerBB0l4QDG0zkoveNgzWxkF19+o1Q/azQaQ30n8Dbeutf9B64heoMzJJZAflzvG/qD/sovDOdIUZ5s2Y5hZ8/UnLv8sUEcnEhGUDCE+s+fyIrf9G+KN/VvHqxvtxAGDj/V9A6H+wwDBawIMNv4+rvhEQGS8fP0Yf25fREdeXeIxuH1KYeO1mfvt++/3N3BvKBgsECwQLfCkL9E6ev5SOYb7ZQIiL8p6+kGpAQao2+cO+tHh0EVcUISOFK1LPF28nQO2WmX84bRDv+xDHBpi8bWLl8GxBHjJ54Vw358lN5gGLXe47xKMI+UbdkZMR66LG2CD9LTAM/6L7Kwy/ggVGqgWiSXH0EghfY4b3KXkAQzgeApjh+FYBpuFt/XjXNnBgDGPleP83Efo/Wi1wy0DAaDUI7QbACCAlknHADhjmAjf7YBXpIbBqa4INMVDAcnnxk11afFkArNf+N1vTsJfXfxxg8JHy30jwgA37Ew4KR6oFotCw6JtD8FAM31PCloTvwaAIMQaMgrArQjEPoQUv32Dv4bP38GuKng/PyG+sgRYkWCBYYPRYgPdsWpryjAQ0FEwX5e2Mnubfmpb2vsYIYYQwg/wuCC0gCiEnC6IM8pzITRs50/JbY4ph1apvdoQV9mA7CccQl0A+0qX88rpDx43FsklEIld0zsDasDbg5pT50awHwKj/PvjvZCQA7wDAbu45htKj1AL8xxYx0kVrknjiBLoTAMIXf6hM2PFywcIIpTsU9RCGYGuo3CHdAPgGT9gXt/HtutP/N8F/D6lKPg8SLBAsMHoskCLyh6ysbIV7aXHcq/2Zb0dPL4a3pX6S3dXSYqyK0KFDkw5YgHyj9uBR1yEad35HoZLDW/+Y1KbxAXtB898opkpo8gFexvzY0OiaRWRy9u2t7sJ72y2nLj03ewSYQR8Z1YpOAW3IRmB3TtW85E5LGGXv9BMI9d8WC/AixkuTni52JoEGmPk8A95tacAYrQRbQtHOWlzf+MY3zK6EH2JvQBishZBnUCbIyLYADJI8J0+dP7JbG1oXLBAsELcAH7qyczTZzdRyGPKAEWd1C7OS4lWP2GMPwGBgZH2r6j0HbQKuSQBfXl2XmAs7jc6+s99ixSO2QyOgYYRtdsvLVbv/qNtT869aPy03ipzQh1io6vEossxAt8YTs7/sfKfFoJYe+eUr3S5L/51kiZE5vjj1nWpfAGB3yvKh3ttqARj4WE+rQAsa8qW/oqLCVVdXW8gcLwmARJAvZgEAF54vQg49AyD2ZMPWAN1g3y9m29txF/9tIKyD1tDQ0Lu+Ws7tqDrUESwQLDBMFuADY3lZmdtXsMfVXhCduiab4g4cJu2jVE3v5J8FgjsaRYUuj40GI3UGUAD1eqqt72Vrho0AoDAqrCw7AbTaLtVrja+qyHtoGEt/dI1cuz4K/RFgU5p2+WqPq+3pcI2dbW6KFrOeN3euy8m582NcAGCj4l98aOSXtQBeGLw0M2bMNJBw6NAhW4iXnKUQIvflrAuABYSxDlmQ0WcB/v0DlPft22cLXRNKWlBQOPo6ElocLDCOLcCi9Peuudd9vHOHO7R7j6vqanfFadkuy9alAm6MXyHsLDVVixVr7bEgw2ABjfmsUWbrlA2DululAvCFF7iyp92d6GxxguBueul0t3btWjdZ64reabnzQZB32gKh/nFjAYghFixYoFylZe7o0WNu7969Fh5HyFWQYIHxaAHAV3Nzszt16pQ7cuSIhR8+/vgTbubMmePRHKHPwQKj1gIQHq1fv94tnDePAER3vLPZXexqc6lMls3jM2q7FhoeLPCFLMC/+3R9gKjsbnPHFZgLUdiiBfPd/PnzjSjsCykdxpsCABtGYwZVI98C/If3wAMbXH19ndu/f7998SfvxYdhjfwehBYGCwyPBfBc8lGisrLSffrppxaSO21aqdu0aZObNm3a8FQStAQLBAvcFgvw33NhYaFbsnCRm6EPKGdchzvV0ey6esPrLUrstrQkVBIscOctAPjC69t6tdudaW9yFa7TLVm5wq1YtnxEgC8sFADYnf93ElpwGy1QXl7mHn30UUe4xvHjx23ieenSJfOE3cZmhKqCBe64BZiwEZrLfwdvvfWWheIuW7bULVu2zAhr7ngDQwOCBYIFbtoCSxYvcRsfedg15KS5Y20Nrqa7w3Up9Cp4wW7alOGGUWwBPL8dyv06ptDDo631rk2LeW9++BF3992rRkyvAgAbMY8iNOR2WKCwcIpbtWq1W7lypWsRNe1Pf/pTt23bNiMfYDLKFiRYYCxbAOBFAjJ5e2+88YZ74YUXLP9r7dp17mENUCEkdyw//dC3sW6B5ctXuGef/YornTHDnbra7t5svejOdl4WBLvq0vTfvpYeHusmCP0bxxYAeGUo7LBFJDRHOprcWw3nXH1uus35Nm3a6BYoCmqkSJhtjpQnEdpx2yxAfsuTTz7p8Hzt2LHD2BHxiK1atcpNUmIm4YiexS+w9922xxIquoUWAHSxIfybbmpqUh7kUffLX/7S/hsoKip2zzzzjNuwYcMtbEVQHSwQLHCrLVBcXKQw+wfc4w897F7saHe7z5xzEzvSXYr++5+alilSjgDBbvUz8Pr11rVDcQL7U2F/iy3QrfGtRWGHxwW+9nQ0uJPp3W655nZf+8pX3coVK0dUdIfxD/9nyS22SVAfLDBiLMBEdJnigPGGQT6wa9cud+zYUaPfhhWRBYQ9ABsxjQ4NCRb4ghb4/9s78yA5izNPZ0stte6zJaH7FjpAgC5uEKfBGIwRxsd4xuMdXxuzf3jsjYmZv2bWG+HddUzEbIx3wjZ2xNrja2YMsQibAWxxS5wChMQldN9IIHTfUmvzydLXqm5166KP+r5+EkpVXfVV5pvPW1Lnr9433+TzTrEN9nsR4aXi4dNPPx1+/vOfhyeeeCJceOGF4dvf/na4/fbbY5XQ4ec5im+TgAQqhUD3eM7RzJmzQpf4933psqVhxa7tYcvhfaEmfrnYq6o69K6KgqxT/HeBL2XS/0gF/2tJArBNEcd4n778knOrfcI6x4gXka+6+BdwWyw3v+TQjvDEjo1hbfXRcNnMmeFrX/1a+PMv/3k6LqdS/o5iR5LncbGpPK8kr2hLmxAgAvbII78PP/3pT0NWlp79L5ThHjt2bKoEhxhj4UpULIsgtIlxDiKBj0mAf9br4uGYHLBMxGvDhg1h7dq1YdWqVWHhwoXpyweK0txzz7zwhS98MYqvYR9zRN8uAQlUEgEqmz7wwG/DQ/H33Nplb4c+ew+FYdU9wohuvcMFXXuG3p27hJoTi9e0GEx/VNIM8mkL++3Yf7QpVt+ri/8O9+7UJfSLZfBhTSqorQUIRIyQPBb/PFB3LOw8ejhsObQvbIiRr83HIvfafmHq7JnhTz77ufCJW28Nw058ucjvxUpZyynAWuBzYBf5JnD//fenvWBLl76R9sWMGjUqXHnllWHWrFlh0qRJqWAH+2KIItD8vqJl/N34H0G5tgxXeoEtPKnwuWvXrrBp06ZUcGbx4sWp3Py+ffvSOXjf+c5/Dbfyy2mY4qvl6NuTBCqHAMdM/CT+jnvo4fnhrXfeDvvjFzJ9QjwXs64m1MZIWO9O1alUdwyInfhKvnJsz6slXaIA2xX3IL12eEc4Fv8dvqBTTRjdpWfoGVkjGGwtQCBihOWR43VhZ2T9ft2hsKnqcNjf6XjoG7eUXHP1NeHuT38mfO5z91XsvmYFWAt8Duwi3wR27NiRKsGRivj884vC66+/HjZu3JiiXn36xF9VMY0D8dVYMOR71u1vPTwRtkQXDx06lFLjMpHb/tbl3wIEGBEwRBhRsMOHD6dzUPhiofQFw+z0BQOlq+Wef387Awk0R2Dbtm1h85bNYe26deGleOTEi4sWhWUvLQ67D+xLcoC9KAa/mqN3/s8fj7/baFWx4JGt5QkgZY/GG8UsBg6oDTOuujxcGY8ZmhMPJB85clQYPGhQ+p3X8iO3TI8KsJbhaC8FIMAvKQ5nXrz4lSTCiBrw7SELWCrGGaFpGScjvBAGRGG2b98e+R4NtbUD0xk2PG9rGQJwRtwicql6OHLkyJReO3v2nLg/ZGYYOnRoywxkLxKQQC4IsP+T8y/5svGNZW+E7fHLx0Px9xvP+29vy7mQf3N37dwVXnnppXAssh0aMwzGjh8XevXunVi33Egdtyd+v3HjC/Kecc/jkNrBYcZll4YZM2aGiRMnNgDD2o1rK60pwCrNI9rT7gT4y8r+MPbLcNu/f1+KHvBLyvbxCfAPJhEv2D777LNJ9H7lK19JUZkDBw6kARS7H48zv2yIatXUdAu9evVKhWWmTJkahgwZ/PE69t0SkEChCBAZ58swf7+1nFupprx06dLw5S9/Oa4f9sdjAT4VvvrVrwb23PKz7eMT4HccQpcK1qwp8tjyaXUeSWtzbgjwF3tQDF3zF3tsLMaRfTuoKGgZF/KPJr+ESPXkEGB+Uc2ZMyfMm3dv2q/UMqPYSybC+OVUU1MTesdvX20SkIAEyglQZIqbrWUJUMCrurpzykLo0aN7+hKMNQU3mwQgoADzcyCBZgiQtsXN1joEtm7dmqIz9H7BBUPTY6I1NglIQAISkEARCFRVlYpuVGAGXBHw5noOpbJuuZ6CxktAAnkjQNoLt2PHSnu+eGyTgAQkIAEJFIFAljETdzSkVld34kERJuccWoSAAqxFMNqJBCRwfgT8pXR+3HyXBCQgAQlIQAJ5JaAAy6vntFsCEpCABCQgAQlIQAISyB0BBVjuXKbBEpCABCQgAQlIQAISkEBeCSjA8uo57ZaABCQgAQlIQAISkIAEckdAAZY7l2mwBCQgAQlIQAISkIAEJJBXAgqwvHpOuyUgAQlIQAISkIAEJCCB3BFQgOXOZRosAQlIQAISkIAEJCABCeSVgAIsr57TbglIQAISkIAEJCABCUggdwQUYLlzmQZLQAISkIAEJCABCUhAAnkloADLq+e0WwISkIAEJCABCUhAAhLIHQEFWO5cpsESkIAEJCABCUhAAhKQQF4JKMDy6jntloAEJCABCUhAAhKQgARyR0ABljuXabAEJCABCUhAAhKQgAQkkFcCCrC8ek67JSABCUhAAhKQgAQkIIHcEVCA5c5lGiwBCUhAAhKQgAQkIAEJ5JWAAiyvntNuCUhAAhKQgAQkIAEJSCB3BBRguXOZBktAAhKQgAQkIAEJSEACeSWgAMur57RbAhKQgAQkIAEJSEACEsgdAQVY7lymwRKQgAQkIAEJSEACEpBAXgkowPLqOe2WgAQkIAEJSEACEpCABHJHQAGWO5dpsAQkIAEJSEACEpCABCSQVwIKsLx6TrslIAEJSEACEpCABCQggdwRUIDlzmUaLAEJSEACEpCABCQgAQnklYACLK+e024JSEACEpCABCQgAQlIIHcEFGC5c5kGS0ACEpCABCQgAQlIQAJ5JaAAy6vntFsCEpCABCQgAQlIQAISyB0BBVjuXKbBEpCABCQgAQlIQAISkEBeCSjA8uo57ZaABCQgAQlIQAISkIAEckdAAZY7l2mwBCQgAQlIQAISkIAEJJBXAgqwvHpOuyUgAQlIQAISkIAEJCCB3BFQgOXOZRosAQlIQAISkIAEJCABCeSVgAIsr57TbglIQAISkIAEJCABCUggdwQUYLlzmQZLQAISkIAEJCABCUhAAnkloADLq+e0WwISkIAEJCABCUhAAhLIHQEFWO5cpsESkIAEJCABCUhAAhKQQF4JKMDy6jntloAEJCABCUhAAhKQgARyR0ABljuXabAEJCABCUhAAhKQgAQkkFcCCrC8ek67JSABCUhAAhKQgAQkIIHcEVCA5c5lGiwBCUhAAhKQgAQkIAEJ5JWAAiyvntNuCUhAAhKQgAQkIAEJSCB3BBRguXOZBktAAhKQgAQkIAEJSEACeSWgAMur57RbAhKQgAQkIAEJSEACEsgdAQVY7lymwRKQgAQkIAEJSEACEpBAXgkowPLqOe2WgAQkIAEJSEACEpCABHJHQAGWO5dpsAQkIAEJSEACEpCABCSQVwIKsLx6TrslIAEJSEACEpCABCQggdwRUIDlzmUaLAEJSEACEpCABCQgAQnklYACLK+e024JSEACEpCABCQgAQlIIHcEFGC5c5kGS0ACEpCABCQgAQlIQAJ5JaAAy6vntFsCEpCABCQgAQlIQAISyB0BBVjuXKbBEpCABCQgAQlIQAISkEBeCSjA8uo57ZaABCQgAQlIQAISkIAEckdAAZY7l2mwBCQgAQlIQAISkIAEJJBXAgqwvHpOuyUgAQlIQAISkIAEJCCB3BFQgOXOZRosAQlIQAISkIAEJCABCeSVgAIsr57TbglIQAISkIAEJCABCUggdwQUYLlzmQZLQAISkIAEJCABCUhAAnkloADLq+e0WwIFIlBVVaDJOBUJSEACEpCABCRwGgIKsNPA8SUJSKB1CRw/Xuq/S5eurTuQvUtAAhKQgATaiEBNTU3o1KlT4MvF7PdcGw3tMDkhUJ0TOzVTAhIoIAF+QR2Pv53Wr18ftm/fHnbv3pVm6S+sAjrbKbULgVJ0uSocPHgwHDhwIC4IqwKLw+7du7s4bBePOGjRCfTp0yesXLki7N27N9TV1cXpnvimsegTd37nREABdk64vFgCEmhJAtXV1UmALVq0MBw5cjgtEluyf/uSQEcngODii473338/bN68OXTuXB0GDaoNw4YNS2KstEDs6JScvwRajgBfbmzYsCF8+OGHoX///unvWcv1bk9FIaAAK4onnYcEckegKi4GO0XhdTQsWLAgLF269MS3hbmbiAZLoKIJIMIOHNgf9u3bXx8B69GjhxGwivaaxuWVQOfOnePftX1h585dSYCZ0ZFXT7au3Qqw1uVr7xKQQBME+Ea+tnZgmDlzVko9PHz48Il8eatxNIHLpyRw3gQQXywIV6xYEbZsWZ36GTVqZBg1alT6O3fs2LHz7ts3SkACzROYMGFCGDt2bJg2bVpK+W3+Sl/piATSaifuwTBBtSN63zlLoB0JsPA7evRojIAdaUcrHFoCxSZAmm+3bt3CP/zDP4S///u/SxGwr371q+F73/sfoUuXLqb9Ftv9zq6dCfBlI38H+bvGlyE2CWQEjIBlJLyXgATalADfynOjIIBNAhJoXQIUBsj2g/Xs2av+G/levXq17sD2LgEJJALEOhRhfhgyApahz0h4LwEJSEACEigogUOHDqWZsQik4I1NAhJoWwKKr7blXemjKcAq3UPaJwEJSEACEpCABCQgAQkUhoACrDCudCISkIAEJCABCUhAAhKQQKUTUIBVuoe0TwISkIAEJCABCUhAAhIoDAEFWGFc6UQkIAEJSEACEpCABCQggUonoACrdA9pnwQkIAEJSEACEpCABCRQGAIKsMK40olIQAISkIAEJCABCUhAApVOQAFW6R7SPglIQAISkIAEJCABCUigMAQUYIVxpRORgAQkIAEJSEACEpCABCqdgAKs0j2kfRKQgAQkIAEJSEACEpBAYQgowArjSiciAQlIQAISkIAEJCABCVQ6AQVYpXtI+yQgAQlIQAISkIAEJCCBwhBQgBXGlU5EAhKQgAQkIAEJSEACEqh0AgqwSveQ9klAAhKQgAQkIAEJSEAChSGgACuMK52IBCQgAQlIQAISkIAEJFDpBBRgle4h7ZOABCQgAQlIQAISkIAECkNAAVYYVzoRCUhAAhKQgAQkIAEJSKDSCSjAKt1D2icBCUhAAhKQgAQkIAEJFIaAAqwwrnQiEpCABCQgAQlIQAISkEClE1CAVbqHtE8CEpCABCQgAQlIQAISKAwBBVhhXOlEJCABCUhAAhKQgAQkIIFKJ6AAq3QPaZ8EJCABCUhAAhKQgAQkUBgCCrDCuNKJSEACEpCABCQgAQlIQAKVTkABVuke0j4JSEACEpCABCQgAQlIoDAEFGCFcaUTkYAEJCABCUhAAhKQgAQqnYACrNI9pH0SkIAEJCABCUhAAhKQQGEIKMAK40onIgEJSEACEpCABCQgAQlUOgEFWKV7SPskIAEJSEACEpCABCQggcIQUIAVxpVORAISkIAEJCABCUhAAhKodAIKsEr3kPZJQAISkIAEJCABCUhAAoUhoAArjCudiAQkIAEJSEACEpCABCRQ6QQUYJXuIe2TgAQkIAEJSEACEpCABApDQAFWGFc6EQlIQAISkIAEJCABCUig0gkowCrdQ9onAQlIQAISkIAEJCABCRSGgAKsMK50IhKQgAQkIAEJSEACEpBApRNQgFW6h7RPAhKQgAQkIAEJSEACEigMAQVYYVzpRCQgAQlIQAISkIAEJCCBSiegAKt0D2mfBCQgAQlIQAISkIAEJFAYAgqwwrjSiUhAAhKQgAQkIAEJSEAClU5AAVbpHtI+CUhAAhKQgAQkIAEJSKAwBBRghXGlE5GABCQgAQlIQAISkIAEKp2AAqzSPaR9EpCABCQgAQlIQAISkEBhCCjACuNKJyIBCUhAAhKQgAQkIAEJVDoBBVile0j7JCABCUhAAhKQgAQkIIHCEFCAFcaVTkQCEpCABCQgAQlIQAISqHQCCrBK95D2SUACEpCABCQgAQlIQAKFIaAAK4wrnYgEJCABCUigaQI9evRIL1RVVYVu3bo1fZHPSkACEpBAmxCobpNRHEQCEpCABCQggTYh8NFHH4UVK1aEw4cPhy5dqkNNTbfw1ltvhrq6unD8+PGwatWq8OKLL4TOnavDoUOHQnV15zB27LgwZMiQNrHPQSQgAQl0dAJVAIj/IB/v6CCcvwQkIAEJSCDvBPh1/vjjj4e/+qtvhc2bN6doF1GvgwcPhv3796fp1dTUhJ49eyYxhijr3bt3+O53/3v40pe+lPfpa78EJCCBXBAwApYLN2mkBCQgAQlI4MwEEGAHDhwIW7duDbt370m37F1Ew3h979596ZY9v2fPnrBv377sR+8lIAEJSKCVCSjAWhmw3UtAAhKQgATaikCnTp1Cr169wrBhw6LI2pvSDomAcaNxjxCjHTt2LHTt2jUMHz4i9OnTJz3nHxKQgAQk0PoELMLR+owdQQISkIAEJNBmBIYOHRomTpwY+vfvnwRYcwPX1R0Pffv2DTNmzAgjR45s7jKfl4AEJCCBFiagAGthoHYnAQlIQAISaE8CF1xwQbjzzrvC+PHjY8ph2ufdrDm1tbXx2jvDhAkTmr3GFyQgAQlIoGUJKMBalqe9SUACEpCABNqVwIABA8Idd9wRLrroombsOFl3a+zYseGWW24JiDabBCQgAQm0DQEFWNtwdhQJSEACEpBAmxBgHxgl5adNmxYmTZqY9nmx3ytrR48eS3vBEGiXX35FSlXMXvNeAhKQgARan4ACrPUZO4IEJCABCUigzQnMmTMn3HrrrfEcsJq4F+xk1Iu0RMrPX3fdteHGG29KAq3NjXNACUhAAh2YgAKsAzvfqUtAAhKQQHEJzJgxM3zqU3eGfv36nTLJHj16hGuvvTZcddWV9RUST7nIJyQgAQlIoFUIKMBaBaudSkACEpCABNqXAJGvCRPGh4svvjiKsL4p6nXkyNFQWzswXHPNtWHcuPHta6CjS0ACEuigBBRgHdTxTlsCEpCABIpPYNCgQSkNcerUqfHcr7o04VGjRoe77rorlp4fVXwAzlACEpBABRJQgFWgUzRJAhKQgAQk0BIEevbsFe6++zNh9uw59d0RFfv0pz8dhg618mE9FB9IQAISaEMC1W04lkNJQAISkIAEJNCGBDp37hxGjBgRrrji8vDcc5eFLl26huuvn2vZ+Tb0gUNJQAISaExAAdaYiD9LQAISKBiB47Hs3Z49e8LOnTvD7t27w6FDh9J+oIJN0+k0QYCS9N26dQubNm0OvXv3DkTE+By89tproVOnqsCeMFvxCfA56NKlS+jTp0/o27dvuvGcTQISaB8CVQwbfzmfrE/bPnY4qgQkIAEJtBIBFtyLFi0KCxYsiPcL42J8Uzhw4EArjWa3lUagqqoqiW6EN4+JgtXUdK00M7WnFQkgwtkPyLlvN954Y7oNHjy4FUe0awlI4HQEFGCno+NrEpCABHJMgO/WlixZEn7zm9+El19+KWzZsiVGQ2rirbtnP+XYr+dqOp+Drl27xluX+IVriFGvI+kWv36NXaVlwLl26fU5IoDoPnLkcNi//0AS4v379w8zZ84M8+bdG9NRr4+RUCNhOXKnphaEgCmIBXGk05CABCRQTuDYsWNh+fLl4aGHHgr33//jWAHvWJgyZUqYO3duLE0+IbAIo5XyH0yCKGfnYwkUgQDCC/HNPanHa9euDQsXLgzLli1LX8wcPXosnRFHhUyOLLBJQAJtR8AIWNuxdiQJSEACbUZgx44d4W/+5m/C/PkPpajX17/+zfiN97y04CId6eS33oqvNnOKA0mgXQhUpT2fhw8fTntBn376qfD9738/bN++PZ4Hd034x3/832HMmDHtYpmDSqCjEjAC1lE977wlIIHCEuDb7sWLF8eqd88FFl1f//rXwz333BMuvPDCws7ZiUlAAmcmwD4wvoDZtm1bjIz/JEXEXn/99TBw4IBYpKXPmTvwCglIoEUImPjbIhjtRAISkEDlEFi/fl144okFYceOj8KsWbPCX/7lfwmTJ0+uHAO1RAISaDcCw4YNC9/85n9O+78OHjwYnn9+UUpXbjeDHFgCHZCAAqwDOt0pS0ACxSawceOmuKh6Ph60OzTMmTMnDBgwoNgTdnYSkMA5EejXr1+46KJpYfTo0Wk/GPtFbRKQQNsRUIC1HWtHkoAEJNAmBHbt2hnWrVsXamtrw7hx40J1dec2GddBJCCB/BAgEsZt69at4YMPPsyP4VoqgQIQUIAVwIlOQQISkEA5AaqbsfeLQ3fZ11FXZ6GNcj4+loAEQujevUcqykOFVI4msElAAm1HQAHWdqwdSQISkECbEKD0dF1dXap0eLLaYZsM7SASkEBOCPBvQ1VVp/RvxfHjdTmxWjMlUAwCCrBi+NFZSEACEjiFAELMJgEJSKApAvz74L8RTZHxOQm0PgEFWOszdgQJSEAC7UbABVa7oXdgCeSIQDoWNkf2aqoE8k1AAZZv/2m9BCQgAQlIQAISkIAEJJAjAgqwHDlLUyUgAQlIQAISkIAEJCCBfBNQgOXbf1ovAQlIQAISkIAEJCABCeSIgAIsR87SVAlIQAISkIAEJCABCUgg3wQUYPn2n9ZLQAISkIAEJCABCUhAAjkioADLkbM0VQISkEAeCViJMY9ey5fNfsby5S+tlUBHJ1Dd0QE4fwlIQAISOH8CR48eDR999FHYtGlTOHbsWDz8uXPs7Hjo0qU69O7dOwwfPiI+7nLaAfbu3Rt27NiRbkeOHDlxOOyx0KdPn3DBBReEnj17hs6d6bfl2/bt28O6devSeUhVVaVS3AMHDgzcGDd7ruVHLmaPHAC+efPmsHPnzoAv+Rn/9+rVKwwePDjdn8/M+Zxt3bo1vP/++/Fz8lHqgoOEu3XrHiZPnhwGDBiQntu1a1f6PO7evTvwHq6pru4camsHhaFDh9YPzWf1nXfeiZ/bjfH16vjZrYt91YSRI0clO/G9TQISkEBrEVCAtRZZ+5WABCTQAQiwyF2xYkX47W9/Gw4c2B8X212TmOnevVsYP358uO++zyUxczoUGzZsCC+99FJ48803A2KMBfGhQ4fCxRdfHO64445QU1PTagJs+fLl4de//lUUC0fjGCSFVIXLL788XHXVVWHs2LHJltPZ7msNCSC6XnzxhfDGG29EoVQSYX379k2fhRtvvDFMnDix4RvO8ic+D4sXLw5PPfVk6pu3IewQ6N/61rfqBdj69evDyy+/HN56662wb9+++NnpmkTa9ddfnz5L2XCHDx8O8+c/FH7/+99Fod0rfd4GDRoU7rlnXrjmmmuS+OZaImuItewx94hyhB03mwQkIIHzIaAAOx9qvkcCEpCABBKBbt26pcXrE08sCB988EHo2rVrep4F7tSpU8NNN918RgHGYvnBBx8M7777Tti/f38SW0QyWPh+9rOfre+zNZCzYJ8//+E0B4QfQbBOnarCuHHjwqhRoxRg5wgdQb5s2bLwhz/8IWzZsiVyPRwGDaoNM2bMCBdddNF5CzD63bBhYxTpb4VXX301WdW1a5cUsdq9e0+9lUTJXnnllfD000+liGr37t0Dt9ragQ0EGJ+tNWvWRLH2Soq0Hjx4MAwbNixcccWV8YuEA/X9MYeXX34pECk9ePBQ+mwQbRszZly49NJL0pcD9Rf7QAISkMBZElCAnSUoL5OABCQggaYJEO2qquqUBFhd3fH6i4geIHCIepwulW/VqpXhhReej4vcUmpZfQcxlZE0xNO99+S15/doz549YePGjQ3ezCKe6Anpc7ZzI4DPP/xwe/L7++9vTW/et29vSv8rFzbn1mtIvtizZ3fs+8OwZ8/e+rd3794jHD58qP5nBPy2bdvC2rVrk/jjBYQaAqq8YScin8/rzp270kt8gYDfEXtZ++CDbWHBggVh5cqVcdw96cuB0aNHxyjZtWHKlMkKsAyU9xKQwDkRUICdEy4vloAEJCCBxgQGDqwNc+fOTdGrVatWxahR57iIJW2rKka13k0CjEVrU41IGXuGEF9EnlgYE1UjAjVt2kX1qWBNvbclnmNvGamH7AHKGmmUPN+awi8bq4j37P8jbTT7HOBPIqMfN2WPCCX9Zo3++bm077D0LGOQmliKzB5O4ovHjfch4lv8TONzhxDjulIUtLQXkNd27dodI3pvxtvSlFLJmIi54cOHNxBqXGuTgAQkcLYEFGBnS8rrJCABCUigSQKkZF1xxRXhtddeDQiwrB05cjgVOrjkkktCUwKMfT3swSLilLWov5L4mT79knDhhRdmT3vfwQkg4Iikspdr2LChSagjlijsMXjwoHOmQ398Znft2pmEF1E0vkjgM8eetawxBumKfFFA44sFImR8UdBY1GXv8V4CEpDAmQgowM5EyNclIAEJSOC0BEgTZI9PeZU53kBBhnfeeTulozXVAQU3li5dWi/AShGn4ykKwf4aqttljb7Yp8PCl8haqdJil/rISnm0itRBFsm8h8Uzr/E+olrsBzrXSAzvZQFOn/TNz/SR9YeNzIX0N647frwuvlYdF/Y1sepf72Qj15ypIUhJ02Oe2E4/pHay0MduqkqeznZs473YWT7nrKIftlEdEDtpWaXHcrvogzQ8rqEf+GXzzSJLVDREmJxrgxcNVoyBPYxHX8yvb98+iVtT/XINRVG4fuzYMdGmEN/XOaWoIpzOtdHfJZdMTz7ErqNHj6QKjRMmTAg9evRIc+ca0hSZP49pRMto+Irqn7DgMX6BFcy4vtSIslWnSBu2NtV4b8nXx9P78Bt9IRAVeE0R8zkJFIPAuf8LWox5OwsJSEACEmghAiwWJ02alNKySOdjERn/PyHA3onFE9Y3ORKLcFK7sggY76Ox8KQCIothGgta9udQJZHFKgtUnqNoApE1BGC2uOd6Fvb0yd4uyqHzGgt3IhsIRRb759JYWK9fvy71uXdvaW8Y4goBM3nylDRfqjhS1px0ykOHDiabEAyXX35FEg4wOlNjnxF9EEUkzY1+eN+QIUMS3zlzLo+PL0hsG/fF/BBNvJ+5Ixiwu1+/fmHWrFnJRvp97rmFSRQj7r74xS8G+ixvvHfp0jcSa/ZGsX8LUcFeq9ra2jQX+hszZkz5287qMSIEvy1atChVKaSk/MGDB1IFQz4/7Kui8ElTDZ/jZyoVZo05IkrL0xKz1850jx1UPySCxueNOSK84AU3PjvsN4MFe894jo8nn1E4r1+/IVZ7fDHtN2MPJLaRrthwP2FVrNI4JP29gB1zKG/4bPXq1am0PkKMn5kTgpkKolR4tElAAsUkoAArpl+dlQQkIIE2JcDicty48TGFa3KsLrc6LWhZtFKIgTPCiOw0Fj4sZClX/v77W9LilgVoVr5+6NBh9fazOKZC4o9+9KO0GEaU8NwNN9wQ7rzzrrRwLhdgpcjaG6kSHymOXbvWpEUzgo6FbWM76gdq5gGCDoH1/PPPp2je4cNHYrTvgiQSX399SYqELFy4MM0zEyyIAgTaE088kYTFJz/5ySSkskhK+VAIy8cffzxVD9y4cUMqCrF/f6kYBPMiykJfDz/8u3D11VenMumNy7nDDsEwf/78ZCdiAnEzZszYxGft2jXhgQceCGvXrksikfLs1113fRRgJUtWrlwV37cozXP16pIAPHDgYBSzJWGASEEY9O8/IPzudw+Hyy6bET71qU8lwXQmcZn55oknnoyi5aUoAp9L529lBS/Ye4WwonLiVVddnaoVEk0tFyz4gOqK+ACfZhFQxClsEDjn0hDyzz33bBqzR4+eSbTTx913350iuVQ/fOyxx1JJe4QinzfsQYARRXzjjSXxflcSxtOmTQtXXnllEpW/+tWvk23sS+PaqVOnhGuvvS7ceuutKdWx3EZsoPonc+KLC8bA1+x/nDfvXgVYOSwfS6BgBBRgBXOo05GABCTQXgSIYhBhQkSweCfKQEOEcdgxC8vyxfrOnTtSdbkdO3alBSiFMIhq0QeRiKwh5NatWx8FyPwYiThZLIOF85VXls7ryq7lHrFHZOHJJ58Mb7/9Tv1LK1euCH/9139d//PZPmBh/Pbbb6dqeCtWrExv69+/XxIyLKIRmAiY5hqFSIj+fOITt6X5ZdfRL5G9hx56KPzwhz9M/WWvNXdPxJCFPwv0ESNG1F+GAEMYLFq0MDz99DP1zw8cOCCJztdffy2e1fZA/fMs+BGqNMQexwj87Gc/S1Gd+otO8+CZZ55N/r3zzjvrI5XNXY5tRCIfeeT3MTq3LX0Wmrv29ddfTxGpm2++OZaYH1l/GQKM4woQRYj2rI0YMTyK8DvD9OnTs6fO6h6/IXwee+zx+uv79Okd95lNiJ+xo6lEPWeEbdy4KQqvhud+IRwpfb969Zrw3nvvJeHE2XFUX0RIlze+OECIzY1FahCa5e2jj7an6xHvWevdu1dg7plvsue9l4AEikVAAVYsfzobCUhAAu1GYNKkiTEycmn4j/94JNnAwpP24YcfpL1eRDmIVtCIfiHK2GNT3hAVc2JYhtSy8kYUhajS/v0nz2giKlMeJcmuZ1yuz8ReVuWOnzObsmvP9p7IVen9pESGtIeJ86YQmaSPNW6MyVi8vmTJkvC9730vRjSGNhBgRFm+//3vhz/+8Q9RiG1LC32up//Gjf54jTOwKIdOVO+2225LKYHZtYzXeM6IhZ/85P5kL+7gGir+wY1rGffpp5+OIvD/xYOOXzmtDYyDcENQbdq0Mfyv//U/6/dNZTY0vsdu7CXKx/sQUo1bxorXSaH87nf/W7rkC1/4QvJ55rPMB9n7saVUBbFhal/2+unu6ZPPDw0uMKevznHvHq/BGuF/poaQ4/pRo0anAh5ERhFifFHAvDZs2BDn9O4pfSGw3n13eRK/jMFceA9/R2644cYwZsyYMw3t6xKQQI4JKMBy7DxNl4AEJFBJBEaPHhNLx09Li/KPPtpRbxqLfPbSIKwyAbZu3dqwYsV79QtyFrw0BNjs2acKMBa5mdhiYVsSEXHl3ExreD2i4Vh8//mXls/6y2xALLDnh0Z0i/TGIUMGJxvZa7Vjx44YGaGQRlWc45EUIWOPF4f5sn8M4fnKKy+Hp556MqbUvZdEAGMgrBCf48aNjRx7p+tgxZ4wBMiRI0cjt5UpGshinX1mWeP9FO2gYWfnzlUpOrNmzdr0HH9knEn1JKVwx46d4ZlnnknRJSr8xS7SOEQgL7300pTah8jYvHlLimwiGmlcSzSLdEBSH6mEmbFJF5z4A5sQMogwXMyZXFOmTIkRzr5pP9/aeF4XkTuuQTQzP9IkSQ8kGsUeOoRSaW6lzwA20hfXl8Zs/nNQbkvjxxkr+mE+9AWfPn36xvTS6eHP/uzP4vl0L6bPKRE8xCN2sN+LFEnSbceNG5eib3W1aXEAABnFSURBVMyf/XmXXXZZSlvkLLRsPqTYcuvfv3+9CUQ+ieixp5DG2Agw/n4QTaPMvU0CEiguAQVYcX3rzCQgAQm0KQEWnIgwFqfsm8kiCCw2OUuJRXjWEClEBhAyNBa2cVkdBdjItEAv/Zxeqrg/WKRjX5cuVDrslkTQ9dfPjQvxi9NCmrS2xYsXp8IdmfFcSzRkzZrVaX6kpj311FP1aYeIK1ISBw2qjSmYM1MaGvubOMh6wYI/RrH2SkpLK0WLQhJNlPdnzxLvbY5XZifXYCv734j0sMCnfwTAm2++FX2zN9peEjgUK6Hvb3zjm0lQk6L48suvhEcfffSEX6nOWBJBiC8EIZHPxil22dy557PB2AjVW2/9RPycjEpRUFIZSaskjROumQ1E4yjIwV6zLFJV3l9rPEbU8ZlFTLFXkGIjjz76H+Gf/umfUgSRtFoiVQMG9E+pr1/72tdSERjEE3x5/pprrklFVBBgWUNgkoYK7wEDShFgomTsaWPPYNZiNylKSiovPrJJQALFJaAAK65vnZkEJCCBNidAEYGZM2elqMiqVavTgppF+ttvs8g/KcBWr17TIDWLBeeYMaOTmGlOTLT5ZE4zYBYtuvfee8N9990XozWT0sKdaBHRk5/+9Kfh/vvvb9ADYmptjPgQAXrvvRVpv1V5+iKLePb//N3f/X1arCNa2M82c+bMGPF6OPzsZ/83FeioqqpLe+yIbJGyR39c21RD1CBy58Y9SPfe+9lU2r9UNbJTLBAxLUZ4XohRsNIh2AgP2rXXXhvuuWdeuPHGG+ujNmPHjku2PP74Yw2GIZWUs7QyId3gxRM/wIp2xx13BNIKL7ro4lSRkojS7bd/MvzmN78OP/jBD5LAxPfc3nrr7fh5GFsv4plH67dSKXgEH4xoFIPhs5l9JrGDA5yJ4FGBk0qF2RcNpJgiwCiEUt5Im126dNmJz0hJgJXScqmwePLvxKRJFyYRr/gqp+djCRSTgAKsmH51VhKQgATahUDPnj1SqiHCAAFGI8hFFGzz5k0nfq5L+79WrVpZv3glekK0g9S7Sm+ZGKDSIOlit912ewOTKW2+cOFzDZ7jBxbbFG+gbdzI3qB3TpTVL4kOUgKJPsGCqEmW8kY6IMVJSul26e3pD4QT5fFJQ0T4Nm5E1LARprfcckss3DGvPgU0uxZb77nnnjQW+58ouT5u3PiUCkpJevxG+h33+Cube/Z+ClYgOhs/n72OMCOqRVollQKpBlldXdp7xTVES+fMuTxGu+anwikIThoppozPXinEUCaA0out/Ef5WPiiqgpxezLNkdcRaVk1zUz84r9JkyZHXzVMHzxwYH9Kwb3qqqui+LwoWc/cSElFwNLgN3Xq1Jj2eVnk07SYThf6hwQkUAgCCrBCuNFJSEACEqgMAlQmnDVrZtrbVG4RUQIWnGvWrEkLaoo4IEayxSYLXSJnRFoqvRGMYS8TZcubO6uJxTil3hFRWfCGhXv8P4lODvHdt29/Eiel50siheqNP/7xj5PgyCIrLPbhhqAqb5SZJ7rIGE01xsWOm2++JZWcz/bflV9LuhsRNxqHOJMayljsT6KKJEIB4UwVSB4jFPBZZhu2NxaGqbMTf5Rs6BFT+iYkYVcuvrLrqNSIMEHkwSQL5jEGe98Qnxmj7D1tdV+a56nRN4RlxqDcFuZCmuXIkSMSL15DZMGTtFwa/mIvXXmaIvObMmVqSv1kr6JNAhIoNgEFWLH96+wkIAEJtCkB0qcoTsD+nepqihowfCkNDnFBmXGKRxBVKW8IsBkzLgtjxowpf7piHyOK+vXrH0VWw9LimcFEk6gyiGiiuAKNRTY/E91iP1HWeB5hQ+EO9noRGaOV2JX2TyG2TkaHSv0hYLdseb/JKoxZ39hAhIxI1+ka55z98Y9/jP55LQkHRAMVFLkRhcoKjrCXrVQw4swVArPxiMLhVyJ5TTWKU3Cu2csvv9zgZSJrFHBB7GQFMxpcUIE/wIa9gG+99WaqhoiJpJny2UfA4n/2g1HevrwRTaOKaOPz3cqv8bEEJFAcAgqw4vjSmUhAAhKoCALsZaIsNwU5Nm/enMQGAoPoCsUVSNHKFvRZRGX48BHpet57Lg3x0h6NKAWisbnoD3ZlqWmN7WPOmd3cc+M5BBaCh3PTGjcqGlIhEeGHIEGc0Ehv4+fmGnb27duvPl2u8XUIYUTfgw8+kA4lLq+YmF3L+Vjsz2NMikecbrzsPeX3FK7o2bN7KmBR/nz2GI7sP2Nu5Y1xiBaR5hgR5aZNn35JihhyCDeNdMq6uqNRgL2fhBjnmFF0hDkhsnv06J4iv+XnnuVmshoqAQmcF4Fz+013XkP4JglIQAIS6GgExsSIByXEOZiWaA+LaQQYAou0OQo30BAeRGiookekpGVaKeJG363XSgUbmu//1LGxh/kTCcr2D/F+nkfIIUTY74TgYc9Rc/bzPGKI/VOUTG9O6NE3i/xS5cSmFcyyZcvS4dQrVpSOBCDCRWpdZhPHApAeOHv27LRv71e/+lUc+9wEEWX4t2//KKU4YlPjRoQQodVY2DEv9rZR9KI8Ytj4/ZX0M37kKIZp0y6q9wv8EWGkHSJ2iQJv2bK5XngTnbz66qtjSuugSpqKtkhAAq1IQAHWinDtWgISkEBHJYAAY9H+7LPPJAQsrtnPw4J/bawEiAijsTBFgFF6vVyUpBdP/IEYOH781CgPfZLS1VioUHWP860OHWp6b1R5323/uLRnqnfvXmkfWUlMHY0RoppwxRVXpip6lICnMbeSgOqcokOkE5YiZwjM40mwUrae6FFT+5FOzu1U8cW4mT9WrlyR9l5xPWKBEvVEca677tq0b4t9Tezhogz9r3/965PdnuUjSq2TdrdzZ8NDt7O3k+JIhcgsxTJ7HgGW7VsrfQayVyrh/lSmmVXYzR6wCRPGp2qXnP1GQ4BxkPZrr716IgJGH8fTHK+++qozpommTvxDAhIoBAEFWCHc6CQkIAEJVBaBESOGx4IC01P1u8yyLMWOfUukpSEuog6Ii/xxMQJ2WSr3nV1bfk/UqKnURPZAkRLXWICRVoeo2L27tODP0v3K+2y/x6XIGJEringggmhETjhHisOqb7vttlPMY47MC6GVpSwiyBCtpO4RQTrXhhAmKonQo2WRGsqh33ff5+Ltsw3O9urbt1SaveE4zQuRrM+DBw8ngbVhw/qGbz3xE8UpKFKBECtvRETZZ0cr+fjUqGL59W31OLOlufRT7GCfI18q8EXAhg0bE1vSDmG9YsWKtN8v+1xyPtiMGTOiECsdA9BW83AcCUig/QgowNqPvSNLQAISKCyBbt04dHdiOs9q+fJ30wKaBWd5uhzii0U/Amz69OnNskBg9OpFWl6plRaux+PCdn0qGvGJT3wieyndIyqee+65VHUOoVdJLROLiBkEWFaMBAHFwcxjYxXIG264oYEYpXgD82GfFtcjvIjuXXrppfEcrdtTpLG56GFzc8cOin7s3LnjRFQtEzkhps9NjYcl39JAfBHBWrLkjVPEbnP9Z89nvkI4Ll26NJ599kKK9GWvU+yDvtkXRXGSzF/dutXEz84FzUZFs/e33f1J8UfklVtTXwpk9vTvPyAd1kz1yJIA65REKCKM9FF4lNJOq9Ph4+PGjY/9NdwDl/XlvQQkUDwCCrDi+dQZSUACEqgIApz9RGnt1avXxJSrjcmmLGrAArR7924xVWtkup3JYM4Xo+Lg3r37kmBgoU5KF6XSER9UXkTccS4WYoXXSEVkT1MltVJBhrq0T4hDe9esWZPMy1I0n3zyibTvafLkC9MhyFTQe+2118Pzzy9K6WsU6WCeCJchQwantDUqT2bC7mznijCiRD23rPEc/WzevCWO+VqqyIdYeO+998IzzzwdzzZbmC5FNJ/LePiK6xctWpQiQByyTPl+Coi8++7yJDx37dqVrsn4XHzxxVFYzkpik0HPZbxsPi17X4r0wYgjBN58881YtOTxlJrJ0QujRo1sIJqp7Mi5X4888ki9GfiS+cEjE3AXXnhh/OxeWD/P+ot9IAEJFJpAZf1mKjRqJycBCUigYxEgQjBr1qyUcpWln2UCjIUoAo3X2XN0psa1o0ePinuV9qZ0O0QIi/bFixenCAopjwMH1qbqcxR8QHhVmvhijnV1x9Lim4jfzTffHB577LF4+PHe9ByvU6CBFDUESEmkHDixb25dfYogC3iKU1BlcsqUKbwtMilVRUw/nOUfcKfIRilKRcGOqng7HqNRS8K//MvPowCak6JSL730Yioe8dFHO2KUpnMSgFna4rFjR2JEh/THkxGixsNnPkdsEZ189dXXonAclMQYewKJ6uFPxocPET5SMa+99tqUXkl/mY2N+27tn7Ede7I5cE/kcMmSJeEXv/hFmDx5ShLTpA8ihLPGY3zDXrA4rWQ/76WaJY3CI/zM4ePZ4czZe72XgASKT0ABVnwfO0MJSEAC7UKAg4hnzpyZSs8vWLDgFBsQVZdffnlKwTrlxUZPDBo0OO2NIk1t5cpVcUFbWsASGWFv2dq169LZSuwLY8FLRUFEAhGck4v35kVCo+Fa5MdTozalyok8TzSPYhuIDKJaW7duS2NiK3uhWOCTekmkhAOSy6NOCII/+ZMvxTTBW8vsPLe5Mc7o0aNTyiNj0HgOIcTRAYiMF154IaXK7dmzJwqxPekaooqIMK5lHnv37o/X7ox2nn78bAwqKK5evSqlj2a+y8QNfSMuhw8fkdL3Zs2afdo0v2RQK/+BkGJvXnZgOMNlIozo68aNGxMH0kYbN1hy0DUCi0PI8WN52iIM2fuI2LZJQAIdi4ACrGP529lKQAISaDMC7GkhlY6FftZYgGeN1EEKFQwbNix7qtl7ihrcccen4sG8H8SI0Z56wcIbiCZk/bK3isNsOQiaw4U3bdpc3ydpe5kQyJ5EpGUHJWfPHTp0MAmPcgHFdQi97FpEEwtqUimbalzPeNn12Mf1PJ/1O2zY8PC5z30+pRo+88wzYfny5fE9B1J3R46UBE9536RsjogRK8r7z5s375SFO3PLKgkiZmikbCJCszHL++Px1KlTYrGN+1IqZ3Y48NGjHMK8P75aKhASdUIURFckQch+rW3bPqjvhop+FJG46aab6guuMB52ZDZwMZ8B0h2xZ01KuyzNs76j+KBXr55JlN5++yfjPrErGqTlYT/75GAaH6ZG1A8/lPsAvnDOCnpwDa83LlKC+MHPtMxO+uK68s8Ic7vuuuuT0KJgSvY5433sw1u3joqeHyS/8lzjRmosUa5169ZFJqXxMl9QvZLPKscJ2CQggY5FQAHWsfztbCUgAQm0GQEWuUR6xo0bn0pyU7GQBTKRARbJWQod0aozNVLu2FND2iELX/bfsBcniyiwqKVqHimNc+fOjeJkelpME83JFv4seBm7vCEC2V/G/pysL87iIvKB/TTuKQJCSXT2liEwOMuL/srTzhr3y/lO2Muinus4EJniJFm/zJsiGpMmTUyFSCjx/s477yRG2SKdPhEEzG3MmDHhzjvvCp/+9KdT2huRsKzRJxGzfv36pqcQM4gdUuMoaJGNmV2f3SMA/vZv/zb1/+CDD54QmScrLdIn4ukb3/hm6udf//Vf0/4wfAkv0hJJWSQySWMc+FFgBLGEEBsbjxnAJ4hHxNvDD89PQrrcF/ho6tSpSVh+7WtfTxHMzMasXxj0788Zat2SoMQ2fMB91mDCOWqMj2DiPdzov7wRxcJOGv7n80hfXFtuF2mad911V4oKEgXcuHFD8ifzRNgNHjwk+rX5s9iIgBHleuSR36ex8Cv+zL4oOJv02/RG/5CABApFIP12if8gnD53oFBTdjISkIAEik3gl7/8ZfjOd74dD3e9Jnzxi18Mn/nMZxosKtt69izWV6x4LwknzvMqLV7r0iKZvVDlC94z2cZ+ISrJbdiwIaYdrk0LedLDiJAR9eKexTeCiagDY9M/wo+URxbDiK6sIaioVMeiOBMp7L0iKofIYqHOexmPvoisMAeie4jCcePGpYV71l92j/CjFD4RE66nHwQclf2IqmRjcT2Cjsge72EMzkjbuvX9FIVCXCAUEHMUehg+fESaY/kc6INf4wgeCmZ88AFzLh2ojKAYP358GrtcsPGerB0+fCiyXBdTA1dHGzbF93+YBCm8YIEAmzBhQpoDr+/atTu9Tlok4rJnz16pIiPXI0roBxuyA7ixtbZ2YOReEjoUSuEa0i67du2SRAxzo3DF0KHDmoyI4gP8Dh9ELY3xEbSTJ0+u9wHs8GkpWnUk+Z60xhEjRiYO2Zzx9zvvvJ3SVhGS/IxIpigM6a4I2KzhH/xPufy9e0nH3J2EJcz5jNA3NsC6qbZgwR/Dn/7pn8b3b42fGz6Lx1Lk8e67747C9hvRrycjxE29v7Wemz9/fuBg7WXLloavfOU/pQO5W2ss+5WABBoSMALWkIc/SUACEpBACxJgkYp44NZc45pyQdLcdTzPgpfbtGnTUvEGFuQlATa4PgUuez8L+qZaNh73pH+dLgWMa1igE8Xh1lTL+ste42cE3OlSK8vfg8gqv56De7dt23pCgFWnCEtT0btsPO7hR5QHgXmurWvXmrRXiWgNAhPxgg1EkhC0WWSQfhG3zTXmhNglqsatuUbVP0QU5fURYAiexhGq8vfSLzYgBLk11RBQiFzsO5ONsOLaadMuSrem+it/Dv8gtLlljYgpjfmW88lez+5JayRKiH005kIjGkgVTKKiNglIoOMRUIB1PJ87YwlIQAJtRuBshNXZXNOUwQgx0r9o59JHdm1231Tf2XPnc835vCcbj3tSBonElLez6bP8+vN9TFSvXAydy7jnci1+y1IAz/S+M73OXBFUZ9POpq+z6ae51NPy9yK+KNTx6KOPJkFb/hqRzDlzLq///Ja/5mMJSKD4BBRgxfexM5SABCRQWAIttaCuNEDtOa+2GrutxmlL3xLpIuXw+eefT8cJkAZLIRjSPGlEywYN6l+fFtqWtjmWBCRQOQQUYJXjCy2RgAQkIAEJSCDHBBBgnOX27//+73GP2bv1M2EfGo10Ro4euPTSS+tf84EEJNDxCJxdzL7jcXHGEpCABCQgAQlI4JwJdOnSNaVxsjeRVn6GG4U65s27NxbIufqc+/UNEpBAcQgYASuOL52JBCQggVMIFDHN65RJ+oQEKogA1Sap/MiN6o09enSPt56pkuR1112XDh9n/2JlNYthV5Y/tKboBBRgRfew85OABCQgAQlIoE0I8IUHBVQ4YJyCJlQ9pEw/55fNnTs33Si1Xyktmnui1T/InvBeAhJoRQIKsFaEa9cSkIAE2oMAiyoWgtxnZa/bww7HlEBHI0BZ+ptuuilcccUV6Yw05k+FRp4n/ZBDn8+2YmNbscMeI+VtRdtxJFAioADzkyABCUigYARIgaKUOIcWc6YTiz+bBCTQNgSIfHGr9LZnz5506Df/XnD0gU0CEmg7AhbhaDvWjiQBCUigTQj06dM3HvQ6Mh7muy2sWrUyZIfGtsngDiIBCeSCwKZNG8OGDRvSYdsDBzZ/wHYuJqOREsgZAQVYzhymuRKQgATORGDUqFFpr8mOHTvDK6+8EtavX3+mt/i6BCTQgQjwb8LSpUvTlzSzZ88JU6ZM6UCzd6oSaH8CCrD294EWSEACEmhRAiNGjAg33HBDGDJkcFi+fHn45S9/EV599dXAGUU2CUigYxN49913478Jv4znlS0JVGO88sorw8SJEzs2FGcvgTYm4B6wNgbucBKQgARam0Dv3r3D7Nmz04Gv//Zv/xZ+8IMfxDTEw6ks9oQJEwJ7PizO0dpesH8JVA4Bimzwd37NmjXh0UcfDf/8z/8npSbfcsut4bLLLsvFnrXKoaklEvj4BFLd0fiX0gMgPj5Le5CABCRQUQTefvvt8MADD4Qf/eiHqcrZ+PETwiWXXBJGjx6dvvmmSqJNAhIoPgEKbmzYsDG8+eay8N5774Vdu3aHz3/+8+Ev/uIvwvTp00OXLl2KD8EZSqCCCCjAKsgZmiIBCUigpQmQgvjDH/4wLFq0MGzZ8n4qg82Ge84l8ru3lqZtfxKoPAJEvxBgH3ywLezduy/+3e8fZs2aHb7yla+kKHnlWaxFEig+AQVY8X3sDCUggQ5O4MCBA2nD/aJFi8Kzzz4ThdiWcPDgQfeEdfDPhdPvGAQQYDU1NaG2tjbu97oqXHfddfGg6BmhT58+HQOAs5RABRJQgFWgUzRJAhKQQEsTQHBt2rQprF27NuzevTscOXLECFhLQ7Y/CVQgAVKNq6u7xH1ePcPIkaPibaR7virQT5rUsQgowDqWv52tBCQgAQlIQAISkIAEJNCOBCxD347wHVoCEpCABCQgAQlIQAIS6FgEFGAdy9/OVgISkIAEJCABCUhAAhJoRwIKsHaE79ASkIAEJCABCUhAAhKQQMcioADrWP52thKQgAQkIAEJSEACEpBAOxJQgLUjfIeWgAQkIAEJSEACEpCABDoWAQVYx/K3s5WABCQgAQlIQAISkIAE2pGAAqwd4Tu0BCQgAQlIQAISkIAEJNCxCCjAOpa/na0EJCABCUhAAhKQgAQk0I4EFGDtCN+hJSABCUhAAhKQgAQkIIGORUAB1rH87WwlIAEJSEACEpCABCQggXYkoABrR/gOLQEJSEACEpCABCQgAQl0LAIKsI7lb2crAQlIQAISkIAEJCABCbQjAQVYO8J3aAlIQAISkIAEJCABCUigYxFQgHUsfztbCUhAAhKQgAQkIAEJSEACEpCABCQgAQlIQAISkIAEJFB8Av8fREc3t5TqbiUAAAAASUVORK5CYII=;" vertex="1" parent="1">
          <mxGeometry x="13.14" y="-60" width="366.86" height="214" as="geometry" />
        </mxCell>
        <mxCell id="dWOH3xf_sxbfQJaW1Qia-5" style="edgeStyle=orthogonalEdgeStyle;rounded=0;orthogonalLoop=1;jettySize=auto;html=1;exitX=1;exitY=0.5;exitDx=0;exitDy=0;endArrow=none;endFill=0;" edge="1" parent="1" source="dWOH3xf_sxbfQJaW1Qia-2">
          <mxGeometry relative="1" as="geometry">
            <mxPoint x="370" y="220" as="targetPoint" />
          </mxGeometry>
        </mxCell>
        <mxCell id="dWOH3xf_sxbfQJaW1Qia-2" value="&lt;h2&gt;Outcome Data&lt;/h2&gt;" style="text;html=1;align=center;verticalAlign=middle;whiteSpace=wrap;rounded=1;fillColor=#e1d5e7;strokeColor=#9673a6;fontFamily=Verdana;fontSize=10;" vertex="1" parent="1">
          <mxGeometry x="180" y="250" width="170" height="40" as="geometry" />
        </mxCell>
        <mxCell id="dWOH3xf_sxbfQJaW1Qia-3" value="&lt;h2&gt;&lt;b&gt;Adaptive Capacity&lt;/b&gt;&lt;/h2&gt;" style="text;html=1;align=center;verticalAlign=middle;whiteSpace=wrap;rounded=1;fillColor=#e1d5e7;strokeColor=#9673a6;fontFamily=Verdana;fontSize=10;" vertex="1" parent="1">
          <mxGeometry x="390" y="280" width="170" height="40" as="geometry" />
        </mxCell>
      </root>
    </mxGraphModel>
  </diagram>
</mxfile>
